<?xml version="1.0" encoding="UTF-8" standalone="no"?>
<!-- Created with Inkscape (http://www.inkscape.org/) -->

<svg
   xmlns:dc="http://purl.org/dc/elements/1.1/"
   xmlns:cc="http://creativecommons.org/ns#"
   xmlns:rdf="http://www.w3.org/1999/02/22-rdf-syntax-ns#"
   xmlns:svg="http://www.w3.org/2000/svg"
   xmlns="http://www.w3.org/2000/svg"
   xmlns:sodipodi="http://sodipodi.sourceforge.net/DTD/sodipodi-0.dtd"
   xmlns:inkscape="http://www.inkscape.org/namespaces/inkscape"
   width="503mm"
   height="45mm"
   viewBox="0 0 503 45"
   version="1.1"
   id="svg8"
   inkscape:version="0.92.4 (5da689c313, 2019-01-14)"
   sodipodi:docname="banner3.svg">
  <defs
     id="defs2">
    <inkscape:path-effect
       effect="spiro"
       id="path-effect2531"
       is_visible="true" />
  </defs>
  <sodipodi:namedview
     id="base"
     pagecolor="#ffffff"
     bordercolor="#666666"
     borderopacity="1.0"
     inkscape:pageopacity="0.0"
     inkscape:pageshadow="2"
     inkscape:zoom="0.7"
     inkscape:cx="1011.1989"
     inkscape:cy="134.91283"
     inkscape:document-units="mm"
     inkscape:current-layer="layer1"
     showgrid="false"
     inkscape:snap-bbox="true"
     inkscape:snap-global="true"
     inkscape:window-width="1920"
     inkscape:window-height="1017"
     inkscape:window-x="-8"
     inkscape:window-y="-8"
     inkscape:window-maximized="1"
     showguides="true"
     inkscape:guide-bbox="true">
    <sodipodi:guide
       position="88.198941,221.29917"
       orientation="0,1"
       id="guide3466"
       inkscape:locked="false" />
  </sodipodi:namedview>
  <metadata
     id="metadata5">
    <rdf:RDF>
      <cc:Work
         rdf:about="">
        <dc:format>image/svg+xml</dc:format>
        <dc:type
           rdf:resource="http://purl.org/dc/dcmitype/StillImage" />
        <dc:title></dc:title>
      </cc:Work>
    </rdf:RDF>
  </metadata>
  <g
     inkscape:label="Layer 1"
     inkscape:groupmode="layer"
     id="layer1"
     transform="translate(0,-252)">
    <path
       style="opacity:0.75;fill:#9780e8;fill-opacity:1;stroke:#9780e8;stroke-width:0.36702654;stroke-miterlimit:4;stroke-dasharray:none;stroke-opacity:1"
       id="path2499"
       d="m -297.90904,80.209817 c -2.58513,0.17939 -4.9316,0.84975 -7.32442,1.39746 -0.43579,0.11643 -0.87403,0.22985 -1.30741,0.34928 -0.4154,0.11448 -0.83003,0.23008 -1.23873,0.35237 -0.37618,0.11256 -1.4818,0.4749 -1.11534,0.35208 1.78098,-0.59699 3.5569,-1.19946 5.35922,-1.77463 0.58777,-0.18757 -1.09742,0.44814 -1.62136,0.69084 -1.48133,0.68019 -2.66357,1.51907 -3.81174,2.37935 -1.0907,0.90564 -2.1042,1.84203 -3.05157,2.79989 -0.85124,0.81291 -1.3471,1.71991 -1.88695,2.61066 -0.58231,0.85916 -0.76089,1.77231 -0.86603,2.68527 -0.0902,0.98243 -0.0879,1.96665 -0.0777,2.95013 0.006,0.84876 0.0116,1.69754 0.019,2.54632 -0.006,0.8662 -0.003,1.73241 -0.006,2.598603 -0.0724,0.85958 0.0968,1.70332 0.41463,2.54091 0.23274,0.74248 0.48457,1.4521 1.20698,2.08899 0.61524,0.57418 1.40663,1.07599 2.04043,1.64108 0.80236,0.61583 1.91525,1.04051 2.95039,1.513 1.33049,0.54718 2.60883,1.14481 4.00739,1.63289 1.26551,0.55447 2.53519,1.10402 3.91603,1.56072 1.03365,0.33066 2.17453,0.42976 3.33445,0.46923 1.07234,0.0436 2.10758,-0.21993 3.05767,-0.48595 2.57812,-0.60111 0.96221,-0.2386 -5.49139,1.84625 -0.17563,0.0567 0.33922,-0.12525 0.50409,-0.1919 0.50041,-0.20227 0.98371,-0.42036 1.47949,-0.62659 1.01616,-0.388 2.00039,-0.8043 2.95678,-1.23999 0.91032,-0.42764 1.81051,-0.86351 2.74315,-1.27492 0.94141,-0.34537 1.76753,-0.76908 2.56874,-1.21426 0.7457,-0.43717 1.43053,-0.90446 2.0424,-1.40592 0.66388,-0.48184 1.23044,-0.98769 1.67587,-1.54665 0.45999,-0.63923 0.99291,-1.25876 1.53498,-1.87554 0.5892,-0.67039 1.18076,-1.33792 1.71797,-2.02308 0.39082,-0.58798 0.67973,-1.19526 1.06708,-1.784553 0.3225,-0.56977 0.64216,-1.14282 0.88157,-1.72659 0.34742,-0.70515 0.55483,-1.42413 0.67629,-2.15278 0.0911,-0.63391 0.0988,-1.27035 0.10345,-1.90602 0.006,-0.57995 0.0351,-1.15641 -0.11947,-1.73059 -0.0901,-0.74317 -0.467,-1.44439 -0.83433,-2.15255 -0.3304,-0.63377 -0.68781,-1.25629 -0.88909,-1.90981 -0.002,-0.70744 -0.47948,-1.25414 -1.13313,-1.82426 -0.55492,-0.55352 -1.38764,-0.97292 -2.07371,-1.46787 -0.81935,-0.51701 -1.77671,-0.94559 -2.70565,-1.39632 -0.99037,-0.532 -2.08604,-0.98921 -3.12331,-1.48907 -0.87414,-0.32921 -1.73709,-0.66622 -2.60296,-1.00249 -0.69679,-0.27836 -1.34704,-0.58666 -2.16209,-0.738 -1.08589,-0.12956 -2.19825,-0.0841 -3.28926,-0.17925 -1.13454,-0.0839 -2.28616,-0.24924 -3.43017,-0.15878 -1.10066,0.10237 -2.09139,0.40682 -3.16322,0.57834 1.27197,-0.52204 -2.89528,0.92209 -1.47376,0.448 10.57924,-3.52829 7.19494,-2.59666 5.19591,-1.62553 -0.72517,0.40404 -1.56618,0.72882 -2.28193,1.13722 -0.85337,0.41599 -1.59637,0.87825 -2.24413,1.4026 -0.49227,0.40678 -0.24207,0.2055 -0.7506,0.60388 0,0 -6.8702,1.73131 -6.8702,1.73131 v 0 c 0.46663,-0.42074 0.21125,-0.227 0.75893,-0.58435 0.54471,-0.57926 1.26133,-1.07979 2.14408,-1.50004 1.36385,-0.70856 -0.75717,0.4087 0.66749,-0.3978 0.49488,-0.28014 1.14734,-0.45192 1.62218,-0.74876 2.5336,-1.44753 5.86941,-2.37686 9.16573,-3.11891 1.0752,-0.20991 2.12724,-0.49159 3.28515,-0.49766 1.17324,0.0171 2.32828,0.13329 3.48993,0.22238 1.14898,0.0507 2.32691,0.0386 3.42865,0.26157 0.81466,0.2159 1.52051,0.53174 2.25849,0.82274 0.8577,0.35723 1.76365,0.67303 2.60226,1.04508 1.04456,0.49483 2.12255,0.96567 3.12298,1.49114 0.97197,0.46457 1.96039,0.91586 2.80242,1.46188 0.70795,0.50104 1.5416,0.94033 2.10703,1.50571 0.69379,0.61273 1.27882,1.2243 1.28979,1.98188 0.16868,0.64187 0.51856,1.24709 0.82889,1.86838 0.36082,0.72397 0.80207,1.43406 0.89806,2.19214 0.18347,0.59701 0.21409,1.18957 0.17707,1.79613 -0.004,0.64834 -0.0101,1.29728 -0.0908,1.94425 -0.10748,0.73979 -0.25302,1.48076 -0.61934,2.19508 -0.20223,0.60841 -0.55456,1.18986 -0.83731,1.78609 -0.38438,0.59735 -0.76746,1.19168 -1.0586,1.80726 -0.50827,0.697693 -1.09766,1.370663 -1.71893,2.036413 -0.47509,0.63272 -1.10806,1.2237 -1.53001,1.87001 -0.45677,0.57714 -0.87272,1.14013 -1.58822,1.63158 -0.69478,0.47688 -1.24382,1.02605 -2.02198,1.46631 -0.78504,0.45419 -1.54893,0.94753 -2.52616,1.26425 -0.94064,0.40773 -1.87407,0.8245 -2.75295,1.27114 -0.96999,0.42949 -1.91325,0.87818 -2.93589,1.26764 -0.51566,0.18604 -1.01541,0.3894 -1.49506,0.60571 -0.16196,0.073 -0.29313,0.17005 -0.47004,0.23039 -2.29468,0.78265 -4.61452,1.54055 -6.93652,2.29579 -0.14997,0.0487 -0.31743,0.0768 -0.47616,0.11521 -1.06772,0.22465 -2.12025,0.4222 -3.27677,0.31565 -1.23229,-0.0848 -2.42102,-0.26202 -3.49092,-0.64161 -1.35639,-0.48197 -2.6354,-1.02669 -3.9158,-1.57276 -1.3944,-0.5212 -2.71988,-1.10342 -4.06352,-1.66714 -1.10168,-0.49836 -2.26638,-0.96317 -3.10158,-1.62471 -0.64367,-0.56228 -1.4208,-1.07058 -2.03305,-1.64614 -0.7582,-0.68478 -1.11657,-1.42842 -1.3212,-2.22988 -0.32906,-0.86532 -0.58516,-1.73468 -0.4844,-2.62525 -0.004,-0.86454 -8e-5,-1.72906 -0.008,-2.593563 0.004,-0.85089 9.7e-4,-1.70178 0.002,-2.55266 0.006,-0.99158 -0.0112,-1.98368 0.0547,-2.97471 0.0996,-0.94368 0.2108,-1.89603 0.76429,-2.7947 0.59394,-0.89854 1.02112,-1.83864 1.84603,-2.68191 0.97617,-0.96774 1.98467,-1.9216 3.04576,-2.85962 1.14989,-0.87347 2.24911,-1.76708 3.73835,-2.46324 3.66047,-1.86108 8.1938,-3.0545 12.60524,-4.20997 2.4611,-0.56487 4.90448,-1.19682 7.56808,-1.36085 0,0 -6.02745,2.59165 -6.02745,2.59165 z"
       inkscape:connector-curvature="0" />
    <path
       style="opacity:0.75;fill:#9780e8;fill-opacity:1;stroke:#9780e8;stroke-width:0.27023366;stroke-miterlimit:4;stroke-dasharray:none;stroke-opacity:1"
       id="path2501"
       d="m -251.08591,92.789147 c -0.0285,0.7979 -0.0248,1.5962 -0.0266,2.39427 -9.7e-4,0.74036 0.0139,1.48068 0.014,2.22102 0.002,0.54546 0.006,1.09091 0.0101,1.63637 0.002,0.45667 0.002,0.91332 0.002,1.369993 7e-5,0.44884 1e-5,0.89768 0,1.34653 0.002,0.47154 -0.002,0.94308 -0.004,1.41462 0.0531,0.54414 -0.0947,1.07936 -0.20262,1.61666 -0.11088,0.49141 -0.0998,0.98878 -0.17411,1.4818 -0.12675,0.44684 -0.23256,0.89445 -0.28826,1.34706 -0.0448,0.44552 -0.0464,0.89214 -0.0487,1.33836 -5.9e-4,0.44969 6.1e-4,0.89937 9.7e-4,1.34906 6e-4,0.44995 6e-4,0.8999 6e-4,1.34985 3e-5,0.29994 3e-5,0.59988 3e-5,0.89983 0,0 -4.73038,1.51511 -4.73038,1.51511 v 0 c 10e-6,-0.29994 10e-6,-0.59987 -2e-5,-0.89981 -5e-5,-0.44987 -1e-4,-0.89974 -6e-4,-1.3496 -6e-4,-0.44998 -0.002,-0.89996 -0.002,-1.34994 6e-4,-0.45268 -4e-5,-0.9056 0.0332,-1.35791 0.0427,-0.45945 0.11782,-0.91729 0.27465,-1.36762 0.1405,-0.48739 0.0607,-0.99086 0.18661,-1.48126 0.10015,-0.52577 0.27528,-1.04752 0.22851,-1.57924 -0.002,-0.47063 -0.006,-0.94123 -0.004,-1.41185 -2e-5,-0.44884 -8e-5,-0.89767 -1e-5,-1.34651 1.3e-4,-0.45711 2.5e-4,-0.9142 0.002,-1.37131 0.002,-0.54746 0.006,-1.094913 0.0101,-1.642373 2.5e-4,-0.74335 0.0153,-1.48667 0.014,-2.23002 -0.002,-0.79241 0.002,-1.58504 -0.0266,-2.37726 0,0 4.73266,-1.51583 4.73266,-1.51583 z"
       inkscape:connector-curvature="0" />
    <path
       style="opacity:0.75;fill:#9780e8;fill-opacity:1;stroke:#9780e8;stroke-width:0.27023366;stroke-miterlimit:4;stroke-dasharray:none;stroke-opacity:1"
       id="path2503"
       d="m -254.22735,97.421527 c 2.23615,-1.0849 4.71008,-1.98291 7.24923,-2.75497 0.76998,-0.174 1.56952,-0.30906 2.3712,-0.41579 0.72682,-0.0789 1.4409,-0.15036 2.13427,0.033 0.68497,0.13516 1.27156,0.39513 1.92651,0.57178 0.63798,0.19925 1.27731,0.3931 1.91214,0.59619 0.64322,0.14781 1.15643,0.41181 1.63424,0.71157 0.57894,0.37182 1.054,0.80202 1.51985,1.23042 0.51503,0.36322 0.97029,0.74539 1.26968,1.19536 0.32661,0.43739 0.49811,0.90203 0.58342,1.37949 0.1409,0.444773 0.28485,0.887193 0.36223,1.338493 0.0699,0.47037 0.067,0.94309 0.0686,1.41499 -0.006,0.56002 -0.002,1.12004 -5.9e-4,1.68006 -0.006,0.53978 9.7e-4,1.07958 -0.004,1.61935 -0.005,0.57515 -0.003,1.1503 6e-4,1.72547 0.0701,0.41427 0.21451,0.82074 0.28771,1.23519 0.0712,0.46132 0.0695,0.92511 0.0721,1.38805 0.002,0.49832 0.003,0.99662 0.004,1.49494 2e-5,0.0773 4e-5,0.1547 7e-5,0.23207 0,0 -4.72891,1.5143 -4.72891,1.5143 v 0 c 2.4e-4,-0.0775 5.1e-4,-0.15493 7.1e-4,-0.2324 0.002,-0.49829 0.006,-0.9966 0.004,-1.49491 -0.005,-0.4519 -0.008,-0.90442 -0.0605,-1.35535 -0.0636,-0.42733 -0.20083,-0.84576 -0.29834,-1.27006 0.004,-0.57531 0.005,-1.15062 6.1e-4,-1.72592 -0.004,-0.53944 0.004,-1.07888 -9.8e-4,-1.61832 0.004,-0.55965 0.011,-1.11935 0.003,-1.679 -0.004,-0.46142 -0.006,-0.92341 -0.0551,-1.384 -0.0634,-0.45218 -0.19106,-0.89653 -0.35325,-1.33882 -0.0694,-0.44798 -0.20277,-0.88691 -0.52013,-1.29509 -0.26716,-0.433053 -0.73749,-0.779823 -1.20199,-1.136333 -0.44827,-0.40941 -0.90456,-0.82213 -1.47599,-1.16838 -0.4569,-0.26721 -0.96149,-0.47929 -1.54627,-0.6239 -0.63867,-0.19048 -1.25135,-0.41192 -1.89926,-0.5906 -0.62369,-0.19063 -1.22296,-0.41455 -1.8969,-0.53248 -0.6537,-0.071 -1.31952,0.0229 -1.96061,0.10727 -0.77341,0.12626 -1.56354,0.23732 -2.27648,0.47174 -1.85644,0.63347 -0.0515,0.0206 3.62331,-1.32595 0.1594,-0.0584 -0.32822,0.1064 -0.48679,0.1657 -0.46858,0.17524 -0.88562,0.39328 -1.33409,0.58679 0,0 -4.92672,1.25003 -4.92672,1.25003 z"
       inkscape:connector-curvature="0" />
    <path
       style="opacity:0.75;fill:#9780e8;fill-opacity:1;stroke:#9780e8;stroke-width:0.27023366;stroke-miterlimit:4;stroke-dasharray:none;stroke-opacity:1"
       id="path2505"
       d="m -238.20319,99.014797 c 0.40752,-0.57386 0.64406,-1.18559 1.02959,-1.76502 0.2322,-0.36112 0.61439,-0.66015 1.00441,-0.95625 1.70962,-1.07927 4.08645,-1.60103 6.21874,-2.28122 0.60528,-0.1691 1.16935,-0.38729 1.75623,-0.5792 0.59906,-0.15338 1.25217,-0.1658 1.88983,-0.1804 0.8179,-0.0456 1.51505,0.17013 2.22692,0.38492 0.64449,0.17461 1.33509,0.23731 2.00143,0.36894 0.57035,0.16724 1.05501,0.40489 1.48692,0.69001 0.58018,0.34438 1.15796,0.68828 1.6999,1.05956 0.58566,0.40184 1.17238,0.81197 1.71679,1.23813 0.61595,0.44313 0.93009,0.9957 1.18407,1.55262 0.14717,0.57268 0.4088,1.12453 0.66444,1.680573 0.17272,0.56312 0.39241,1.12043 0.55898,1.68439 0.11382,0.48131 0.32077,0.94923 0.42003,1.43222 0.089,0.51035 0.10568,1.02404 0.11618,1.53692 0.008,0.49331 -5e-4,0.9866 -9.6e-4,1.4799 -2e-5,0.48767 9.6e-4,0.97535 0.002,1.46301 5.5e-4,0.45261 6.8e-4,0.90521 7.2e-4,1.35783 3e-5,0.44949 2e-5,0.89897 1e-5,1.34846 0.0229,0.40232 -0.0845,0.80236 -0.3106,1.17819 0,0 -4.83169,1.4036 -4.83169,1.4036 v 0 c 0.2321,-0.33914 0.44244,-0.6886 0.41186,-1.06667 -2e-5,-0.44949 -4e-5,-0.89897 -3e-5,-1.34846 5e-5,-0.45282 1.1e-4,-0.90562 7.3e-4,-1.35843 7e-4,-0.48856 0.003,-0.97712 0.005,-1.46568 6.9e-4,-0.49171 -0.003,-0.98341 -9.7e-4,-1.47512 -0.004,-0.50166 -0.008,-1.00424 -0.0847,-1.50407 -0.0907,-0.47911 -0.29359,-0.94178 -0.40713,-1.41768 -0.14571,-0.55613 -0.37103,-1.10192 -0.5259,-1.65685 -0.24639,-0.55844 -0.55365,-1.10423 -0.66216,-1.68306 -0.22149,-0.516533 -0.51564,-1.024113 -1.08718,-1.431343 -0.53961,-0.41851 -1.11135,-0.8244 -1.68779,-1.22198 -0.54656,-0.36508 -1.1432,-0.6945 -1.71863,-1.0405 -0.39081,-0.23817 -0.81959,-0.443 -1.34224,-0.55318 -0.68159,-0.13067 -1.39563,-0.19899 -2.03274,-0.41191 -0.66693,-0.19353 -1.33718,-0.30797 -2.08061,-0.2447 -0.61273,0.0344 -1.22136,0.0899 -1.75424,0.29886 -0.57173,0.20488 -1.16955,0.38277 -1.76343,0.56077 -0.34028,0.0969 -0.32438,0.0896 -0.64893,0.19272 -0.10044,0.0319 -0.39684,0.13354 -0.29985,0.0977 7.7893,-2.88478 5.21873,-2.03444 3.80095,-1.36777 -0.45472,0.22661 -0.82028,0.54034 -1.09733,0.85855 -0.49145,0.54489 -0.68451,1.16328 -1.0289,1.74681 0,0 -4.82884,1.39487 -4.82884,1.39487 z"
       inkscape:connector-curvature="0" />
    <path
       style="opacity:0.75;fill:#9780e8;fill-opacity:1;stroke:#9780e8;stroke-width:0.31516254;stroke-miterlimit:4;stroke-dasharray:none;stroke-opacity:1"
       id="path2515"
       d="m -167.04745,92.149077 c -0.21867,1.80604 -0.55925,3.60468 -0.85449,5.40655 -0.26852,1.7193 -0.3693,3.445723 -0.39987,5.171983 -0.006,0.86934 0.003,1.73869 0.0155,2.60799 0.008,0.5542 0.0126,1.10841 0.0144,1.66263 -0.007,0.58471 -0.004,1.16944 -9.6e-4,1.75417 9.6e-4,0.53165 0.002,1.06329 0.003,1.59494 2.9e-4,0.51661 1.5e-4,1.03322 1.5e-4,1.54983 -2e-5,0.43037 -3e-5,0.86075 -3e-5,1.29113 0,0 -5.60207,1.74014 -5.60207,1.74014 v 0 c -10e-6,-0.43038 -3e-5,-0.86075 -4e-5,-1.29111 0,-0.51666 -3e-5,-1.03331 1.5e-4,-1.54997 3e-4,-0.53218 7.2e-4,-1.06436 0.003,-1.59655 9.6e-4,-0.58404 0.006,-1.16812 -0.004,-1.75217 4e-5,-0.55595 1e-4,-1.1119 0.004,-1.66785 0.006,-0.88053 0.014,-1.76115 0.0611,-2.64131 0.086,-1.743 0.19328,-3.48655 0.46268,-5.223313 0.2789,-1.7825 0.68314,-3.56004 0.69077,-5.35408 0,0 5.60768,-1.70301 5.60768,-1.70301 z"
       inkscape:connector-curvature="0" />
    <path
       style="opacity:0.75;fill:#9780e8;fill-opacity:1;stroke:#9780e8;stroke-width:0.31516254;stroke-miterlimit:4;stroke-dasharray:none;stroke-opacity:1"
       id="path2517"
       d="m -170.7474,98.909177 c 0.97561,-0.7046 1.92853,-1.41919 2.85273,-2.14894 0.58748,-0.57711 1.47553,-0.91265 2.41094,-1.24598 2.22372,-0.79395 3.39379,-1.21346 6.46273,-2.25115 1.63364,-0.55239 -6.49716,2.24989 -4.86176,1.69945 1.87744,-0.63188 4.53794,-1.77097 6.93556,-2.33353 0.98992,-0.18816 2.04276,-0.34876 3.08309,-0.26953 1.00141,0.0654 1.78925,0.43203 2.45392,0.86783 0.66539,0.47003 1.40527,0.86862 1.93194,1.40525 0.5027,0.63012 0.96085,1.27361 1.4731,1.90049 0.51998,0.5575 0.73323,1.17821 0.94936,1.79769 0.23228,0.73222 0.27999,1.47744 0.4679,2.213323 0.20969,0.74917 0.27376,1.50986 0.30977,2.26838 0.038,0.78036 0.0291,1.56109 0.0344,2.34167 0.008,0.68673 8e-5,1.37347 -1.4e-4,2.06019 0.002,0.60823 0.006,1.21647 0.008,1.82468 9.6e-4,0.52306 9.6e-4,1.04611 0.002,1.56915 7e-5,0.5157 2e-5,1.0314 0,1.54709 -1e-5,0.086 -1e-5,0.17211 -1e-5,0.25816 0,0 -5.60211,1.74015 -5.60211,1.74015 v 0 c 0,-0.086 -1e-5,-0.17209 -2e-5,-0.25816 -2e-5,-0.51568 -9e-5,-1.03138 -2e-5,-1.54707 1.3e-4,-0.52347 3e-4,-1.04694 0.002,-1.57041 0.002,-0.61023 0.006,-1.22045 0.0101,-1.83069 9.6e-4,-0.68726 -0.006,-1.37454 0.006,-2.06179 0.006,-0.77794 0.002,-1.55592 -0.0187,-2.33377 -0.0367,-0.74281 -0.0827,-1.48797 -0.28584,-2.22221 -0.18686,-0.72987 -0.2473,-1.46586 -0.45255,-2.19412 -0.20674,-0.586953 -0.40688,-1.180213 -0.87486,-1.714883 -0.49621,-0.62018 -0.96311,-1.24951 -1.45543,-1.87081 -0.49975,-0.50886 -1.25089,-0.87342 -1.86619,-1.32852 -0.61064,-0.37285 -1.31123,-0.62226 -2.19919,-0.62316 -0.99391,0.024 -1.97167,0.15856 -2.88705,0.39777 -0.17687,0.0517 -0.35511,0.10149 -0.53061,0.15481 -0.17024,0.0517 -0.6704,0.21896 -0.5065,0.16015 1.6132,-0.57892 6.49142,-2.27487 4.85507,-1.72063 -19.70519,6.674143 3.58828,-1.04665 -1.5992,0.55158 -0.89328,0.32786 -1.92843,0.56625 -2.50841,1.12282 -0.96284,0.70036 -1.86198,1.43738 -2.80922,2.14476 0,0 -5.79091,1.49996 -5.79091,1.49996 z"
       inkscape:connector-curvature="0" />
    <path
       style="opacity:0.75;fill:#9780e8;fill-opacity:1;stroke:#9780e8;stroke-width:0.31516254;stroke-miterlimit:4;stroke-dasharray:none;stroke-opacity:1"
       id="path2519"
       d="m -132.57099,91.758607 c -0.0588,1.27053 -0.055,2.54181 -0.0503,3.81273 0.003,1.29707 0.005,2.59415 0.0106,3.89121 0.0348,1.214893 0.35264,2.416063 0.592,3.619823 0.13298,0.94337 0.24061,1.8842 0.45136,2.82266 0.14753,0.59919 0.21967,1.20314 0.25472,1.8082 0.048,0.49807 -0.0306,0.99995 0.0533,1.4963 0.1601,0.44881 0.26967,0.90107 0.33017,1.35869 0.0464,0.42389 0.0518,0.84886 0.0569,1.2735 0,0 -5.60073,1.74229 -5.60073,1.74229 v 0 c -0.003,-0.41655 -0.006,-0.83332 -0.0413,-1.2494 -0.0486,-0.4505 -0.1375,-0.89759 -0.31535,-1.33678 -0.13443,-0.50673 -0.0337,-1.02348 -0.075,-1.53523 -0.0214,-0.59614 -0.0695,-1.19204 -0.19592,-1.78384 -0.18846,-0.94541 -0.31746,-1.89051 -0.41543,-2.84101 -0.20957,-1.22042 -0.54932,-2.4328 -0.61253,-3.66119 0.006,-1.299263 0.007,-2.598533 0.0106,-3.897783 0.004,-1.26051 0.008,-2.52141 -0.0503,-3.78151 0,0 5.59731,-1.73866 5.59731,-1.73866 z"
       inkscape:connector-curvature="0" />
    <path
       style="opacity:0.75;fill:#9780e8;fill-opacity:1;stroke:#9780e8;stroke-width:0.31516254;stroke-miterlimit:4;stroke-dasharray:none;stroke-opacity:1"
       id="path2521"
       d="m -133.41489,84.492377 c -0.0355,0.78877 -0.0204,1.57801 -0.0128,2.36697 0,0 -5.57918,1.73303 -5.57918,1.73303 v 0 c 0.007,-0.78631 0.023,-1.57292 -0.0129,-2.35903 0,0 5.60475,-1.74097 5.60475,-1.74097 z"
       inkscape:connector-curvature="0" />
    <path
       style="opacity:0.75;fill:#9780e8;fill-opacity:1;stroke:#9780e8;stroke-width:0.36807039;stroke-miterlimit:4;stroke-dasharray:none;stroke-opacity:1"
       id="path2513-2"
       d="m -201.1259,99.332307 c 2.08356,0.48866 4.33788,0.57767 6.54149,0.671453 2.82462,0.0927 5.65448,0.0968 8.48234,0.0927 1.01468,-0.0344 2.05647,-0.0769 3.00895,-0.318313 0.22822,-0.058 0.86576,-0.29201 0.65125,-0.21682 -5.96652,2.089683 -7.39636,2.793503 -5.1634,1.732163 1.01835,-0.60921 1.44547,-1.413613 1.7114,-2.247723 0.25335,-0.99509 0.29882,-1.9835 -0.0663,-2.96628 -0.12751,-0.14836 -0.21709,-0.31157 -0.38269,-0.44496 -1.19087,-0.95897 -3.69838,-1.33932 -5.48393,-1.61184 -1.95063,-0.18917 -3.9499,-0.4396 -5.93807,-0.35726 -1.07506,0.0445 -1.4953,0.14365 -2.5134,0.30954 -0.36172,0.0961 -0.73698,0.17467 -1.08525,0.28797 -0.33563,0.10925 -1.29604,0.48575 -0.95973,0.37735 1.77138,-0.57083 3.44932,-1.25402 5.26793,-1.76571 0.34405,-0.0968 -0.54211,0.32573 -0.78476,0.50434 -0.48731,0.35854 -0.97444,0.84824 -1.38411,1.23722 -1.57837,1.54687 -2.69243,3.22882 -3.62066,4.95575 -0.97706,1.913093 -1.37985,3.818763 -1.07389,5.811943 0.39415,1.78903 2.08761,3.16586 4.05655,4.43123 2.28807,1.30983 5.18632,1.87715 8.16254,2.29932 2.54635,0.28695 5.1526,0.44458 7.74088,0.35745 0.83276,-0.0303 1.66564,-0.0877 2.42062,-0.32134 0.18912,-0.0587 0.72454,-0.26975 0.53994,-0.20603 -5.82597,2.01365 -7.4451,2.92818 -5.4195,1.81909 0.10013,-0.0738 0.20061,-0.14769 0.30091,-0.22154 0,0 6.72721,-1.76499 6.72721,-1.76499 v 0 c -0.0996,0.0782 -0.19936,0.15679 -0.29906,0.23536 -1.7501,1.60233 -0.27494,0.34026 -6.9995,2.73189 -0.91668,0.32606 -2.08324,0.29302 -3.09429,0.34552 -2.61443,0.0101 -5.23608,-0.13521 -7.79264,-0.47966 -3.07903,-0.47908 -6.04496,-1.13023 -8.39307,-2.50729 -2.06234,-1.33925 -3.82807,-2.81046 -4.2944,-4.68342 -0.13285,-0.80458 -0.21437,-1.0373 -0.17126,-1.85904 0.0736,-1.39847 0.58049,-2.77614 1.14917,-4.12453 0.89822,-1.749763 1.93967,-3.459153 3.48394,-5.039473 0.42493,-0.42112 1.43304,-1.59188 2.06894,-1.85799 2.77984,-1.16328 5.84438,-2.5659 9.17271,-3.24149 1.13035,-0.13488 1.40992,-0.1976 2.59472,-0.21243 2.0237,-0.0236 4.04017,0.22086 6.01747,0.44897 2.06583,0.3444 4.54403,0.76377 5.89,1.88797 0.19715,0.16455 0.3115,0.36133 0.46725,0.542 0.18215,0.4315 0.32867,0.69465 0.37877,1.14065 0.0736,0.65594 -0.0754,1.32591 -0.15063,1.97874 -0.21151,0.90267 -0.59317,1.7712 -1.50835,2.50999 -2.81987,1.947963 -6.91799,3.063863 -11.04313,3.097553 -2.83321,-0.0135 -5.66871,-0.0169 -8.49781,-0.12375 -2.29012,-0.10858 -4.60467,-0.23705 -6.77942,-0.72466 0,0 6.06406,-2.509693 6.06406,-2.509693 z"
       inkscape:connector-curvature="0" />
    <rect
       style="opacity:0.75;fill:#8cceff;fill-opacity:1;stroke:#8cceff;stroke-width:0.65967929;stroke-miterlimit:4;stroke-dasharray:none;stroke-opacity:0.87843137"
       id="rect10"
       width="502.99991"
       height="45.48645"
       x="-0.44150069"
       y="253.0486" />
    <path
       style="opacity:0.75;fill:#80a0e8;fill-opacity:1;stroke:#80a0e8;stroke-width:0.89750111;stroke-miterlimit:4;stroke-dasharray:none;stroke-opacity:1"
       d="m 402.59717,297.83366 c 0.60195,-1.80943 2.78374,-5.37944 4.37239,-7.15456 4.91148,-5.48793 11.8892,-8.4581 19.86747,-8.45693 5.15074,6.7e-4 8.59099,0.68233 19.36655,3.83674 12.79572,3.74583 13.68002,3.90959 20.93677,3.87737 5.2426,-0.0232 6.33018,-0.12142 9.35641,-0.84428 10.5644,-2.52351 18.77929,-7.90544 24.34514,-15.9495 l 1.71651,-2.48077 v 13.93667 13.93664 H 452.46106 402.3638 Z"
       id="path2569"
       inkscape:connector-curvature="0" />
    <path
       style="opacity:0.75;fill:#80a0e8;fill-opacity:1;stroke:#80a0e8;stroke-width:0.78722119;stroke-miterlimit:4;stroke-dasharray:none;stroke-opacity:1"
       d="m 94.217219,253.78465 c -0.560183,1.49596 -2.590466,4.44741 -4.068872,5.91499 -4.570545,4.53708 -11.063873,6.99265 -18.488332,6.99167 -4.793138,-5.3e-4 -7.994605,-0.5641 -18.02214,-3.17199 -11.907428,-3.09681 -12.730327,-3.23221 -19.483344,-3.20557 -4.878668,0.0192 -5.890703,0.10044 -8.70686,0.698 -9.83104,2.08628 -17.4757408,6.53575 -22.6551861,13.18609 l -1.5973367,2.05095 v -11.522 -11.522 H 47.814749 94.434361 Z"
       id="path2569-4"
       inkscape:connector-curvature="0" />
    <path
       style="opacity:0.75;fill:#9780e8;fill-opacity:1;stroke:#999eff;stroke-width:0.13404521;stroke-miterlimit:4;stroke-dasharray:none;stroke-opacity:1"
       id="path2967"
       d="m 31.289886,181.13338 c 0.02798,0.1647 0.04966,0.33129 0.08376,0.49408 0.09468,0.45164 0.293388,1.19769 0.408275,1.6137 0.307251,1.11249 0.649989,2.20699 0.993751,3.30171 0.730176,2.15951 1.512166,4.28946 2.315986,6.40585 0.5136,1.42608 1.13342,2.78395 1.67136,4.19408 0.3392,0.84669 0.63567,1.71767 0.87883,2.61606 0.14806,0.60836 0.32997,1.20017 0.51617,1.7912 0.11922,0.48594 0.31386,0.92494 0.50242,1.36926 0.11564,0.28187 0.1563,0.59785 0.25421,0.88872 0.0175,-0.84809 0.0207,0.12566 -1.5338,0.92251 -0.0854,0.0438 0.0939,-0.2019 0.13593,-0.30626 0.0756,-0.18806 0.148,-0.37834 0.21689,-0.57057 0.18272,-0.51 0.4502,-1.33099 0.61372,-1.82532 0.84908,-2.57 1.72145,-5.12676 2.59319,-7.68431 0.74907,-2.14843 1.4438,-4.32664 2.07216,-6.53678 0.33138,-1.3413 0.73685,-2.64496 1.28361,-3.86732 0.31185,-0.62917 0.65519,-1.23433 1.01529,-1.82035 0.22535,-0.33038 0.46549,-0.64235 0.69068,-0.97308 0.66662,-1.04718 1.51988,-1.47761 2.47117,-2.18268 0.27419,-0.21643 0.57721,-0.321 0.89428,-0.36706 0.17499,-0.0152 0.0879,-0.009 0.26126,-0.0175 0,0 -1.49328,1.39868 -1.49328,1.39868 v 0 c -0.16683,0.0178 -0.0834,0.006 -0.25044,0.0344 -0.30264,0.075 -0.58381,0.22011 -0.84585,0.4291 2.68815,-1.99934 1.53977,-1.24596 1.06351,-0.7352 -0.14714,0.1578 -0.27198,0.34194 -0.39898,0.52492 -0.22631,0.33162 -0.44957,0.66339 -0.69752,0.96986 -0.38346,0.56638 -0.71218,1.19073 -1.05079,1.80029 -0.57577,1.20975 -1.00553,2.51046 -1.34475,3.8571 -0.63775,2.22237 -1.3437,4.41174 -2.10428,6.57067 -0.87083,2.54573 -1.74887,5.087 -2.56474,7.66259 -0.18896,0.60234 -0.37191,1.20778 -0.56594,1.80751 -0.0607,0.18777 -0.12816,0.37197 -0.18995,0.5592 -0.0364,0.11018 -0.0281,0.26361 -0.10449,0.33294 -1.60275,1.45313 -1.1971,1.82426 -1.79035,1.17243 -0.0879,-0.28832 -0.13522,-0.59171 -0.23579,-0.87338 -0.18905,-0.45372 -0.37855,-0.90652 -0.50127,-1.39903 -0.19045,-0.59449 -0.37358,-1.19138 -0.51584,-1.80766 -0.22944,-0.89586 -0.51896,-1.7614 -0.84384,-2.60801 -0.52882,-1.41689 -1.13011,-2.78872 -1.63747,-4.21923 -0.788529,-2.13164 -1.557258,-4.2752 -2.298196,-6.43434 -0.568349,-1.77459 -1.146556,-3.54954 -1.600796,-5.37795 0,0 1.631912,-1.11081 1.631912,-1.11081 z"
       inkscape:connector-curvature="0" />
    <path
       style="opacity:0.75;fill:#9780e8;fill-opacity:1;stroke:#999eff;stroke-width:0.16363654;stroke-miterlimit:4;stroke-dasharray:none;stroke-opacity:1"
       id="path2973"
       d="m 35.863501,326.19384 c 0.179361,2.64879 0.165467,5.30563 0.154429,7.95798 -0.04132,3.37273 -0.187707,6.74331 -0.303121,10.1145 -0.03687,1.06462 -0.06578,2.12947 -0.07023,3.19457 0.007,0.38722 -0.01264,0.77488 0.01545,1.1615 0.05642,0.40988 0.115883,0.81912 0.149231,1.23095 -0.01639,0.27553 0.07035,0.5415 0.0947,0.81347 -0.833979,0.36301 -1.66797,0.72602 -2.501938,1.08903 0,0 2.36117,-1.24204 2.36117,-1.24204 v 0 c -0.779081,0.40795 -1.558151,0.81592 -2.337233,1.22387 0.05221,-0.26539 -0.119604,-0.53059 -0.06801,-0.80113 -0.02552,-0.41108 -0.07445,-0.82033 -0.13989,-1.2282 -0.05104,-0.39394 -0.03196,-0.79024 -0.02259,-1.18606 0.04062,-1.085 0.119886,-2.16862 0.189263,-3.25246 0.223911,-3.38211 0.420478,-6.76659 0.422082,-10.15519 -0.0199,-2.60916 -0.03067,-5.23058 -0.372042,-7.82623 0,0 2.428698,-1.09456 2.428698,-1.09456 z"
       inkscape:connector-curvature="0" />
    <path
       style="opacity:0.75;fill:#9780e8;fill-opacity:1;stroke:#999eff;stroke-width:0.15568814;stroke-miterlimit:4;stroke-dasharray:none;stroke-opacity:1"
       id="path2979"
       d="m 175.34639,273.38663 c -0.0797,1.77599 -0.0799,3.55304 -0.12835,5.3295 -0.0886,2.28274 -0.12497,4.56524 -0.0146,6.84771 0,0 -2.54734,0.86155 -2.54734,0.86155 v 0 c -0.01,-2.29604 0.058,-4.59102 0.11209,-6.8867 0.0161,-1.75227 0.001,-3.50522 -0.0803,-5.2568 0,0 2.65841,-0.89526 2.65841,-0.89526 z"
       inkscape:connector-curvature="0" />
    <path
       style="opacity:0.75;fill:#9780e8;fill-opacity:1;stroke:#999eff;stroke-width:0.15568814;stroke-miterlimit:4;stroke-dasharray:none;stroke-opacity:1"
       id="path2981"
       d="m 175.95101,269.64926 c -0.008,0.40065 -0.0312,0.80235 0.0129,1.20228 0,0 -2.63889,0.90543 -2.63889,0.90543 v 0 c -0.0481,-0.4031 -0.01,-0.8075 -0.0353,-1.21147 0,0 2.66132,-0.89624 2.66132,-0.89624 z"
       inkscape:connector-curvature="0" />
    <path
       style="opacity:0.75;fill:#9780e8;fill-opacity:1;stroke:#999eff;stroke-width:0.15568814;stroke-miterlimit:4;stroke-dasharray:none;stroke-opacity:1"
       id="path2983"
       d="m 165.09972,266.26535 c -0.0637,2.11064 -0.21095,4.2194 -0.31711,6.32924 -0.10447,2.88659 -0.26307,5.77989 -0.01,8.66545 0.0365,0.41716 0.10072,0.83307 0.15105,1.24961 0.19338,1.1006 0.34756,2.22638 0.88392,3.28312 0,0 -2.6028,0.94332 -2.6028,0.94332 v 0 c -0.48467,-1.0975 -0.57418,-2.2553 -0.73071,-3.38729 -0.29717,-3.31515 -0.17577,-6.63677 -0.0802,-9.95521 0.0638,-2.07712 0.17982,-4.15603 0.0469,-6.23297 0,0 2.65843,-0.89527 2.65843,-0.89527 z"
       inkscape:connector-curvature="0" />
    <path
       style="opacity:0.75;fill:#9780e8;fill-opacity:1;stroke:#999eff;stroke-width:0.12592837;stroke-miterlimit:4;stroke-dasharray:none;stroke-opacity:1"
       id="path2995"
       d="m 228.06672,276.33515 c -1.0954,0.67176 -2.10131,1.39574 -3.02916,2.16909 -0.71358,0.65409 -1.29467,1.37389 -1.67307,2.14204 -0.20817,0.42261 -0.23497,0.57452 -0.36563,1.005 -0.10858,0.45553 -0.19828,0.91783 -0.10217,1.37871 0.093,0.44565 0.33657,0.86734 0.58578,1.28202 0.50903,0.63893 1.21653,1.21275 2.17155,1.5791 0.16878,0.0647 0.34938,0.11493 0.52408,0.17248 0.93988,0.27539 1.94264,0.39814 2.95638,0.23179 0.23776,-0.039 0.46415,-0.10374 0.69622,-0.15556 0.2302,-0.0821 0.92611,-0.32142 0.69059,-0.24622 -0.44426,0.14184 -0.82524,0.42141 -1.31719,0.44629 -0.29467,0.0148 0.43644,-0.26461 0.63107,-0.41161 0.66014,-0.49855 1.09767,-1.07775 1.54655,-1.66346 0.52482,-0.74397 0.90875,-1.53003 1.09689,-2.34249 0.11487,-0.49575 0.10096,-0.64041 0.12853,-1.14081 -0.004,-1.10682 -0.38827,-2.07012 -1.0361,-3.07935 -0.45063,-0.5998 -1.08053,-1.15311 -1.98552,-1.47867 -0.13268,-0.0477 -0.27478,-0.083 -0.41217,-0.12458 -0.3855,-0.0763 -0.77135,-0.12178 -1.17245,-0.0789 -0.79363,0.085 -2.34157,0.77385 1.0864,-0.50403 -0.55934,0.25488 -0.98817,0.61308 -1.40089,0.96512 -0.28397,0.24088 -0.4958,0.50989 -0.6543,0.79542 0,0 -2.17989,0.67522 -2.17989,0.67522 v 0 c 0.14627,-0.30229 0.3516,-0.58715 0.63085,-0.84678 0.42808,-0.3566 0.84404,-0.72523 1.3717,-1.02215 0.96277,-0.36166 2.1754,-1.07853 3.45879,-0.98994 0.35954,0.0249 0.49834,0.0677 0.84413,0.14101 0.14096,0.048 0.28697,0.0899 0.42285,0.14393 0.91638,0.36406 1.56662,0.94163 2.03149,1.56735 0.65253,1.01992 1.05043,2.02774 1.06715,3.14386 -0.0207,0.51318 -0.004,0.6539 -0.11511,1.163 -0.18119,0.82604 -0.56073,1.62561 -1.08203,2.38468 -0.44345,0.59299 -0.87206,1.18394 -1.5053,1.70232 -1.0238,0.83811 -2.54749,1.29326 -3.99594,1.74689 -0.24249,0.0462 -0.48028,0.10487 -0.72744,0.13843 -1.05399,0.14281 -2.08739,-0.0112 -3.04778,-0.30547 -0.47686,-0.16844 -0.62779,-0.2039 -1.05812,-0.42957 -0.72602,-0.38071 -1.2787,-0.88548 -1.71317,-1.42149 -0.26074,-0.42863 -0.51493,-0.86382 -0.62101,-1.32399 -0.10942,-0.47443 -0.0266,-0.94849 0.0845,-1.41866 0.12446,-0.42813 0.1582,-0.60893 0.35843,-1.02955 0.37251,-0.78242 0.95685,-1.5162 1.65866,-2.19015 0.89491,-0.76876 1.86759,-1.48796 2.92546,-2.16089 0,0 2.22642,-0.60953 2.22642,-0.60953 z"
       inkscape:connector-curvature="0" />
    <path
       style="opacity:0.75;fill:#9780e8;fill-opacity:1;stroke:#999eff;stroke-width:0.12592837;stroke-miterlimit:4;stroke-dasharray:none;stroke-opacity:1"
       id="path2997"
       d="m 234.68719,281.81206 c -0.0323,0.81806 -0.0301,1.63649 -0.0272,2.45476 0.0246,0.47511 0.11705,0.94689 0.20506,1.41819 0,0 -2.10931,0.73017 -2.10931,0.73017 v 0 c -0.0744,-0.48063 -0.15584,-0.96119 -0.1868,-1.44417 0.004,-0.81213 0.005,-1.62446 -0.0272,-2.43638 0,0 2.14562,-0.72257 2.14562,-0.72257 z"
       inkscape:connector-curvature="0" />
    <path
       style="opacity:0.75;fill:#9780e8;fill-opacity:1;stroke:#999eff;stroke-width:0.15568814;stroke-miterlimit:4;stroke-dasharray:none;stroke-opacity:1"
       id="path3001"
       d="m 260.99775,263.80171 c -0.0914,1.61027 -0.0588,3.22251 -0.17984,4.83225 -0.0481,0.63973 -0.12408,1.27842 -0.18615,1.91764 -0.42569,3.70823 -0.69973,7.42254 -0.83516,11.14012 -0.0507,1.34502 -0.0967,2.70098 0.28343,4.02822 0,0 -2.60401,0.91474 -2.60401,0.91474 v 0 c -0.33144,-1.36615 -0.21372,-2.75329 -0.11535,-4.1297 0.25745,-3.72635 0.56253,-7.45101 0.92321,-11.17368 0.0463,-0.63156 0.11124,-1.26265 0.13905,-1.89469 0.0693,-1.57955 -0.0287,-3.16066 -0.0837,-4.73962 0,0 2.65841,-0.89528 2.65841,-0.89528 z"
       inkscape:connector-curvature="0" />
    <path
       style="opacity:0.75;fill:#9780e8;fill-opacity:1;stroke:#999eff;stroke-width:0.15568814;stroke-miterlimit:4;stroke-dasharray:none;stroke-opacity:1"
       id="path3009"
       d="m 257.26912,278.13958 c -0.34874,-0.49966 -0.94714,-0.88046 -1.63337,-1.17809 -1.08185,-0.38694 -1.77638,-0.22938 -2.85696,0.0675 -0.2565,0.0954 -1.03031,0.37625 -0.7695,0.28613 0.53052,-0.18332 0.99434,-0.48013 1.57878,-0.5658 0.38405,-0.0564 -0.63821,0.30489 -0.93946,0.4721 -0.97796,0.54278 -1.81363,1.17836 -2.65307,1.81054 -1.21247,0.95297 -2.12482,1.92195 -2.66442,3.11478 -0.20803,0.53384 -0.31142,1.08607 0.0644,1.59905 0.0733,0.0998 0.16888,0.19174 0.25331,0.2876 0.76172,0.72646 1.86252,1.25613 2.98214,1.72073 0.89494,0.37384 1.88275,0.6086 2.92255,0.72213 0.20991,0 0.41341,0.0126 0.61642,-0.0355 0.0848,-0.0203 0.31165,-0.11969 0.23303,-0.0906 -3.92217,1.45281 -2.70775,1.12511 -1.89388,0.62166 0.53693,-0.37897 0.93961,-0.82956 1.38656,-1.25443 0.41485,-0.38822 0.79996,-0.78999 1.17234,-1.19646 0.26439,-0.22083 0.45146,-0.46745 0.63218,-0.72014 0.0799,-0.11829 0.11862,-0.24453 0.15671,-0.37072 0,0 2.68517,-0.86701 2.68517,-0.86701 v 0 c -0.0299,0.13828 -0.06,0.2769 -0.12696,0.41012 -0.14622,0.26966 -0.34161,0.5332 -0.62041,0.75521 -0.40653,0.39753 -0.75352,0.82218 -1.18661,1.20828 -0.44692,0.42925 -0.86755,0.87148 -1.35144,1.28266 -1.06139,0.75288 -2.5376,1.5107 -4.13627,1.37948 -1.04803,-0.15056 -2.04079,-0.41423 -2.9432,-0.80184 -1.1471,-0.49296 -2.29093,-1.03529 -3.0776,-1.78887 -0.0938,-0.10416 -0.19983,-0.20398 -0.28148,-0.31254 -0.41229,-0.54829 -0.3595,-1.14098 -0.13547,-1.71908 0.54142,-1.23823 1.45257,-2.21845 2.69308,-3.21334 0.83293,-0.63663 1.66107,-1.2824 2.61923,-1.84045 1.50208,-0.87481 3.30794,-1.47989 5.07816,-2.08358 0.23748,-0.0566 0.46939,-0.12472 0.71241,-0.16992 0.82398,-0.15329 1.6212,-0.0519 2.34238,0.24 0.71052,0.33192 1.32914,0.73893 1.7369,1.25348 0,0 -2.59577,0.97687 -2.59577,0.97687 z"
       inkscape:connector-curvature="0" />
    <path
       style="opacity:0.75;fill:#9780e8;fill-opacity:1;stroke:#999eff;stroke-width:0.15568814;stroke-miterlimit:4;stroke-dasharray:none;stroke-opacity:1"
       id="path3015"
       d="m 269.64062,271.80803 c -0.16371,1.50624 -0.2046,3.01662 -0.24551,4.526 -0.0712,2.05177 0.01,4.10677 0.3334,6.14828 0.14279,0.81086 0.3407,1.61699 0.46654,2.42915 0.0312,0.18962 0.0155,0.10668 0.0443,0.24893 0,0 -2.65853,0.91475 -2.65853,0.91475 v 0 c -0.01,-0.14909 -0.005,-0.0631 -0.0193,-0.25784 -0.0866,-0.82249 -0.24917,-1.64013 -0.36885,-2.46061 -0.27239,-2.05634 -0.30916,-4.12291 -0.2883,-6.18616 0.0109,-1.48986 0.0252,-2.97973 0.0837,-4.46917 0,0 2.65268,-0.89333 2.65268,-0.89333 z"
       inkscape:connector-curvature="0" />
    <path
       style="opacity:0.75;fill:#9780e8;fill-opacity:1;stroke:#999eff;stroke-width:0.15568814;stroke-miterlimit:4;stroke-dasharray:none;stroke-opacity:1"
       id="path3021"
       d="m 267.69177,275.25062 c 0.5147,-0.40668 1.01775,-0.82228 1.63787,-1.1611 1.34715,-0.59414 2.71898,-1.32575 4.38319,-1.25714 0.66127,0.058 1.22091,0.27251 1.72482,0.54954 0.47109,0.24267 0.7423,0.6179 0.97031,0.97475 0.27084,0.39608 0.36284,0.82329 0.42578,1.25165 0.0395,0.3561 0.0692,0.71381 0.0342,1.07045 0,0 -2.66951,0.8781 -2.66951,0.8781 v 0 c 0.0667,-0.34463 0.0154,-0.69503 -10e-4,-1.04121 -0.0497,-0.40979 -0.12665,-0.81925 -0.38718,-1.19767 -0.20265,-0.33196 -0.45529,-0.66891 -0.89498,-0.89046 -0.47361,-0.24685 -0.99628,-0.42933 -1.61372,-0.44021 -1.41788,0.0401 -2.57419,0.72975 1.0906,-0.72776 0.099,-0.0394 -0.20519,0.0706 -0.30776,0.10584 -0.65944,0.29532 -1.13566,0.70971 -1.65264,1.10478 0,0 -2.74004,0.78043 -2.74004,0.78043 z"
       inkscape:connector-curvature="0" />
    <path
       style="opacity:0.75;fill:#9780e8;fill-opacity:1;stroke:#999eff;stroke-width:0.15568814;stroke-miterlimit:4;stroke-dasharray:none;stroke-opacity:1"
       id="path3023"
       d="m 283.06449,273.38234 c -0.64561,1.24143 -1.0156,2.52846 -1.33865,3.82038 -0.30168,1.59526 -0.61018,3.20618 -0.58707,4.81773 0.005,0.2414 0.0325,0.48233 0.0488,0.72349 0.0975,0.8266 0.18219,1.67732 0.98161,2.35172 0.48394,0.33338 1.10556,0.35198 1.75868,0.29053 0.83962,-0.13255 1.63846,-0.36782 2.40423,-0.62741 0.86554,-0.37637 2.87209,-0.85579 -1.27889,0.46105 -0.15671,0.0498 0.26597,-0.1481 0.39429,-0.2256 0.39731,-0.23996 0.41546,-0.26665 0.78545,-0.53705 0.83205,-0.62485 1.41768,-1.35622 1.89731,-2.11982 0.42371,-0.70645 0.51829,-1.46163 0.57459,-2.21262 0.0299,-0.61598 0.022,-1.23247 0.0127,-1.84863 0.0191,-0.39191 0.1,-0.78072 0.14375,-1.17159 0.0369,-0.28645 0.0193,-0.57446 0.0543,-0.86077 0.0738,-0.29831 0.12835,-0.59798 0.15923,-0.89952 0.0247,-0.26812 0.0408,-0.53502 -0.0193,-0.80114 -0.029,-0.11843 -0.0616,-0.25671 -0.0955,-0.36255 0,0 2.61579,-0.98458 2.61579,-0.98458 v 0 c 0.0846,0.13268 0.0654,0.28362 0.12031,0.42229 0.0734,0.27974 0.0815,0.55717 0.0482,0.84078 -0.0261,0.30484 -0.071,0.60871 -0.14928,0.90981 -0.0741,0.28095 -0.0186,0.57018 -0.0667,0.85373 -0.0426,0.38882 -0.11741,0.77528 -0.17076,1.16341 0,0.62175 0.005,1.24363 -0.029,1.86512 -0.0475,0.76887 -0.12383,1.54451 -0.53536,2.27282 -0.46114,0.78124 -1.03995,1.52904 -1.85488,2.178 -0.2554,0.20214 -0.81695,0.65381 -1.14608,0.79522 -1.22021,0.52425 -2.46563,1.03957 -3.76482,1.47888 -0.79267,0.24824 -1.60607,0.49567 -2.48235,0.57699 -0.74596,0.0231 -1.41758,-0.0635 -1.92302,-0.45756 -0.0826,-0.0749 -0.17581,-0.14528 -0.24786,-0.22485 -0.61062,-0.67424 -0.64444,-1.50139 -0.7355,-2.25966 -0.0132,-0.24694 -0.0395,-0.4937 -0.0394,-0.74078 10e-4,-1.62177 0.32987,-3.2403 0.59813,-4.84869 0.14077,-0.61327 0.27347,-1.23785 0.45299,-1.84728 0.21221,-0.72044 0.21546,-0.63146 0.45902,-1.27159 0.52984,-1.39258 -0.14981,0.34177 0.25323,-0.6815 0,0 2.70212,-0.83876 2.70212,-0.83876 z"
       inkscape:connector-curvature="0" />
    <path
       style="opacity:0.75;fill:#9780e8;fill-opacity:1;stroke:#999eff;stroke-width:0.15568814;stroke-miterlimit:4;stroke-dasharray:none;stroke-opacity:1"
       id="path3025"
       d="m 291.35842,280.67906 c -0.0314,0.71917 -0.0213,1.43877 -0.0169,2.15816 0.0234,0.4353 -0.0346,0.87401 0.0652,1.30596 0.0767,0.2473 0.11777,0.49763 0.13956,0.74935 0.0462,0.17161 0.0904,0.34572 0.16732,0.51266 0,0 -2.62408,0.95371 -2.62408,0.95371 v 0 c -0.0942,-0.18162 -0.13172,-0.3736 -0.20087,-0.56012 -0.0162,-0.24573 -0.0475,-0.49081 -0.12205,-0.73229 -0.10689,-0.4457 -0.0409,-0.89582 -0.0492,-1.34551 0.005,-0.71553 0.0146,-1.43131 -0.0171,-2.14664 0,0 2.65845,-0.89528 2.65845,-0.89528 z"
       inkscape:connector-curvature="0" />
    <path
       style="opacity:0.75;fill:#9780e8;fill-opacity:1;stroke:#999eff;stroke-width:0.15568814;stroke-miterlimit:4;stroke-dasharray:none;stroke-opacity:1"
       id="path3027"
       d="m 321.41582,266.00752 c -0.55952,1.97209 -1.08793,3.94873 -1.45484,5.9412 -0.10725,0.58221 -0.19174,1.16613 -0.28762,1.7492 -0.43933,2.99761 -0.58435,6.00918 -0.62837,9.01925 -0.005,1.02904 0.002,2.06384 0.18597,3.08732 0,0 -2.63797,0.90719 -2.63797,0.90719 v 0 c -0.0862,-1.05126 -0.1156,-2.10555 -0.0461,-3.15763 0.14989,-3.02786 0.3481,-6.05595 0.74533,-9.07467 0.23999,-1.59566 0.25261,-1.80676 0.55922,-3.36355 0.23627,-1.19954 0.53751,-2.39251 0.79268,-3.59013 0.0473,-0.2216 0.0836,-0.44415 0.12535,-0.66623 0,0 2.64642,-0.85195 2.64642,-0.85195 z"
       inkscape:connector-curvature="0" />
    <path
       style="opacity:0.75;fill:#9780e8;fill-opacity:1;stroke:#999eff;stroke-width:0.15568814;stroke-miterlimit:4;stroke-dasharray:none;stroke-opacity:1"
       id="path3037"
       d="m 320.02037,282.34923 c 0.10048,0.0285 0.20247,0.055 0.30148,0.0857 0.47563,0.14753 0.3333,0.12808 0.86882,0.26545 0.6011,0.15424 1.20946,0.24031 1.84071,0.31994 1.34371,0.12989 2.7055,0.18155 4.06243,0.15261 0.53357,-0.0185 1.05581,-0.10123 1.5485,-0.23762 0.1356,-0.0376 0.52233,-0.17819 0.39504,-0.12962 -2.43593,0.93062 -2.7587,1.12463 -1.77973,0.60306 0.82885,-0.59712 1.22812,-1.38473 1.53925,-2.1537 0.2466,-0.67686 0.30713,-1.37226 0.33394,-2.06546 -0.0408,-0.55253 -0.18922,-1.11172 -0.59693,-1.60253 -0.0865,-0.10403 -0.1967,-0.19873 -0.29502,-0.29808 -0.97071,-0.75549 -2.34738,-1.18508 -3.70636,-1.55691 -1.26204,-0.29926 -2.41318,-0.55152 -3.74911,-0.34182 -0.11849,0.0368 -0.24065,0.0686 -0.3554,0.11032 -0.11004,0.0399 -0.42767,0.17322 -0.31765,0.13339 0.74955,-0.271 1.47543,-0.57094 2.23664,-0.8273 0.11728,-0.0394 -0.19961,0.11353 -0.29505,0.17346 -0.27048,0.16984 -0.35168,0.2381 -0.60133,0.42345 -0.59075,0.41946 -1.11178,0.87799 -1.58807,1.35591 -0.21335,0.22614 -0.45007,0.44516 -0.58801,0.69718 0,0 -2.69949,0.85118 -2.69949,0.85118 v 0 c 0.0846,-0.28612 0.33576,-0.51873 0.56714,-0.76246 0.4943,-0.47661 0.97756,-0.96198 1.58652,-1.38064 0.17997,-0.14337 0.63938,-0.53327 0.86509,-0.6294 1.05898,-0.45107 2.26522,-1.06092 3.55185,-1.32337 1.3144,-0.11465 2.5761,0.14182 3.79225,0.45887 1.40808,0.39578 2.84862,0.83806 3.83966,1.6373 0.10556,0.10766 0.22284,0.2106 0.31675,0.32283 0.43151,0.51556 0.60852,1.09533 0.66969,1.67714 -0.0247,0.70844 -0.083,1.41841 -0.32446,2.11165 -0.29685,0.79385 -0.69992,1.59108 -1.44861,2.25278 -1.12879,0.73249 -0.364,0.27341 -3.27005,1.34754 -0.59693,0.22064 -1.33027,0.2621 -1.99451,0.29474 -1.3689,0.01 -2.74076,-0.0426 -4.09288,-0.18983 -1.0817,-0.14702 -2.11504,-0.3687 -3.10841,-0.69063 0,0 2.49531,-1.08517 2.49531,-1.08517 z"
       inkscape:connector-curvature="0" />
    <path
       style="opacity:0.75;fill:#9780e8;fill-opacity:1;stroke:#999eff;stroke-width:0.15568814;stroke-miterlimit:4;stroke-dasharray:none;stroke-opacity:1"
       id="path3047"
       d="m 207.4751,274.6839 c -0.0489,1.18059 -0.0478,2.36185 -0.0594,3.54279 -0.0213,1.7404 -0.008,3.48087 0.005,5.22129 -0.006,1.054 0.005,2.10648 0.12332,3.15776 0.0333,0.22854 0.0855,0.45204 0.18863,0.67093 0,0 -2.6147,0.94501 -2.6147,0.94501 v 0 c -0.10398,-0.23631 -0.15975,-0.47556 -0.18874,-0.7215 -0.0838,-1.0641 -0.0852,-2.12794 -0.0589,-3.19333 0.0138,-1.74161 0.0266,-3.48326 0.005,-5.22489 -0.0109,-1.1676 -0.01,-2.33553 -0.0594,-3.50278 0,0 2.65842,-0.89528 2.65842,-0.89528 z"
       inkscape:connector-curvature="0" />
    <path
       style="opacity:0.75;fill:#9780e8;fill-opacity:1;stroke:#999eff;stroke-width:0.15568814;stroke-miterlimit:4;stroke-dasharray:none;stroke-opacity:1"
       id="path3051"
       d="m 205.92547,277.76058 c 0.50362,-0.43924 1.03423,-0.86309 1.62195,-1.25417 2.02496,-1.06265 3.09219,-1.3341 5.2744,-1.43009 0.80087,-0.0545 1.56295,-0.0218 2.29646,0.20319 0.71599,0.30752 0.96955,0.85669 1.27955,1.35222 0.43263,0.63033 0.72126,1.29795 0.9882,1.96558 0.26492,0.65364 0.29064,1.3295 0.31305,2.00138 0.0164,0.68493 0.0237,1.37 0.0227,2.05503 0,0.47718 0.005,0.95437 0.005,1.43154 -0.0109,0.36902 0.0667,0.73561 0.19082,1.0944 0.11318,0.28795 0.17046,0.5823 0.20066,0.87848 0.0155,0.1623 0.0127,0.32495 0.0233,0.48732 0,0 -2.67073,0.90128 -2.67073,0.90128 v 0 c 0.007,-0.16055 0,-0.32115 -0.007,-0.48165 -0.0213,-0.28667 -0.0646,-0.57248 -0.17101,-0.8516 -0.12928,-0.37248 -0.22701,-0.75292 -0.21424,-1.1365 0,-0.47889 0.006,-0.95778 0.0109,-1.43666 0.005,-0.68549 0.0184,-1.37107 0,-2.05654 -0.0266,-0.65617 -0.057,-1.31687 -0.29349,-1.95787 -0.25313,-0.66042 -0.53536,-1.32009 -0.969,-1.94017 -0.28861,-0.44436 -0.50214,-0.96352 -1.18111,-1.21644 -0.70676,-0.18445 -1.44385,-0.18047 -2.19367,-0.13535 -0.49703,0.0285 -0.99441,0.0558 -1.47858,0.14133 -0.15027,0.0266 -0.5726,0.15358 -0.44334,0.0963 1.10813,-0.49053 3.05595,-1.16742 1.75859,-0.71293 -0.59474,0.37515 -1.13858,0.78019 -1.62046,1.22138 0,0 -2.74006,0.78043 -2.74006,0.78043 z"
       inkscape:connector-curvature="0" />
    <path
       style="opacity:0.75;fill:#9780e8;fill-opacity:1;stroke:#999eff;stroke-width:0.24055789;stroke-miterlimit:4;stroke-dasharray:none;stroke-opacity:1"
       id="path2642-4"
       d="m 299.12659,276.38237 c 1.38937,0.007 2.77633,0.0201 4.16418,0.0621 1.58924,0.067 3.1724,0.17178 4.75678,0.27222 0.89405,0.0934 1.83164,0.003 2.70446,0.1688 0.93575,0.29946 -0.30308,0.87966 -0.68394,1.10755 -1.64944,1.04935 -3.5167,1.93506 -5.36063,2.83896 -1.60643,0.82836 -3.23974,1.6375 -4.79973,2.50112 -0.42187,0.27644 -1.11255,0.54162 -1.22349,0.95294 0.0109,0.0217 0.0109,0.0474 0.0351,0.0647 0.13931,0.10291 1.39266,0.14108 1.56896,0.15267 1.94787,0.081 3.89829,0.14251 5.8483,0.20081 1.42246,0.0404 2.84605,0.0604 4.26984,0.0643 0.34344,1.5e-4 0.68681,1.5e-4 1.03031,-1.4e-4 0,0 -2.68296,1.23296 -2.68296,1.23296 v 0 c -0.33882,-0.003 -0.67767,-0.003 -1.0164,-0.008 -1.39856,-0.025 -2.79637,-0.0638 -4.19378,-0.10752 -1.97215,-0.0638 -3.94496,-0.11675 -5.9171,-0.17994 -0.66927,-0.0326 -1.62625,0.0168 -1.91521,-0.46163 -0.01,-0.0519 -0.0289,-0.10402 -0.0208,-0.1559 0.066,-0.41659 0.78883,-0.71023 1.20041,-0.97806 1.5936,-0.87704 3.27387,-1.68836 4.90164,-2.53954 1.80672,-0.89086 3.66307,-1.74545 5.25994,-2.79209 0.33183,-0.19802 0.65831,-0.42615 1.0151,-0.60765 0.0299,-0.0151 0.0742,-0.0155 0.10205,-0.0317 0.0444,-0.026 -0.24841,-0.14189 -0.1524,-0.0611 -0.85901,-0.1201 -1.75964,-0.0698 -2.62622,-0.16528 -1.56957,-0.11241 -3.14008,-0.21736 -4.71787,-0.27397 -1.41131,-0.0347 -2.82242,-0.0443 -4.23459,-0.0189 0,0 2.68854,-1.23631 2.68854,-1.23631 z"
       inkscape:connector-curvature="0" />
    <path
       style="opacity:0.75;fill:#9780e8;fill-opacity:1;stroke:#999eff;stroke-width:0.24055789;stroke-miterlimit:4;stroke-dasharray:none;stroke-opacity:1"
       id="path2644-3"
       d="m 305.76715,272.1084 c 0.12031,0.54917 0.50027,1.02833 0.93016,1.50165 0.20029,0.13129 0.62639,0.60495 0.97173,0.57103 0.0536,-0.006 0.0897,-0.0377 0.13434,-0.0566 1.0051,-0.45124 0,0.006 -2.56559,0.90565 -0.0629,0.0221 0.11632,-0.0527 0.17371,-0.08 0.19173,-0.0909 0.35224,-0.19574 0.52263,-0.30193 0.35984,-0.24441 0.77278,-0.45212 1.16065,-0.67747 0.28804,-0.16709 0.56316,-0.34217 0.85295,-0.50804 0.259,-0.15952 0.4977,-0.33176 0.76172,-0.48781 0.19711,-0.10669 0.0968,-0.0568 0.30024,-0.15041 0,0 3.09511,-0.78815 3.09511,-0.78815 v 0 c -0.18924,0.10836 -0.0875,0.0614 -0.30504,0.14172 -0.27642,0.14804 -0.51385,0.31328 -0.7737,0.47155 -0.25254,0.19481 -0.59175,0.33507 -0.84807,0.52871 -0.40429,0.21057 -0.79596,0.43297 -1.16973,0.66531 -0.11426,0.0714 -0.23524,0.13898 -0.34267,0.21449 -0.0545,0.038 -0.0927,0.0853 -0.15258,0.12039 -0.0505,0.0299 -0.11475,0.0498 -0.17451,0.0719 -3.04392,1.13186 -1.86697,0.99257 -3.21382,1.13418 -0.61155,-0.0864 -0.93649,-0.42919 -1.28892,-0.73128 -0.43125,-0.49319 -0.81831,-0.99088 -0.99892,-1.54827 0,0 2.93031,-0.99668 2.93031,-0.99668 z"
       inkscape:connector-curvature="0" />
    <path
       style="opacity:0.75;fill:#9780e8;fill-opacity:1;stroke:#999eff;stroke-width:0.12459382;stroke-miterlimit:4;stroke-dasharray:none;stroke-opacity:1"
       id="path2499-1"
       d="m 342.78913,275.15563 c -0.87746,0.061 -1.67389,0.2885 -2.48606,0.47446 -0.14794,0.0394 -0.29669,0.078 -0.44378,0.11857 -0.14103,0.0389 -0.28176,0.0782 -0.42047,0.11969 -0.12768,0.0382 -0.50296,0.16124 -0.37859,0.11954 0.60454,-0.20268 1.20735,-0.40722 1.81908,-0.60251 0.19951,-0.0638 -0.37251,0.15217 -0.55033,0.23455 -0.50281,0.23094 -0.90407,0.51574 -1.29381,0.80782 -0.37022,0.30746 -0.71422,0.62537 -1.03576,0.95059 -0.28895,0.27599 -0.45724,0.58393 -0.64051,0.88635 -0.19762,0.29169 -0.25824,0.60171 -0.29393,0.91168 -0.0306,0.33356 -0.0297,0.66771 -0.0264,1.0016 0.002,0.28817 0.005,0.57635 0.005,0.86452 -0.002,0.29408 -10e-4,0.58817 -0.002,0.88225 -0.0247,0.29183 0.0328,0.57829 0.14075,0.86266 0.0789,0.25208 0.16444,0.493 0.40968,0.70925 0.20881,0.19494 0.47741,0.36531 0.69255,0.55715 0.27232,0.20909 0.6501,0.35327 1.00144,0.51369 0.45158,0.18578 0.88551,0.38867 1.36022,0.55438 0.42955,0.18826 0.86047,0.37483 1.3292,0.52989 0.35081,0.11228 0.73806,0.1459 1.13177,0.15931 0.36398,0.0148 0.71538,-0.0747 1.03786,-0.165 0.87507,-0.20406 0.32659,-0.0809 -1.86391,0.62683 -0.0597,0.0193 0.11511,-0.0425 0.17109,-0.0652 0.16984,-0.0688 0.33389,-0.14271 0.50216,-0.21273 0.34494,-0.13171 0.679,-0.27306 1.00362,-0.421 0.30897,-0.14519 0.61454,-0.29318 0.93108,-0.43284 0.31955,-0.11731 0.59995,-0.26111 0.8719,-0.41226 0.25311,-0.14842 0.48557,-0.30707 0.69325,-0.47732 0.22534,-0.16359 0.41764,-0.33534 0.56883,-0.5251 0.15613,-0.21703 0.33701,-0.42738 0.52101,-0.63677 0.19997,-0.22761 0.40079,-0.45423 0.58313,-0.68687 0.13265,-0.19962 0.2307,-0.4058 0.3622,-0.60586 0.10942,-0.19344 0.21796,-0.38802 0.2992,-0.58621 0.11789,-0.2394 0.18834,-0.4835 0.22954,-0.7309 0.0311,-0.21522 0.0335,-0.43128 0.0351,-0.64711 0.002,-0.19691 0.0121,-0.39263 -0.0405,-0.58757 -0.0306,-0.2523 -0.15852,-0.49037 -0.28319,-0.73079 -0.11221,-0.21518 -0.23348,-0.42654 -0.3018,-0.6484 -0.002,-0.2402 -0.16274,-0.42581 -0.38459,-0.61938 -0.18837,-0.18791 -0.47101,-0.33031 -0.70386,-0.49834 -0.27811,-0.17555 -0.60308,-0.32104 -0.91837,-0.47408 -0.33618,-0.18063 -0.70806,-0.33583 -1.06016,-0.50554 -0.29669,-0.11172 -0.58959,-0.2262 -0.8835,-0.34038 -0.2365,-0.0945 -0.45721,-0.19916 -0.73387,-0.25054 -0.36857,-0.0442 -0.74614,-0.0285 -1.11643,-0.061 -0.3851,-0.0284 -0.77601,-0.0846 -1.16432,-0.0538 -0.37358,0.0348 -0.70985,0.13814 -1.07365,0.19634 0.43175,-0.17722 -0.98274,0.31308 -0.50026,0.1521 3.59089,-1.19789 2.44216,-0.88159 1.76364,-0.55188 -0.24615,0.13716 -0.53158,0.24744 -0.77454,0.38611 -0.28964,0.14122 -0.54184,0.29817 -0.76172,0.47618 -0.16709,0.13815 -0.0822,0.0698 -0.25477,0.20504 0,0 -2.3319,0.5878 -2.3319,0.5878 v 0 c 0.15839,-0.14284 0.0717,-0.077 0.2576,-0.19839 0.18488,-0.19667 0.42812,-0.36661 0.72774,-0.50929 0.46293,-0.24058 -0.25699,0.13884 0.22657,-0.13507 0.16798,-0.0951 0.38944,-0.15343 0.55059,-0.25422 0.85997,-0.49145 1.99224,-0.80697 3.11107,-1.0589 0.36499,-0.0713 0.72206,-0.16692 1.11507,-0.16896 0.39822,0.006 0.79028,0.0453 1.18458,0.0755 0.38998,0.0172 0.78982,0.0126 1.16379,0.0888 0.27649,0.0733 0.5161,0.18054 0.76656,0.27933 0.29113,0.12123 0.5986,0.22851 0.88328,0.35482 0.35454,0.168 0.72046,0.32785 1.06,0.50625 0.32992,0.15773 0.6654,0.31096 0.95123,0.49633 0.24029,0.17011 0.52324,0.31927 0.71517,0.51121 0.23548,0.20801 0.43403,0.41567 0.43778,0.67287 0.0572,0.21792 0.17599,0.4234 0.28137,0.63433 0.12245,0.24581 0.27224,0.48689 0.30479,0.74427 0.0622,0.20268 0.0725,0.40387 0.0601,0.60981 -0.002,0.2201 -0.004,0.44043 -0.031,0.66009 -0.0365,0.25117 -0.0858,0.50275 -0.2102,0.74525 -0.0687,0.20657 -0.18825,0.40398 -0.28421,0.6064 -0.13048,0.20281 -0.26052,0.40459 -0.35931,0.61358 -0.17251,0.23689 -0.3726,0.46537 -0.58345,0.6914 -0.16128,0.2148 -0.37613,0.41546 -0.51931,0.63489 -0.15504,0.19593 -0.29624,0.38709 -0.53909,0.55393 -0.23584,0.16191 -0.42218,0.34836 -0.68633,0.49782 -0.26644,0.15421 -0.52573,0.32172 -0.85742,0.42924 -0.31929,0.13842 -0.63611,0.27993 -0.93442,0.43158 -0.32922,0.1458 -0.64943,0.29814 -0.99652,0.43036 -0.17502,0.0631 -0.34465,0.13227 -0.50745,0.20565 -0.055,0.0248 -0.0995,0.0579 -0.15954,0.0783 -0.77888,0.26571 -1.56629,0.52302 -2.35442,0.77944 -0.0509,0.0165 -0.10774,0.026 -0.16168,0.0392 -0.36237,0.0763 -0.71964,0.14334 -1.11219,0.10724 -0.41825,-0.0288 -0.82173,-0.0889 -1.18487,-0.21784 -0.4604,-0.16363 -0.89453,-0.34857 -1.32914,-0.53397 -0.4733,-0.17696 -0.92319,-0.37462 -1.37926,-0.566 -0.37393,-0.16921 -0.76925,-0.32701 -1.05275,-0.55162 -0.21849,-0.1909 -0.48227,-0.36348 -0.69007,-0.55889 -0.25735,-0.23248 -0.37898,-0.48495 -0.44844,-0.75707 -0.11172,-0.29379 -0.19862,-0.58893 -0.16444,-0.89131 -0.002,-0.29351 -10e-6,-0.58702 -0.002,-0.88053 0.002,-0.28888 0,-0.57777 0.001,-0.86666 0.002,-0.33664 -0.005,-0.67348 0.0185,-1.00996 0.0337,-0.32038 0.0716,-0.64373 0.25942,-0.94881 0.20163,-0.30508 0.34662,-0.62426 0.62659,-0.91055 0.33133,-0.32855 0.67367,-0.65242 1.0338,-0.97085 0.39031,-0.29658 0.76343,-0.59997 1.2689,-0.83632 1.24246,-0.63188 2.78118,-1.03705 4.27851,-1.42934 0.83536,-0.19178 1.66471,-0.40633 2.56883,-0.46203 0,0 -2.04586,0.8799 -2.04586,0.8799 z"
       inkscape:connector-curvature="0" />
    <path
       style="opacity:0.75;fill:#9780e8;fill-opacity:1;stroke:#999eff;stroke-width:0.41101617;stroke-miterlimit:4;stroke-dasharray:none;stroke-opacity:1"
       id="path3448"
       d="m 145.72063,274.22124 c 0.43487,3.84232 0.47548,7.71448 0.57084,11.57436 0.0331,2.62953 0.0625,5.25933 0.0261,7.88891 0,0 -2.79421,1.33075 -2.79421,1.33075 v 0 c 0.13994,-2.64546 0.15931,-5.29475 0.12482,-7.94322 -0.10508,-3.80467 -0.15251,-7.64107 -0.81743,-11.4033 0,0 2.8898,-1.4475 2.8898,-1.4475 z"
       inkscape:connector-curvature="0" />
    <path
       style="opacity:0.75;fill:#9780e8;fill-opacity:1;stroke:#999eff;stroke-width:0.41101617;stroke-miterlimit:4;stroke-dasharray:none;stroke-opacity:1"
       id="path3452"
       d="m 144.42925,278.02809 c 0.34772,-0.4113 0.63346,-0.88334 1.0407,-1.24871 0.16078,-0.14426 0.33017,-0.28425 0.52143,-0.39047 3.26929,-1.81565 2.23549,-1.4823 4.15547,-1.994 1.75762,-0.34823 3.43114,0.24828 5.01995,0.90085 0.73736,0.36035 1.51577,0.78367 1.97308,1.46543 0.22561,0.33637 0.248,0.50425 0.36722,0.88241 0.28838,1.29639 -0.17962,2.56207 -0.68086,3.756 -0.48014,1.22683 -1.29571,2.22939 -2.30951,3.10194 -1.29758,0.923 -2.68468,1.82471 -4.24461,2.2825 -0.54989,0.16136 -1.1171,0.23067 -1.68606,0.29749 -1.01939,0.10641 -2.04229,0.0812 -3.0379,-0.15411 -0.81105,-0.21751 -1.49839,-0.67316 -2.10856,-1.208 -0.29535,-0.22293 -0.53313,-0.48264 -0.70304,-0.79957 0,0 2.87953,-1.53531 2.87953,-1.53531 v 0 c 0.12888,0.29016 0.37221,0.4999 0.61811,0.707 0.57939,0.49886 1.23485,0.90417 2.00779,1.07868 0.9742,0.19219 1.9688,0.19711 2.95492,0.0717 0.55732,-0.0811 1.10551,-0.16703 1.63547,-0.35799 0.17307,-0.0624 0.66392,-0.30773 0.50684,-0.21514 -5.80589,3.42288 -2.35044,1.30334 -1.83697,0.98689 1.03897,-0.82052 1.8981,-1.77099 2.38985,-2.97993 0.49819,-1.11941 0.98587,-2.32749 0.74424,-3.55808 -0.0959,-0.33018 -0.11366,-0.48745 -0.30567,-0.78016 -0.42053,-0.64113 -1.1579,-1.02673 -1.846,-1.3594 -1.55823,-0.63084 -3.19182,-1.1544 -4.89378,-0.71942 -1.47637,0.48154 -1.01912,0.38591 1.42022,-0.99368 0.18347,-0.10375 -0.37598,0.19714 -0.54116,0.3253 -0.2462,0.19101 -0.56078,0.5967 -0.74815,0.83653 -0.0938,0.12011 -0.183,0.24326 -0.27451,0.36489 0,0 -3.01804,1.23624 -3.01804,1.23624 z"
       inkscape:connector-curvature="0" />
    <path
       style="opacity:0.75;fill:#9780e8;fill-opacity:1;stroke:#999eff;stroke-width:0.58948845;stroke-miterlimit:4;stroke-dasharray:none;stroke-opacity:1"
       id="path3456"
       d="m 180.69831,272.06776 c 0.093,1.26466 0.47119,2.48766 0.91374,3.66155 0.50451,1.18405 0.92265,2.4042 1.43679,3.58403 0.39799,0.73489 0.69381,1.51936 1.01258,2.29275 0.11039,0.42925 0.40517,0.74826 0.61612,1.1214 0.18713,0.4232 0.28569,0.87675 0.49773,1.28842 0.28877,0.51956 0.46811,1.09271 0.77323,1.60266 0.12055,0.12849 0.38156,0.85375 0.53698,0.88548 0.0297,0.006 0.0473,-0.0396 0.0709,-0.0593 -4.28261,2.41562 -2.84005,2.17477 -2.33476,0.86921 0.2612,-0.67487 0.45014,-1.38438 0.66604,-2.07566 0.49985,-1.60707 1.27732,-3.08735 2.11437,-4.52473 0.70979,-1.21739 1.54135,-2.3502 2.24696,-3.57 0.34664,-0.56296 0.58032,-1.18675 0.90367,-1.76261 0.23808,-0.43469 0.4855,-0.85953 0.77794,-1.2568 0.25457,-0.327 0.47264,-0.68182 0.70619,-1.02484 0,0 2.91675,-1.32962 2.91675,-1.32962 v 0 c -0.22374,0.35783 -0.47008,0.69878 -0.70209,1.05155 -0.30382,0.37751 -0.56504,0.77727 -0.79289,1.20888 -0.32439,0.5899 -0.61481,1.19291 -0.9389,1.784 -0.70383,1.23686 -1.55144,2.37281 -2.2832,3.59118 -0.84317,1.41089 -1.62088,2.87192 -2.13924,4.45096 -0.21055,0.69018 -0.4008,1.38671 -0.61583,2.07532 -0.0468,0.15011 -0.0969,0.29915 -0.14574,0.44852 -0.0316,0.0965 -0.0132,0.23475 -0.0959,0.28886 -0.93839,0.6143 -1.93884,1.11846 -2.90826,1.6777 -0.36915,-0.24605 -0.50461,-0.68277 -0.72912,-1.06011 -0.3031,-0.51727 -0.48543,-1.09422 -0.77931,-1.61692 -0.22118,-0.40516 -0.33824,-0.84497 -0.50099,-1.27651 -0.21772,-0.38628 -0.52924,-0.7155 -0.63045,-1.16567 -0.30038,-0.77931 -0.57754,-1.56924 -0.97247,-2.30458 -0.51326,-1.18654 -0.92695,-2.41492 -1.43129,-3.60538 -0.46106,-1.20731 -0.82377,-2.45746 -1.02012,-3.74293 0,0 2.83058,-1.50681 2.83058,-1.50681 z"
       inkscape:connector-curvature="0" />
    <path
       style="opacity:0.75;fill:#9780e8;fill-opacity:1;stroke:#999eff;stroke-width:0.68502706;stroke-miterlimit:4;stroke-dasharray:none;stroke-opacity:1"
       id="path3462"
       d="m 121.028,258.84264 c 0.0556,0.20472 0.10447,0.41062 0.16688,0.61419 0.39943,1.30408 0.29157,0.74333 0.70235,2.2442 0.50562,1.84727 0.89962,3.71437 1.31219,5.57487 0.89239,4.16923 1.87615,8.34021 3.31742,12.42028 0.24745,0.70054 0.52888,1.39361 0.79333,2.09042 0.81637,2.21964 1.96827,4.34788 3.00113,6.50809 0.0281,0.0442 0.19421,0.425 0.39407,0.45459 0.0451,0.007 0.14214,-0.0886 0.10133,-0.0721 -1.21228,0.48867 -2.39267,1.02512 -3.62008,1.4906 -0.0891,0.0338 0.13099,-0.11703 0.17728,-0.18495 0.0826,-0.12108 0.13786,-0.25214 0.2068,-0.37823 1.44973,-2.8461 3.08673,-5.63025 4.70691,-8.42 3.52097,-5.96602 6.4556,-12.11592 9.25809,-18.30024 1.03422,-2.32642 2.10714,-4.64418 2.97753,-7.01137 0,0 3.79061,-1.38816 3.79061,-1.38816 v 0 c -0.97967,2.40679 -2.1574,4.76113 -3.26408,7.13388 -2.92037,6.1596 -5.87224,12.31122 -9.26841,18.3263 -1.50689,2.73773 -3.01814,5.47344 -4.33148,8.27065 -0.058,0.1285 -0.12171,0.25558 -0.17388,0.38558 -0.0383,0.0954 0.0109,0.23584 -0.0971,0.28999 -0.18286,0.0913 -3.39966,2.70343 -4.3583,1.36728 -0.0861,-0.11996 -0.13707,-0.25307 -0.20559,-0.37959 -0.93068,-2.20696 -1.99527,-4.38129 -2.76883,-6.62745 -1.70855,-4.78468 -3.051,-9.64206 -4.1391,-14.53387 -0.67325,-2.79432 -1.30155,-5.60603 -2.46156,-8.31031 0,0 3.78245,-1.56454 3.78245,-1.56454 z"
       inkscape:connector-curvature="0" />
  </g>
</svg>
