<?xml version="1.0" encoding="UTF-8" standalone="no"?>
<!-- Created with Inkscape (http://www.inkscape.org/) -->

<svg
   xmlns:dc="http://purl.org/dc/elements/1.1/"
   xmlns:cc="http://creativecommons.org/ns#"
   xmlns:rdf="http://www.w3.org/1999/02/22-rdf-syntax-ns#"
   xmlns:svg="http://www.w3.org/2000/svg"
   xmlns="http://www.w3.org/2000/svg"
   xmlns:sodipodi="http://sodipodi.sourceforge.net/DTD/sodipodi-0.dtd"
   xmlns:inkscape="http://www.inkscape.org/namespaces/inkscape"
   width="503mm"
   height="45mm"
   viewBox="0 0 503 45"
   version="1.1"
   id="svg8"
   inkscape:version="0.92.4 (5da689c313, 2019-01-14)"
   sodipodi:docname="banner2.svg">
  <defs
     id="defs2">
    <inkscape:path-effect
       effect="spiro"
       id="path-effect2531"
       is_visible="true" />
  </defs>
  <sodipodi:namedview
     id="base"
     pagecolor="#ffffff"
     bordercolor="#666666"
     borderopacity="1.0"
     inkscape:pageopacity="0.0"
     inkscape:pageshadow="2"
     inkscape:zoom="0.49497475"
     inkscape:cx="1420.3218"
     inkscape:cy="453.79697"
     inkscape:document-units="mm"
     inkscape:current-layer="layer1"
     showgrid="false"
     inkscape:snap-bbox="true"
     inkscape:snap-global="true"
     inkscape:window-width="1920"
     inkscape:window-height="1017"
     inkscape:window-x="-8"
     inkscape:window-y="-8"
     inkscape:window-maximized="1" />
  <metadata
     id="metadata5">
    <rdf:RDF>
      <cc:Work
         rdf:about="">
        <dc:format>image/svg+xml</dc:format>
        <dc:type
           rdf:resource="http://purl.org/dc/dcmitype/StillImage" />
        <dc:title></dc:title>
      </cc:Work>
    </rdf:RDF>
  </metadata>
  <g
     inkscape:label="Layer 1"
     inkscape:groupmode="layer"
     id="layer1"
     transform="translate(0,-252)">
    <path
       style="opacity:0.75;fill:#9780e8;fill-opacity:1;stroke:#9780e8;stroke-width:0.36702654;stroke-miterlimit:4;stroke-dasharray:none;stroke-opacity:1"
       id="path2499"
       d="m -297.90904,80.209817 c -2.58513,0.17939 -4.9316,0.84975 -7.32442,1.39746 -0.43579,0.11643 -0.87403,0.22985 -1.30741,0.34928 -0.4154,0.11448 -0.83003,0.23008 -1.23873,0.35237 -0.37618,0.11256 -1.4818,0.4749 -1.11534,0.35208 1.78098,-0.59699 3.5569,-1.19946 5.35922,-1.77463 0.58777,-0.18757 -1.09742,0.44814 -1.62136,0.69084 -1.48133,0.68019 -2.66357,1.51907 -3.81174,2.37935 -1.0907,0.90564 -2.1042,1.84203 -3.05157,2.79989 -0.85124,0.81291 -1.3471,1.71991 -1.88695,2.61066 -0.58231,0.85916 -0.76089,1.77231 -0.86603,2.68527 -0.0902,0.98243 -0.0879,1.96665 -0.0777,2.95013 0.006,0.84876 0.0116,1.69754 0.019,2.54632 -0.006,0.8662 -0.003,1.73241 -0.006,2.598603 -0.0724,0.85958 0.0968,1.70332 0.41463,2.54091 0.23274,0.74248 0.48457,1.4521 1.20698,2.08899 0.61524,0.57418 1.40663,1.07599 2.04043,1.64108 0.80236,0.61583 1.91525,1.04051 2.95039,1.513 1.33049,0.54718 2.60883,1.14481 4.00739,1.63289 1.26551,0.55447 2.53519,1.10402 3.91603,1.56072 1.03365,0.33066 2.17453,0.42976 3.33445,0.46923 1.07234,0.0436 2.10758,-0.21993 3.05767,-0.48595 2.57812,-0.60111 0.96221,-0.2386 -5.49139,1.84625 -0.17563,0.0567 0.33922,-0.12525 0.50409,-0.1919 0.50041,-0.20227 0.98371,-0.42036 1.47949,-0.62659 1.01616,-0.388 2.00039,-0.8043 2.95678,-1.23999 0.91032,-0.42764 1.81051,-0.86351 2.74315,-1.27492 0.94141,-0.34537 1.76753,-0.76908 2.56874,-1.21426 0.7457,-0.43717 1.43053,-0.90446 2.0424,-1.40592 0.66388,-0.48184 1.23044,-0.98769 1.67587,-1.54665 0.45999,-0.63923 0.99291,-1.25876 1.53498,-1.87554 0.5892,-0.67039 1.18076,-1.33792 1.71797,-2.02308 0.39082,-0.58798 0.67973,-1.19526 1.06708,-1.784553 0.3225,-0.56977 0.64216,-1.14282 0.88157,-1.72659 0.34742,-0.70515 0.55483,-1.42413 0.67629,-2.15278 0.0911,-0.63391 0.0988,-1.27035 0.10345,-1.90602 0.006,-0.57995 0.0351,-1.15641 -0.11947,-1.73059 -0.0901,-0.74317 -0.467,-1.44439 -0.83433,-2.15255 -0.3304,-0.63377 -0.68781,-1.25629 -0.88909,-1.90981 -0.002,-0.70744 -0.47948,-1.25414 -1.13313,-1.82426 -0.55492,-0.55352 -1.38764,-0.97292 -2.07371,-1.46787 -0.81935,-0.51701 -1.77671,-0.94559 -2.70565,-1.39632 -0.99037,-0.532 -2.08604,-0.98921 -3.12331,-1.48907 -0.87414,-0.32921 -1.73709,-0.66622 -2.60296,-1.00249 -0.69679,-0.27836 -1.34704,-0.58666 -2.16209,-0.738 -1.08589,-0.12956 -2.19825,-0.0841 -3.28926,-0.17925 -1.13454,-0.0839 -2.28616,-0.24924 -3.43017,-0.15878 -1.10066,0.10237 -2.09139,0.40682 -3.16322,0.57834 1.27197,-0.52204 -2.89528,0.92209 -1.47376,0.448 10.57924,-3.52829 7.19494,-2.59666 5.19591,-1.62553 -0.72517,0.40404 -1.56618,0.72882 -2.28193,1.13722 -0.85337,0.41599 -1.59637,0.87825 -2.24413,1.4026 -0.49227,0.40678 -0.24207,0.2055 -0.7506,0.60388 0,0 -6.8702,1.73131 -6.8702,1.73131 v 0 c 0.46663,-0.42074 0.21125,-0.227 0.75893,-0.58435 0.54471,-0.57926 1.26133,-1.07979 2.14408,-1.50004 1.36385,-0.70856 -0.75717,0.4087 0.66749,-0.3978 0.49488,-0.28014 1.14734,-0.45192 1.62218,-0.74876 2.5336,-1.44753 5.86941,-2.37686 9.16573,-3.11891 1.0752,-0.20991 2.12724,-0.49159 3.28515,-0.49766 1.17324,0.0171 2.32828,0.13329 3.48993,0.22238 1.14898,0.0507 2.32691,0.0386 3.42865,0.26157 0.81466,0.2159 1.52051,0.53174 2.25849,0.82274 0.8577,0.35723 1.76365,0.67303 2.60226,1.04508 1.04456,0.49483 2.12255,0.96567 3.12298,1.49114 0.97197,0.46457 1.96039,0.91586 2.80242,1.46188 0.70795,0.50104 1.5416,0.94033 2.10703,1.50571 0.69379,0.61273 1.27882,1.2243 1.28979,1.98188 0.16868,0.64187 0.51856,1.24709 0.82889,1.86838 0.36082,0.72397 0.80207,1.43406 0.89806,2.19214 0.18347,0.59701 0.21409,1.18957 0.17707,1.79613 -0.004,0.64834 -0.0101,1.29728 -0.0908,1.94425 -0.10748,0.73979 -0.25302,1.48076 -0.61934,2.19508 -0.20223,0.60841 -0.55456,1.18986 -0.83731,1.78609 -0.38438,0.59735 -0.76746,1.19168 -1.0586,1.80726 -0.50827,0.697693 -1.09766,1.370663 -1.71893,2.036413 -0.47509,0.63272 -1.10806,1.2237 -1.53001,1.87001 -0.45677,0.57714 -0.87272,1.14013 -1.58822,1.63158 -0.69478,0.47688 -1.24382,1.02605 -2.02198,1.46631 -0.78504,0.45419 -1.54893,0.94753 -2.52616,1.26425 -0.94064,0.40773 -1.87407,0.8245 -2.75295,1.27114 -0.96999,0.42949 -1.91325,0.87818 -2.93589,1.26764 -0.51566,0.18604 -1.01541,0.3894 -1.49506,0.60571 -0.16196,0.073 -0.29313,0.17005 -0.47004,0.23039 -2.29468,0.78265 -4.61452,1.54055 -6.93652,2.29579 -0.14997,0.0487 -0.31743,0.0768 -0.47616,0.11521 -1.06772,0.22465 -2.12025,0.4222 -3.27677,0.31565 -1.23229,-0.0848 -2.42102,-0.26202 -3.49092,-0.64161 -1.35639,-0.48197 -2.6354,-1.02669 -3.9158,-1.57276 -1.3944,-0.5212 -2.71988,-1.10342 -4.06352,-1.66714 -1.10168,-0.49836 -2.26638,-0.96317 -3.10158,-1.62471 -0.64367,-0.56228 -1.4208,-1.07058 -2.03305,-1.64614 -0.7582,-0.68478 -1.11657,-1.42842 -1.3212,-2.22988 -0.32906,-0.86532 -0.58516,-1.73468 -0.4844,-2.62525 -0.004,-0.86454 -8e-5,-1.72906 -0.008,-2.593563 0.004,-0.85089 9.7e-4,-1.70178 0.002,-2.55266 0.006,-0.99158 -0.0112,-1.98368 0.0547,-2.97471 0.0996,-0.94368 0.2108,-1.89603 0.76429,-2.7947 0.59394,-0.89854 1.02112,-1.83864 1.84603,-2.68191 0.97617,-0.96774 1.98467,-1.9216 3.04576,-2.85962 1.14989,-0.87347 2.24911,-1.76708 3.73835,-2.46324 3.66047,-1.86108 8.1938,-3.0545 12.60524,-4.20997 2.4611,-0.56487 4.90448,-1.19682 7.56808,-1.36085 0,0 -6.02745,2.59165 -6.02745,2.59165 z"
       inkscape:connector-curvature="0" />
    <path
       style="opacity:0.75;fill:#9780e8;fill-opacity:1;stroke:#9780e8;stroke-width:0.27023366;stroke-miterlimit:4;stroke-dasharray:none;stroke-opacity:1"
       id="path2501"
       d="m -251.08591,92.789147 c -0.0285,0.7979 -0.0248,1.5962 -0.0266,2.39427 -9.7e-4,0.74036 0.0139,1.48068 0.014,2.22102 0.002,0.54546 0.006,1.09091 0.0101,1.63637 0.002,0.45667 0.002,0.91332 0.002,1.369993 7e-5,0.44884 1e-5,0.89768 0,1.34653 0.002,0.47154 -0.002,0.94308 -0.004,1.41462 0.0531,0.54414 -0.0947,1.07936 -0.20262,1.61666 -0.11088,0.49141 -0.0998,0.98878 -0.17411,1.4818 -0.12675,0.44684 -0.23256,0.89445 -0.28826,1.34706 -0.0448,0.44552 -0.0464,0.89214 -0.0487,1.33836 -5.9e-4,0.44969 6.1e-4,0.89937 9.7e-4,1.34906 6e-4,0.44995 6e-4,0.8999 6e-4,1.34985 3e-5,0.29994 3e-5,0.59988 3e-5,0.89983 0,0 -4.73038,1.51511 -4.73038,1.51511 v 0 c 10e-6,-0.29994 10e-6,-0.59987 -2e-5,-0.89981 -5e-5,-0.44987 -1e-4,-0.89974 -6e-4,-1.3496 -6e-4,-0.44998 -0.002,-0.89996 -0.002,-1.34994 6e-4,-0.45268 -4e-5,-0.9056 0.0332,-1.35791 0.0427,-0.45945 0.11782,-0.91729 0.27465,-1.36762 0.1405,-0.48739 0.0607,-0.99086 0.18661,-1.48126 0.10015,-0.52577 0.27528,-1.04752 0.22851,-1.57924 -0.002,-0.47063 -0.006,-0.94123 -0.004,-1.41185 -2e-5,-0.44884 -8e-5,-0.89767 -1e-5,-1.34651 1.3e-4,-0.45711 2.5e-4,-0.9142 0.002,-1.37131 0.002,-0.54746 0.006,-1.094913 0.0101,-1.642373 2.5e-4,-0.74335 0.0153,-1.48667 0.014,-2.23002 -0.002,-0.79241 0.002,-1.58504 -0.0266,-2.37726 0,0 4.73266,-1.51583 4.73266,-1.51583 z"
       inkscape:connector-curvature="0" />
    <path
       style="opacity:0.75;fill:#9780e8;fill-opacity:1;stroke:#9780e8;stroke-width:0.27023366;stroke-miterlimit:4;stroke-dasharray:none;stroke-opacity:1"
       id="path2503"
       d="m -254.22735,97.421527 c 2.23615,-1.0849 4.71008,-1.98291 7.24923,-2.75497 0.76998,-0.174 1.56952,-0.30906 2.3712,-0.41579 0.72682,-0.0789 1.4409,-0.15036 2.13427,0.033 0.68497,0.13516 1.27156,0.39513 1.92651,0.57178 0.63798,0.19925 1.27731,0.3931 1.91214,0.59619 0.64322,0.14781 1.15643,0.41181 1.63424,0.71157 0.57894,0.37182 1.054,0.80202 1.51985,1.23042 0.51503,0.36322 0.97029,0.74539 1.26968,1.19536 0.32661,0.43739 0.49811,0.90203 0.58342,1.37949 0.1409,0.444773 0.28485,0.887193 0.36223,1.338493 0.0699,0.47037 0.067,0.94309 0.0686,1.41499 -0.006,0.56002 -0.002,1.12004 -5.9e-4,1.68006 -0.006,0.53978 9.7e-4,1.07958 -0.004,1.61935 -0.005,0.57515 -0.003,1.1503 6e-4,1.72547 0.0701,0.41427 0.21451,0.82074 0.28771,1.23519 0.0712,0.46132 0.0695,0.92511 0.0721,1.38805 0.002,0.49832 0.003,0.99662 0.004,1.49494 2e-5,0.0773 4e-5,0.1547 7e-5,0.23207 0,0 -4.72891,1.5143 -4.72891,1.5143 v 0 c 2.4e-4,-0.0775 5.1e-4,-0.15493 7.1e-4,-0.2324 0.002,-0.49829 0.006,-0.9966 0.004,-1.49491 -0.005,-0.4519 -0.008,-0.90442 -0.0605,-1.35535 -0.0636,-0.42733 -0.20083,-0.84576 -0.29834,-1.27006 0.004,-0.57531 0.005,-1.15062 6.1e-4,-1.72592 -0.004,-0.53944 0.004,-1.07888 -9.8e-4,-1.61832 0.004,-0.55965 0.011,-1.11935 0.003,-1.679 -0.004,-0.46142 -0.006,-0.92341 -0.0551,-1.384 -0.0634,-0.45218 -0.19106,-0.89653 -0.35325,-1.33882 -0.0694,-0.44798 -0.20277,-0.88691 -0.52013,-1.29509 -0.26716,-0.433053 -0.73749,-0.779823 -1.20199,-1.136333 -0.44827,-0.40941 -0.90456,-0.82213 -1.47599,-1.16838 -0.4569,-0.26721 -0.96149,-0.47929 -1.54627,-0.6239 -0.63867,-0.19048 -1.25135,-0.41192 -1.89926,-0.5906 -0.62369,-0.19063 -1.22296,-0.41455 -1.8969,-0.53248 -0.6537,-0.071 -1.31952,0.0229 -1.96061,0.10727 -0.77341,0.12626 -1.56354,0.23732 -2.27648,0.47174 -1.85644,0.63347 -0.0515,0.0206 3.62331,-1.32595 0.1594,-0.0584 -0.32822,0.1064 -0.48679,0.1657 -0.46858,0.17524 -0.88562,0.39328 -1.33409,0.58679 0,0 -4.92672,1.25003 -4.92672,1.25003 z"
       inkscape:connector-curvature="0" />
    <path
       style="opacity:0.75;fill:#9780e8;fill-opacity:1;stroke:#9780e8;stroke-width:0.27023366;stroke-miterlimit:4;stroke-dasharray:none;stroke-opacity:1"
       id="path2505"
       d="m -238.20319,99.014797 c 0.40752,-0.57386 0.64406,-1.18559 1.02959,-1.76502 0.2322,-0.36112 0.61439,-0.66015 1.00441,-0.95625 1.70962,-1.07927 4.08645,-1.60103 6.21874,-2.28122 0.60528,-0.1691 1.16935,-0.38729 1.75623,-0.5792 0.59906,-0.15338 1.25217,-0.1658 1.88983,-0.1804 0.8179,-0.0456 1.51505,0.17013 2.22692,0.38492 0.64449,0.17461 1.33509,0.23731 2.00143,0.36894 0.57035,0.16724 1.05501,0.40489 1.48692,0.69001 0.58018,0.34438 1.15796,0.68828 1.6999,1.05956 0.58566,0.40184 1.17238,0.81197 1.71679,1.23813 0.61595,0.44313 0.93009,0.9957 1.18407,1.55262 0.14717,0.57268 0.4088,1.12453 0.66444,1.680573 0.17272,0.56312 0.39241,1.12043 0.55898,1.68439 0.11382,0.48131 0.32077,0.94923 0.42003,1.43222 0.089,0.51035 0.10568,1.02404 0.11618,1.53692 0.008,0.49331 -5e-4,0.9866 -9.6e-4,1.4799 -2e-5,0.48767 9.6e-4,0.97535 0.002,1.46301 5.5e-4,0.45261 6.8e-4,0.90521 7.2e-4,1.35783 3e-5,0.44949 2e-5,0.89897 1e-5,1.34846 0.0229,0.40232 -0.0845,0.80236 -0.3106,1.17819 0,0 -4.83169,1.4036 -4.83169,1.4036 v 0 c 0.2321,-0.33914 0.44244,-0.6886 0.41186,-1.06667 -2e-5,-0.44949 -4e-5,-0.89897 -3e-5,-1.34846 5e-5,-0.45282 1.1e-4,-0.90562 7.3e-4,-1.35843 7e-4,-0.48856 0.003,-0.97712 0.005,-1.46568 6.9e-4,-0.49171 -0.003,-0.98341 -9.7e-4,-1.47512 -0.004,-0.50166 -0.008,-1.00424 -0.0847,-1.50407 -0.0907,-0.47911 -0.29359,-0.94178 -0.40713,-1.41768 -0.14571,-0.55613 -0.37103,-1.10192 -0.5259,-1.65685 -0.24639,-0.55844 -0.55365,-1.10423 -0.66216,-1.68306 -0.22149,-0.516533 -0.51564,-1.024113 -1.08718,-1.431343 -0.53961,-0.41851 -1.11135,-0.8244 -1.68779,-1.22198 -0.54656,-0.36508 -1.1432,-0.6945 -1.71863,-1.0405 -0.39081,-0.23817 -0.81959,-0.443 -1.34224,-0.55318 -0.68159,-0.13067 -1.39563,-0.19899 -2.03274,-0.41191 -0.66693,-0.19353 -1.33718,-0.30797 -2.08061,-0.2447 -0.61273,0.0344 -1.22136,0.0899 -1.75424,0.29886 -0.57173,0.20488 -1.16955,0.38277 -1.76343,0.56077 -0.34028,0.0969 -0.32438,0.0896 -0.64893,0.19272 -0.10044,0.0319 -0.39684,0.13354 -0.29985,0.0977 7.7893,-2.88478 5.21873,-2.03444 3.80095,-1.36777 -0.45472,0.22661 -0.82028,0.54034 -1.09733,0.85855 -0.49145,0.54489 -0.68451,1.16328 -1.0289,1.74681 0,0 -4.82884,1.39487 -4.82884,1.39487 z"
       inkscape:connector-curvature="0" />
    <path
       style="opacity:0.75;fill:#9780e8;fill-opacity:1;stroke:#9780e8;stroke-width:0.31516254;stroke-miterlimit:4;stroke-dasharray:none;stroke-opacity:1"
       id="path2515"
       d="m -167.04745,92.149077 c -0.21867,1.80604 -0.55925,3.60468 -0.85449,5.40655 -0.26852,1.7193 -0.3693,3.445723 -0.39987,5.171983 -0.006,0.86934 0.003,1.73869 0.0155,2.60799 0.008,0.5542 0.0126,1.10841 0.0144,1.66263 -0.007,0.58471 -0.004,1.16944 -9.6e-4,1.75417 9.6e-4,0.53165 0.002,1.06329 0.003,1.59494 2.9e-4,0.51661 1.5e-4,1.03322 1.5e-4,1.54983 -2e-5,0.43037 -3e-5,0.86075 -3e-5,1.29113 0,0 -5.60207,1.74014 -5.60207,1.74014 v 0 c -10e-6,-0.43038 -3e-5,-0.86075 -4e-5,-1.29111 0,-0.51666 -3e-5,-1.03331 1.5e-4,-1.54997 3e-4,-0.53218 7.2e-4,-1.06436 0.003,-1.59655 9.6e-4,-0.58404 0.006,-1.16812 -0.004,-1.75217 4e-5,-0.55595 1e-4,-1.1119 0.004,-1.66785 0.006,-0.88053 0.014,-1.76115 0.0611,-2.64131 0.086,-1.743 0.19328,-3.48655 0.46268,-5.223313 0.2789,-1.7825 0.68314,-3.56004 0.69077,-5.35408 0,0 5.60768,-1.70301 5.60768,-1.70301 z"
       inkscape:connector-curvature="0" />
    <path
       style="opacity:0.75;fill:#9780e8;fill-opacity:1;stroke:#9780e8;stroke-width:0.31516254;stroke-miterlimit:4;stroke-dasharray:none;stroke-opacity:1"
       id="path2517"
       d="m -170.7474,98.909177 c 0.97561,-0.7046 1.92853,-1.41919 2.85273,-2.14894 0.58748,-0.57711 1.47553,-0.91265 2.41094,-1.24598 2.22372,-0.79395 3.39379,-1.21346 6.46273,-2.25115 1.63364,-0.55239 -6.49716,2.24989 -4.86176,1.69945 1.87744,-0.63188 4.53794,-1.77097 6.93556,-2.33353 0.98992,-0.18816 2.04276,-0.34876 3.08309,-0.26953 1.00141,0.0654 1.78925,0.43203 2.45392,0.86783 0.66539,0.47003 1.40527,0.86862 1.93194,1.40525 0.5027,0.63012 0.96085,1.27361 1.4731,1.90049 0.51998,0.5575 0.73323,1.17821 0.94936,1.79769 0.23228,0.73222 0.27999,1.47744 0.4679,2.213323 0.20969,0.74917 0.27376,1.50986 0.30977,2.26838 0.038,0.78036 0.0291,1.56109 0.0344,2.34167 0.008,0.68673 8e-5,1.37347 -1.4e-4,2.06019 0.002,0.60823 0.006,1.21647 0.008,1.82468 9.6e-4,0.52306 9.6e-4,1.04611 0.002,1.56915 7e-5,0.5157 2e-5,1.0314 0,1.54709 -1e-5,0.086 -1e-5,0.17211 -1e-5,0.25816 0,0 -5.60211,1.74015 -5.60211,1.74015 v 0 c 0,-0.086 -1e-5,-0.17209 -2e-5,-0.25816 -2e-5,-0.51568 -9e-5,-1.03138 -2e-5,-1.54707 1.3e-4,-0.52347 3e-4,-1.04694 0.002,-1.57041 0.002,-0.61023 0.006,-1.22045 0.0101,-1.83069 9.6e-4,-0.68726 -0.006,-1.37454 0.006,-2.06179 0.006,-0.77794 0.002,-1.55592 -0.0187,-2.33377 -0.0367,-0.74281 -0.0827,-1.48797 -0.28584,-2.22221 -0.18686,-0.72987 -0.2473,-1.46586 -0.45255,-2.19412 -0.20674,-0.586953 -0.40688,-1.180213 -0.87486,-1.714883 -0.49621,-0.62018 -0.96311,-1.24951 -1.45543,-1.87081 -0.49975,-0.50886 -1.25089,-0.87342 -1.86619,-1.32852 -0.61064,-0.37285 -1.31123,-0.62226 -2.19919,-0.62316 -0.99391,0.024 -1.97167,0.15856 -2.88705,0.39777 -0.17687,0.0517 -0.35511,0.10149 -0.53061,0.15481 -0.17024,0.0517 -0.6704,0.21896 -0.5065,0.16015 1.6132,-0.57892 6.49142,-2.27487 4.85507,-1.72063 -19.70519,6.674143 3.58828,-1.04665 -1.5992,0.55158 -0.89328,0.32786 -1.92843,0.56625 -2.50841,1.12282 -0.96284,0.70036 -1.86198,1.43738 -2.80922,2.14476 0,0 -5.79091,1.49996 -5.79091,1.49996 z"
       inkscape:connector-curvature="0" />
    <path
       style="opacity:0.75;fill:#9780e8;fill-opacity:1;stroke:#9780e8;stroke-width:0.31516254;stroke-miterlimit:4;stroke-dasharray:none;stroke-opacity:1"
       id="path2519"
       d="m -132.57099,91.758607 c -0.0588,1.27053 -0.055,2.54181 -0.0503,3.81273 0.003,1.29707 0.005,2.59415 0.0106,3.89121 0.0348,1.214893 0.35264,2.416063 0.592,3.619823 0.13298,0.94337 0.24061,1.8842 0.45136,2.82266 0.14753,0.59919 0.21967,1.20314 0.25472,1.8082 0.048,0.49807 -0.0306,0.99995 0.0533,1.4963 0.1601,0.44881 0.26967,0.90107 0.33017,1.35869 0.0464,0.42389 0.0518,0.84886 0.0569,1.2735 0,0 -5.60073,1.74229 -5.60073,1.74229 v 0 c -0.003,-0.41655 -0.006,-0.83332 -0.0413,-1.2494 -0.0486,-0.4505 -0.1375,-0.89759 -0.31535,-1.33678 -0.13443,-0.50673 -0.0337,-1.02348 -0.075,-1.53523 -0.0214,-0.59614 -0.0695,-1.19204 -0.19592,-1.78384 -0.18846,-0.94541 -0.31746,-1.89051 -0.41543,-2.84101 -0.20957,-1.22042 -0.54932,-2.4328 -0.61253,-3.66119 0.006,-1.299263 0.007,-2.598533 0.0106,-3.897783 0.004,-1.26051 0.008,-2.52141 -0.0503,-3.78151 0,0 5.59731,-1.73866 5.59731,-1.73866 z"
       inkscape:connector-curvature="0" />
    <path
       style="opacity:0.75;fill:#9780e8;fill-opacity:1;stroke:#9780e8;stroke-width:0.31516254;stroke-miterlimit:4;stroke-dasharray:none;stroke-opacity:1"
       id="path2521"
       d="m -133.41489,84.492377 c -0.0355,0.78877 -0.0204,1.57801 -0.0128,2.36697 0,0 -5.57918,1.73303 -5.57918,1.73303 v 0 c 0.007,-0.78631 0.023,-1.57292 -0.0129,-2.35903 0,0 5.60475,-1.74097 5.60475,-1.74097 z"
       inkscape:connector-curvature="0" />
    <path
       style="opacity:0.75;fill:#9780e8;fill-opacity:1;stroke:#9780e8;stroke-width:0.36807039;stroke-miterlimit:4;stroke-dasharray:none;stroke-opacity:1"
       id="path2513-2"
       d="m -201.1259,99.332307 c 2.08356,0.48866 4.33788,0.57767 6.54149,0.671453 2.82462,0.0927 5.65448,0.0968 8.48234,0.0927 1.01468,-0.0344 2.05647,-0.0769 3.00895,-0.318313 0.22822,-0.058 0.86576,-0.29201 0.65125,-0.21682 -5.96652,2.089683 -7.39636,2.793503 -5.1634,1.732163 1.01835,-0.60921 1.44547,-1.413613 1.7114,-2.247723 0.25335,-0.99509 0.29882,-1.9835 -0.0663,-2.96628 -0.12751,-0.14836 -0.21709,-0.31157 -0.38269,-0.44496 -1.19087,-0.95897 -3.69838,-1.33932 -5.48393,-1.61184 -1.95063,-0.18917 -3.9499,-0.4396 -5.93807,-0.35726 -1.07506,0.0445 -1.4953,0.14365 -2.5134,0.30954 -0.36172,0.0961 -0.73698,0.17467 -1.08525,0.28797 -0.33563,0.10925 -1.29604,0.48575 -0.95973,0.37735 1.77138,-0.57083 3.44932,-1.25402 5.26793,-1.76571 0.34405,-0.0968 -0.54211,0.32573 -0.78476,0.50434 -0.48731,0.35854 -0.97444,0.84824 -1.38411,1.23722 -1.57837,1.54687 -2.69243,3.22882 -3.62066,4.95575 -0.97706,1.913093 -1.37985,3.818763 -1.07389,5.811943 0.39415,1.78903 2.08761,3.16586 4.05655,4.43123 2.28807,1.30983 5.18632,1.87715 8.16254,2.29932 2.54635,0.28695 5.1526,0.44458 7.74088,0.35745 0.83276,-0.0303 1.66564,-0.0877 2.42062,-0.32134 0.18912,-0.0587 0.72454,-0.26975 0.53994,-0.20603 -5.82597,2.01365 -7.4451,2.92818 -5.4195,1.81909 0.10013,-0.0738 0.20061,-0.14769 0.30091,-0.22154 0,0 6.72721,-1.76499 6.72721,-1.76499 v 0 c -0.0996,0.0782 -0.19936,0.15679 -0.29906,0.23536 -1.7501,1.60233 -0.27494,0.34026 -6.9995,2.73189 -0.91668,0.32606 -2.08324,0.29302 -3.09429,0.34552 -2.61443,0.0101 -5.23608,-0.13521 -7.79264,-0.47966 -3.07903,-0.47908 -6.04496,-1.13023 -8.39307,-2.50729 -2.06234,-1.33925 -3.82807,-2.81046 -4.2944,-4.68342 -0.13285,-0.80458 -0.21437,-1.0373 -0.17126,-1.85904 0.0736,-1.39847 0.58049,-2.77614 1.14917,-4.12453 0.89822,-1.749763 1.93967,-3.459153 3.48394,-5.039473 0.42493,-0.42112 1.43304,-1.59188 2.06894,-1.85799 2.77984,-1.16328 5.84438,-2.5659 9.17271,-3.24149 1.13035,-0.13488 1.40992,-0.1976 2.59472,-0.21243 2.0237,-0.0236 4.04017,0.22086 6.01747,0.44897 2.06583,0.3444 4.54403,0.76377 5.89,1.88797 0.19715,0.16455 0.3115,0.36133 0.46725,0.542 0.18215,0.4315 0.32867,0.69465 0.37877,1.14065 0.0736,0.65594 -0.0754,1.32591 -0.15063,1.97874 -0.21151,0.90267 -0.59317,1.7712 -1.50835,2.50999 -2.81987,1.947963 -6.91799,3.063863 -11.04313,3.097553 -2.83321,-0.0135 -5.66871,-0.0169 -8.49781,-0.12375 -2.29012,-0.10858 -4.60467,-0.23705 -6.77942,-0.72466 0,0 6.06406,-2.509693 6.06406,-2.509693 z"
       inkscape:connector-curvature="0" />
    <path
       style="opacity:0.75;fill:#9780e8;fill-opacity:1;stroke:#9780e8;stroke-width:0.5384528;stroke-miterlimit:4;stroke-dasharray:none;stroke-opacity:1"
       id="path2513-8-5"
       d="m 562.84284,100.56732 c 3.23388,0.67375 6.73278,0.79655 10.15298,0.92583 4.38403,0.12776 8.77623,0.13342 13.1653,0.12776 1.57488,-0.0475 3.1918,-0.10609 4.67012,-0.43898 0.35423,-0.0799 1.34375,-0.40264 1.01082,-0.29904 -9.26056,2.88136 -11.47979,3.85182 -8.01403,2.38839 1.58057,-0.83999 2.24348,-1.94914 2.65621,-3.09927 0.39322,-1.372095 0.4638,-2.734955 -0.10271,-4.090055 -0.19801,-0.20451 -0.33696,-0.42965 -0.59397,-0.61354 -1.84835,-1.32229 -5.74021,-1.84672 -8.51154,-2.22248 -3.0275,-0.26071 -6.13057,-0.60618 -9.21637,-0.4926 -1.66857,0.0613 -2.32083,0.1982 -3.901,0.42694 -0.56145,0.13245 -1.14388,0.2409 -1.68441,0.39716 -0.52092,0.15056 -2.01157,0.66975 -1.48957,0.52031 2.74931,-0.78712 5.35363,-1.72913 8.17624,-2.43466 0.53402,-0.13342 -0.84138,0.44925 -1.218,0.6954 -0.75635,0.49435 -1.51241,1.16959 -2.14823,1.70594 -2.44977,2.13293 -4.1789,4.45206 -5.61958,6.833265 -1.5165,2.63786 -2.14166,5.26551 -1.66679,8.0138 0.61176,2.46684 3.24015,4.36527 6.29612,6.11002 3.55129,1.80608 8.04959,2.58831 12.66895,3.17045 3.95218,0.39542 7.99727,0.61302 12.01451,0.49284 1.2925,-0.0399 2.58519,-0.12064 3.75701,-0.44295 0.29353,-0.0807 1.12455,-0.37188 0.83802,-0.28387 -9.04238,2.77652 -11.55541,4.03753 -8.41153,2.50827 0.15559,-0.10188 0.31136,-0.20372 0.46704,-0.30559 0,0 10.44122,-2.43367 10.44122,-2.43367 v 0 c -0.15469,0.10803 -0.30945,0.21629 -0.46417,0.32443 -2.71631,2.20941 -0.42674,0.46917 -10.86382,3.76692 -1.42279,0.44954 -3.23336,0.40408 -4.8026,0.47639 -4.05781,0.0129 -8.12686,-0.18657 -12.09482,-0.66137 -4.77895,-0.66057 -9.38232,-1.55843 -13.0268,-3.45719 -3.20093,-1.84662 -5.94146,-3.87521 -6.66525,-6.45773 -0.20641,-1.10939 -0.33272,-1.43033 -0.26568,-2.56337 0.11407,-1.92827 0.90094,-3.82787 1.78358,-5.68714 1.39411,-2.41263 3.01051,-4.769635 5.40735,-6.948675 0.65953,-0.58065 2.22421,-2.19496 3.21119,-2.56189 4.31455,-1.60399 9.07097,-3.538 14.23682,-4.46954 1.75442,-0.18596 2.18831,-0.27261 4.02722,-0.29268 3.14098,-0.0341 6.27072,0.30452 9.33963,0.61907 3.20636,0.47488 7.05272,1.05312 9.14178,2.60325 0.306,0.22706 0.48348,0.49822 0.72522,0.74732 0.2827,0.59496 0.51012,0.95781 0.58789,1.57278 0.11442,0.90447 -0.11696,1.82823 -0.23386,2.72842 -0.3283,1.24463 -0.92068,2.44224 -2.34111,3.460905 -4.37667,2.68596 -10.73729,4.22461 -17.13985,4.27104 -4.39738,-0.0196 -8.79833,-0.0246 -13.18932,-0.17084 -3.55445,-0.14975 -7.14686,-0.32676 -10.52224,-0.99921 0,0 9.41194,-3.46048 9.41194,-3.46048 z"
       inkscape:connector-curvature="0" />
    <rect
       style="opacity:0.75;fill:#8cceff;fill-opacity:1;stroke:#8cceff;stroke-width:0.65967929;stroke-miterlimit:4;stroke-dasharray:none;stroke-opacity:0.87843137"
       id="rect10"
       width="502.99991"
       height="45.48645"
       x="1.0644058"
       y="253.14249" />
    <path
       style="opacity:0.75;fill:#9780e8;fill-opacity:1;stroke:#9780e8;stroke-width:0.13569261;stroke-miterlimit:4;stroke-dasharray:none;stroke-opacity:1"
       id="path2499-3"
       d="m 63.996936,273.34412 c -0.883914,0.0717 -1.686242,0.33968 -2.504396,0.55862 -0.149008,0.0465 -0.29886,0.0919 -0.447037,0.13963 -0.142032,0.0458 -0.283807,0.092 -0.423545,0.14086 -0.128629,0.045 -0.506675,0.18984 -0.38137,0.14074 0.608956,-0.23864 1.216192,-0.47948 1.832453,-0.7094 0.200968,-0.075 -0.375237,0.17914 -0.554386,0.27616 -0.506501,0.27191 -0.910743,0.60724 -1.303327,0.95114 -0.372943,0.36203 -0.719478,0.73635 -1.043411,1.11925 -0.291064,0.32496 -0.460603,0.68754 -0.645196,1.04361 -0.199107,0.34345 -0.260162,0.70848 -0.296109,1.07343 -0.03079,0.39273 -0.02997,0.78617 -0.02657,1.17931 0.0023,0.3393 0.0035,0.67859 0.007,1.01789 -0.0023,0.34626 -0.0012,0.69252 -0.0023,1.03879 -0.0247,0.34362 0.03313,0.6809 0.141763,1.01572 0.0796,0.29681 0.165689,0.58048 0.412705,0.83507 0.210368,0.22953 0.48096,0.43013 0.697672,0.65602 0.274348,0.24617 0.654876,0.41595 1.008809,0.60482 0.454939,0.21873 0.892026,0.45763 1.370235,0.65275 0.432698,0.22165 0.866847,0.44133 1.338981,0.62389 0.35343,0.13218 0.74352,0.1718 1.140131,0.18757 0.366657,0.0174 0.720637,-0.0879 1.045494,-0.19425 0.881527,-0.2403 0.329001,-0.0954 -1.877647,0.73803 -0.06005,0.0226 0.115999,-0.0501 0.17236,-0.0767 0.171109,-0.0809 0.336352,-0.16803 0.50588,-0.25048 0.347449,-0.1551 0.683976,-0.32151 1.010999,-0.49568 0.311255,-0.17095 0.619058,-0.34519 0.937946,-0.50965 0.321895,-0.13806 0.604368,-0.30743 0.878319,-0.4854 0.254976,-0.17475 0.489129,-0.36155 0.69835,-0.56202 0.226989,-0.19261 0.420712,-0.39482 0.573021,-0.61826 0.157272,-0.25553 0.3395,-0.50319 0.524842,-0.74974 0.20146,-0.268 0.403739,-0.53483 0.587419,-0.80873 0.133628,-0.23505 0.232409,-0.4778 0.364854,-0.71338 0.110264,-0.22776 0.21958,-0.45683 0.301447,-0.69019 0.118774,-0.28189 0.189696,-0.5693 0.231238,-0.86057 0.03125,-0.25341 0.03383,-0.50782 0.03535,-0.76193 0.0023,-0.23184 0.01206,-0.46227 -0.04085,-0.6918 -0.03078,-0.29708 -0.159696,-0.57739 -0.285294,-0.86048 -0.112956,-0.25335 -0.235183,-0.5022 -0.303986,-0.76344 -0.0012,-0.28281 -0.163956,-0.50134 -0.387457,-0.72924 -0.189743,-0.22128 -0.474475,-0.38893 -0.709049,-0.58679 -0.280167,-0.20667 -0.607505,-0.37799 -0.925129,-0.55817 -0.338634,-0.21267 -0.713274,-0.39544 -1.067933,-0.59526 -0.298895,-0.1316 -0.593962,-0.26631 -0.890024,-0.40074 -0.23825,-0.11128 -0.46058,-0.23452 -0.73926,-0.29502 -0.371304,-0.0518 -0.751644,-0.0336 -1.124692,-0.0716 -0.387926,-0.0336 -0.781692,-0.0996 -1.17286,-0.0635 -0.376337,0.0409 -0.7151,0.16263 -1.081581,0.2312 0.434922,-0.20869 -0.989965,0.3686 -0.503914,0.17909 3.617301,-1.41043 2.460127,-1.03802 1.776619,-0.6498 -0.247965,0.16151 -0.535529,0.29134 -0.780252,0.45459 -0.291789,0.16629 -0.545841,0.35108 -0.767329,0.56069 -0.168322,0.16261 -0.08276,0.0822 -0.256639,0.2414 0,0 -2.349102,0.69209 -2.349102,0.69209 v 0 c 0.159555,-0.16819 0.07222,-0.0907 0.259495,-0.23359 0.186255,-0.23156 0.431282,-0.43165 0.733115,-0.59964 0.466328,-0.28325 -0.258886,0.16338 0.22823,-0.15902 0.169212,-0.11198 0.392315,-0.18066 0.554667,-0.29932 0.866298,-0.57864 2.006898,-0.95015 3.13399,-1.24677 0.36764,-0.0839 0.727355,-0.19652 1.123275,-0.19895 0.401153,0.007 0.79609,0.0533 1.193297,0.0889 0.392865,0.0203 0.795621,0.0154 1.172345,0.10457 0.278539,0.0863 0.519891,0.21256 0.772222,0.32888 0.293276,0.1428 0.603034,0.26904 0.889778,0.41777 0.357164,0.19781 0.725753,0.38602 1.067817,0.59609 0.332348,0.1857 0.670315,0.36611 0.958219,0.58437 0.242077,0.20029 0.527125,0.3759 0.72045,0.60191 0.237231,0.24494 0.437263,0.48942 0.44102,0.79226 0.05771,0.25658 0.1773,0.49852 0.283409,0.74687 0.123374,0.28941 0.274243,0.57327 0.307077,0.87631 0.06274,0.23865 0.07316,0.47553 0.06052,0.718 -0.0012,0.25917 -0.0035,0.51859 -0.03102,0.77721 -0.03675,0.29573 -0.0865,0.59193 -0.211772,0.87748 -0.06918,0.24322 -0.189614,0.47564 -0.2863,0.71399 -0.131427,0.23879 -0.26241,0.47637 -0.361963,0.72245 -0.173789,0.2789 -0.375319,0.54792 -0.587735,0.81405 -0.162446,0.25293 -0.378877,0.48918 -0.523157,0.74753 -0.156184,0.23071 -0.298403,0.45576 -0.543044,0.65222 -0.237571,0.19063 -0.425289,0.41017 -0.691373,0.58616 -0.268415,0.18156 -0.529607,0.37877 -0.863758,0.50538 -0.321627,0.16299 -0.640783,0.32959 -0.941305,0.50814 -0.331658,0.17168 -0.654186,0.35105 -1.003847,0.50673 -0.176317,0.0744 -0.347191,0.15567 -0.511194,0.24214 -0.05537,0.0292 -0.100197,0.068 -0.160725,0.0921 -0.784607,0.31287 -1.577816,0.61584 -2.371764,0.91774 -0.05127,0.0195 -0.108508,0.0307 -0.162809,0.046 -0.365088,0.0898 -0.724968,0.16878 -1.120419,0.12618 -0.421344,-0.0339 -0.827799,-0.10474 -1.193625,-0.25648 -0.463788,-0.19267 -0.901109,-0.41042 -1.338911,-0.62872 -0.47678,-0.20834 -0.929998,-0.44108 -1.389408,-0.66643 -0.3767,-0.19922 -0.774949,-0.38502 -1.060523,-0.64947 -0.220083,-0.22478 -0.485794,-0.42797 -0.695143,-0.65805 -0.259249,-0.27373 -0.38178,-0.571 -0.451743,-0.89139 -0.112488,-0.34591 -0.20009,-0.69343 -0.16563,-1.04944 -0.0012,-0.34559 -3.5e-5,-0.69118 -0.0035,-1.03677 0.0012,-0.34014 3.86e-4,-0.68028 0.0012,-1.02042 0.0023,-0.39638 -0.0035,-0.79297 0.01873,-1.18914 0.03406,-0.37723 0.0721,-0.75792 0.26132,-1.11717 0.203087,-0.35919 0.349158,-0.73499 0.631209,-1.0721 0.333777,-0.38684 0.678615,-0.76814 1.041421,-1.14312 0.393181,-0.34917 0.769026,-0.70639 1.27823,-0.98467 1.251613,-0.74397 2.801664,-1.22103 4.310044,-1.68293 0.841518,-0.22581 1.676972,-0.47843 2.587715,-0.544 0,0 -2.060941,1.03602 -2.060941,1.03602 z"
       inkscape:connector-curvature="0" />
    <path
       style="opacity:0.75;fill:#80a0e8;fill-opacity:1;stroke:#80a0e8;stroke-width:0.58214521;stroke-miterlimit:4;stroke-dasharray:none;stroke-opacity:1"
       d="m 419.32313,298.27899 c 0.50246,-0.912 2.32364,-2.71137 3.64972,-3.60607 4.09972,-2.76605 9.92417,-4.26309 16.5838,-4.2625 4.29943,3.4e-4 7.17108,0.34391 16.16567,1.93381 10.68085,1.88799 11.419,1.97053 17.47636,1.95429 4.37611,-0.0117 5.28393,-0.0612 7.80999,-0.42554 8.81833,-1.27191 15.67547,-3.98453 20.3214,-8.03893 l 1.43281,-1.25037 v 7.02442 7.0244 h -41.81731 -41.81724 z"
       id="path2569"
       inkscape:connector-curvature="0" />
    <path
       style="opacity:0.75;fill:#80a0e8;fill-opacity:1;stroke:#80a0e8;stroke-width:0.58789045;stroke-miterlimit:4;stroke-dasharray:none;stroke-opacity:1"
       d="m 84.565527,253.50274 c -0.502848,0.92942 -2.325328,2.76312 -3.652417,3.67491 -4.102743,2.81883 -9.931468,4.34445 -16.596022,4.34384 -4.302553,-3.3e-4 -7.176345,-0.35047 -16.177546,-1.97072 -10.688685,-1.92401 -11.427359,-2.00813 -17.489194,-1.99158 -4.379329,0.0119 -5.28778,0.0624 -7.815699,0.43366 -8.824818,1.29618 -15.6870718,4.06058 -20.3363929,8.19236 l -1.4338468,1.27423 v -7.15848 -7.15848 H 42.912422 84.760444 Z"
       id="path2569-4"
       inkscape:connector-curvature="0" />
    <path
       style="opacity:0.75;fill:#9780e8;fill-opacity:1;stroke:#999eff;stroke-width:0.16363654;stroke-miterlimit:4;stroke-dasharray:none;stroke-opacity:1"
       id="path2967"
       d="m 37.435313,263.98693 c 0.04167,0.1647 0.07398,0.33129 0.124825,0.49408 0.141096,0.45164 0.437217,1.19769 0.60843,1.6137 0.457876,1.11249 0.968637,2.20699 1.480931,3.30171 1.088137,2.15951 2.253493,4.28947 3.45139,6.40586 0.765387,1.42608 1.689075,2.78395 2.490736,4.19408 0.505494,0.84669 0.947299,1.71767 1.309672,2.61606 0.220644,0.60836 0.491739,1.20017 0.769213,1.7912 0.177675,0.48594 0.467733,0.92494 0.74873,1.36926 0.172349,0.28187 0.232935,0.59785 0.378842,0.88872 0.0261,-0.84809 0.03079,0.12566 -2.285741,0.92251 -0.127319,0.0438 0.139995,-0.2019 0.202572,-0.30626 0.112722,-0.18806 0.220563,-0.37834 0.323207,-0.57057 0.272312,-0.51 0.670913,-1.33099 0.914605,-1.82532 1.265343,-2.57 2.565381,-5.12676 3.864494,-7.68431 1.116299,-2.14843 2.15161,-4.32664 3.088022,-6.53679 0.493835,-1.3413 1.098098,-2.64496 1.912892,-3.86732 0.464736,-0.62917 0.976398,-1.23433 1.513039,-1.82035 0.335825,-0.33038 0.693692,-0.64235 1.029283,-0.97308 0.993417,-1.04718 2.264999,-1.47761 3.682651,-2.18268 0.408609,-0.21643 0.860188,-0.321 1.332684,-0.36706 0.260794,-0.0152 0.131017,-0.009 0.389342,-0.0175 0,0 -2.225342,1.39868 -2.225342,1.39868 v 0 c -0.248621,0.0178 -0.124217,0.006 -0.373212,0.0344 -0.451017,0.075 -0.870032,0.22011 -1.260532,0.4291 4.006011,-1.99934 2.294625,-1.24596 1.584886,-0.7352 -0.219264,0.1578 -0.405308,0.34194 -0.594571,0.52492 -0.337253,0.33162 -0.669964,0.66339 -1.039477,0.96986 -0.571453,0.56638 -1.06132,1.19073 -1.565936,1.80029 -0.858045,1.20975 -1.498489,2.51046 -2.004017,3.8571 -0.950401,2.22238 -2.002438,4.41175 -3.135886,6.57068 -1.297755,2.54573 -2.606255,5.087 -3.822097,7.66259 -0.281594,0.60234 -0.554234,1.20778 -0.84339,1.80751 -0.09048,0.18777 -0.190984,0.37197 -0.283069,0.5592 -0.0542,0.11018 -0.04179,0.26361 -0.155716,0.33294 -2.38849,1.45313 -1.78397,1.82426 -2.668071,1.17243 -0.130912,-0.28832 -0.201507,-0.59171 -0.351382,-0.87338 -0.281723,-0.45372 -0.564125,-0.90652 -0.747009,-1.39903 -0.283818,-0.59449 -0.556727,-1.19138 -0.768722,-1.80766 -0.341924,-0.89586 -0.773381,-1.7614 -1.257536,-2.60801 -0.788071,-1.41689 -1.684147,-2.78872 -2.440227,-4.21923 -1.175107,-2.13164 -2.320705,-4.2752 -3.424878,-6.43435 -0.846984,-1.77459 -1.708658,-3.54954 -2.385587,-5.37795 0,0 2.431952,-1.11081 2.431952,-1.11081 z"
       inkscape:connector-curvature="0" />
    <path
       style="opacity:0.75;fill:#9780e8;fill-opacity:1;stroke:#999eff;stroke-width:0.16363654;stroke-miterlimit:4;stroke-dasharray:none;stroke-opacity:1"
       id="path2973"
       d="m 89.851945,263.11823 c 0.179361,2.64879 0.165467,5.30563 0.154429,7.95798 -0.04132,3.37273 -0.187707,6.74331 -0.303121,10.1145 -0.03687,1.06462 -0.06578,2.12947 -0.07023,3.19457 0.007,0.38722 -0.01264,0.77488 0.01545,1.1615 0.05642,0.40988 0.115883,0.81912 0.149231,1.23095 -0.01639,0.27553 0.07035,0.5415 0.0947,0.81347 -0.833979,0.36301 -1.66797,0.72602 -2.501938,1.08903 0,0 2.36117,-1.24204 2.36117,-1.24204 v 0 c -0.779081,0.40795 -1.558151,0.81592 -2.337233,1.22387 0.05221,-0.26539 -0.119604,-0.53059 -0.06801,-0.80113 -0.02552,-0.41108 -0.07445,-0.82033 -0.13989,-1.2282 -0.05104,-0.39394 -0.03196,-0.79024 -0.02259,-1.18606 0.04062,-1.085 0.119886,-2.16862 0.189263,-3.25246 0.223911,-3.38211 0.420478,-6.76659 0.422082,-10.15519 -0.0199,-2.60916 -0.03067,-5.23058 -0.372042,-7.82623 0,0 2.428698,-1.09456 2.428698,-1.09456 z"
       inkscape:connector-curvature="0" />
    <path
       style="opacity:0.75;fill:#9780e8;fill-opacity:1;stroke:#999eff;stroke-width:0.16363654;stroke-miterlimit:4;stroke-dasharray:none;stroke-opacity:1"
       id="path2977"
       d="m 86.670281,276.12134 c -1.106514,-0.71097 -2.453045,-1.03753 -3.785226,-1.28482 -1.083606,-0.18683 -2.200842,-0.21786 -3.245739,0.13759 -0.297373,0.10116 -1.137873,0.50075 -0.859731,0.36542 0.447646,-0.21779 0.912498,-0.40871 1.368736,-0.61307 -1.539201,1.00317 -2.873441,2.24176 -3.88904,3.65254 -0.159262,0.22123 -0.296238,0.45362 -0.444345,0.68043 -0.599908,1.04435 -0.881374,2.18468 -0.858244,3.3436 0.04401,0.90511 0.321697,1.44237 0.983468,2.12635 0.872876,0.72685 1.969393,1.20626 3.076024,1.61792 1.074043,0.31148 2.356827,0.63244 3.502472,0.62568 0.169645,-0.001 0.33785,-0.0268 0.506781,-0.0403 0.976281,-0.1832 2.616112,-1.0039 -1.300155,0.77691 -0.08826,0.0401 0.162552,-0.0999 0.238121,-0.15589 0.177827,-0.13167 0.263627,-0.23131 0.417727,-0.38663 0.444135,-0.54636 0.917684,-1.07017 1.460892,-1.54707 0.505786,-0.3909 1.053758,-0.73882 1.56542,-1.12395 0.32652,-0.24047 0.638829,-0.49652 0.910205,-0.78305 0,0 2.535029,-0.93957 2.535029,-0.93957 v 0 c -0.238297,0.32297 -0.569311,0.58418 -0.898558,0.83877 -0.518393,0.38231 -1.040145,0.75726 -1.583341,1.11512 -0.562358,0.45158 -1.051066,0.96196 -1.467412,1.51749 -0.950166,1.10361 -2.477321,1.87817 -4.068891,2.06362 -1.387909,0.0217 -2.759829,-0.27979 -4.054073,-0.69058 -1.144708,-0.43192 -2.287649,-0.92519 -3.18225,-1.68953 -0.685778,-0.72163 -1.003402,-1.32161 -1.054753,-2.26803 -0.007,-0.16554 -0.0261,-0.33107 -0.02013,-0.49664 0.03687,-1.02791 0.369185,-2.0428 0.860223,-2.97472 0.150167,-0.23427 0.288606,-0.47432 0.45049,-0.70282 1.011595,-1.42776 2.340311,-2.68708 3.852051,-3.73865 0.490218,-0.25056 2.834462,-1.59809 4.072005,-1.96219 1.081429,-0.31816 2.22835,-0.25112 3.327665,-0.0522 1.374249,0.27249 2.746017,0.63522 3.914838,1.33399 0,0 -2.330198,1.25423 -2.330198,1.25423 z"
       inkscape:connector-curvature="0" />
    <path
       style="opacity:0.75;fill:#9780e8;fill-opacity:1;stroke:#999eff;stroke-width:0.16363654;stroke-miterlimit:4;stroke-dasharray:none;stroke-opacity:1"
       id="path2979"
       d="m 100.04539,271.94744 c -0.07374,2.12223 -0.07386,4.24573 -0.118668,6.3685 -0.08194,2.72777 -0.115531,5.45525 -0.01346,8.18269 0,0 -2.354966,1.02951 -2.354966,1.02951 v 0 c -0.0094,-2.74366 0.05373,-5.48604 0.103591,-8.22928 0.01487,-2.09388 0.0012,-4.18856 -0.07421,-6.28161 0,0 2.457653,-1.06981 2.457653,-1.06981 z"
       inkscape:connector-curvature="0" />
    <path
       style="opacity:0.75;fill:#9780e8;fill-opacity:1;stroke:#999eff;stroke-width:0.16363654;stroke-miterlimit:4;stroke-dasharray:none;stroke-opacity:1"
       id="path2981"
       d="m 100.60435,267.48146 c -0.008,0.47877 -0.0289,0.95878 0.0119,1.43668 0,0 -2.439604,1.08194 -2.439604,1.08194 v 0 c -0.04448,-0.48169 -0.0094,-0.96492 -0.03266,-1.44765 0,0 2.460344,-1.07097 2.460344,-1.07097 z"
       inkscape:connector-curvature="0" />
    <path
       style="opacity:0.75;fill:#9780e8;fill-opacity:1;stroke:#999eff;stroke-width:0.16363654;stroke-miterlimit:4;stroke-dasharray:none;stroke-opacity:1"
       id="path2983"
       d="m 108.78176,264.32503 c -0.0589,2.52212 -0.19502,5.04198 -0.29317,7.56315 -0.0966,3.44934 -0.2432,6.90668 -0.009,10.35479 0.0338,0.49849 0.0931,0.99549 0.13964,1.49323 0.17878,1.31516 0.32131,2.66042 0.81717,3.92317 0,0 -2.40624,1.12723 -2.40624,1.12723 v 0 c -0.44807,-1.31146 -0.53082,-2.69499 -0.67553,-4.04766 -0.27473,-3.96144 -0.1625,-7.93062 -0.0741,-11.89599 0.059,-2.48207 0.16625,-4.96627 0.0434,-7.44811 0,0 2.45767,-1.06981 2.45767,-1.06981 z"
       inkscape:connector-curvature="0" />
    <path
       style="opacity:0.75;fill:#9780e8;fill-opacity:1;stroke:#999eff;stroke-width:0.16363654;stroke-miterlimit:4;stroke-dasharray:none;stroke-opacity:1"
       id="path2985"
       d="m 116.02844,273.09819 c 0.12745,2.07173 0.17842,4.14535 0.21629,6.2195 0.0309,2.0068 0.0699,4.01348 0.10968,6.02016 0,0 -2.36204,1.02924 -2.36204,1.02924 v 0 c 0.0198,-2.01785 0.0261,-4.03599 -0.0238,-6.0536 -0.0604,-2.05114 -0.11073,-4.1082 -0.39248,-6.14781 0,0 2.45235,-1.06749 2.45235,-1.06749 z"
       inkscape:connector-curvature="0" />
    <path
       style="opacity:0.75;fill:#9780e8;fill-opacity:1;stroke:#999eff;stroke-width:0.16363654;stroke-miterlimit:4;stroke-dasharray:none;stroke-opacity:1"
       id="path2989"
       d="m 114.78857,276.08691 c 0.50044,-0.62669 1.11163,-1.18642 1.76107,-1.70179 1.02445,-0.70388 0.47566,-0.34595 2.8931,-1.48875 0.16993,-0.0803 0.42033,-0.10532 0.60989,-0.0825 0.331,0.0399 0.414,0.11918 0.70874,0.26785 0.95124,0.53457 1.70486,1.26986 2.43337,2.00687 0.76364,0.74795 1.06548,1.30565 1.25799,2.27523 0.18018,1.26202 -0.0164,2.52698 -0.26026,3.77169 -0.19062,0.99742 -0.4272,1.98815 -0.60574,2.98722 -0.0852,0.42894 -0.0845,0.86504 -0.1646,1.2941 -0.0105,0.0538 -0.0217,0.10755 -0.0325,0.16133 0,0 -2.48241,1.03519 -2.48241,1.03519 v 0 c 0.0105,-0.0541 0.022,-0.10816 0.0331,-0.16224 0.097,-0.43086 0.1064,-0.86829 0.19183,-1.30145 0.19666,-1.00669 0.45451,-2.00366 0.65293,-3.01017 0.25363,-1.21588 0.44337,-2.45187 0.26469,-3.68678 -0.17601,-0.92776 -0.4504,-1.45233 -1.18215,-2.16989 -0.70008,-0.72097 -1.43849,-1.43756 -2.39252,-1.92 -0.31915,-0.11952 -0.54603,-0.19976 -0.89104,-0.10032 -0.0961,0.0277 -0.36417,0.15197 -0.27753,0.10685 2.68627,-1.39915 2.6396,-1.38074 1.77518,-0.86522 -0.66228,0.47984 -1.27374,1.02877 -1.76836,1.63903 0,0 -2.52478,0.94375 -2.52478,0.94375 z"
       inkscape:connector-curvature="0" />
    <path
       style="opacity:0.75;fill:#9780e8;fill-opacity:1;stroke:#999eff;stroke-width:0.16363654;stroke-miterlimit:4;stroke-dasharray:none;stroke-opacity:1"
       id="path2995"
       d="m 138.57414,271.5177 c -1.252,0.99243 -2.40173,2.06199 -3.46222,3.2045 -0.81559,0.96632 -1.47976,2.02971 -1.91225,3.16454 -0.23793,0.62434 -0.26855,0.84877 -0.4179,1.48473 -0.12406,0.67297 -0.22663,1.35596 -0.1167,2.03682 0.10628,0.65838 0.38469,1.28137 0.66953,1.894 0.58181,0.94393 1.39043,1.79166 2.48198,2.33286 0.19292,0.0957 0.39933,0.1699 0.59901,0.25484 1.07425,0.40685 2.22035,0.58818 3.37904,0.34243 0.27174,-0.0576 0.53049,-0.15322 0.79574,-0.22983 0.2631,-0.12125 1.05851,-0.47483 0.78932,-0.36374 -0.50778,0.20956 -0.94321,0.62257 -1.5055,0.65931 -0.33679,0.022 0.49884,-0.39092 0.72129,-0.60807 0.75451,-0.73654 1.25458,-1.59222 1.76764,-2.45752 0.59984,-1.09909 1.03866,-2.26038 1.25371,-3.46065 0.13124,-0.73241 0.1153,-0.94612 0.1469,-1.68539 -0.004,-1.63514 -0.44378,-3.05829 -1.18422,-4.54928 -0.51505,-0.8861 -1.23501,-1.70353 -2.26938,-2.18448 -0.15164,-0.0705 -0.31404,-0.12264 -0.47108,-0.18396 -0.44062,-0.11278 -0.88163,-0.18001 -1.34007,-0.11651 -0.90707,0.12565 -2.67632,1.14324 1.24172,-0.74464 -0.6393,0.37655 -1.12944,0.90574 -1.60117,1.42583 -0.32456,0.35587 -0.56667,0.75329 -0.74784,1.17511 0,0 -2.49152,0.99752 -2.49152,0.99752 v 0 c 0.16718,-0.44658 0.40185,-0.86742 0.72104,-1.25097 0.48927,-0.52683 0.9647,-1.07141 1.56779,-1.51007 1.10041,-0.5343 2.4864,-1.59337 3.95325,-1.46249 0.41095,0.0367 0.56959,0.10004 0.96482,0.20832 0.1611,0.0709 0.32798,0.13289 0.4833,0.21264 1.04738,0.53784 1.79058,1.3911 2.32191,2.31552 0.74581,1.50677 1.2006,2.99566 1.21971,4.64457 -0.0236,0.75815 -0.004,0.96602 -0.1316,1.71815 -0.2071,1.22035 -0.6409,2.4016 -1.23672,3.523 -0.50686,0.87605 -0.99673,1.74908 -1.72051,2.51492 -1.17015,1.23817 -2.91167,1.91061 -4.5672,2.58078 -0.27716,0.0682 -0.54893,0.15499 -0.83144,0.20448 -1.20466,0.21098 -2.38579,-0.0172 -3.48347,-0.45128 -0.54505,-0.24883 -0.71754,-0.30123 -1.2094,-0.63461 -0.82982,-0.56245 -1.46151,-1.30816 -1.95807,-2.10003 -0.29803,-0.63325 -0.58856,-1.27617 -0.7098,-1.956 -0.12502,-0.7009 -0.0304,-1.40124 0.0966,-2.09585 0.14225,-0.63249 0.1808,-0.8996 0.40967,-1.52102 0.42577,-1.15589 1.09363,-2.23996 1.89578,-3.2356 1.02285,-1.13573 2.13457,-2.19823 3.34369,-3.19238 0,0 2.54471,-0.9005 2.54471,-0.9005 z"
       inkscape:connector-curvature="0" />
    <path
       style="opacity:0.75;fill:#9780e8;fill-opacity:1;stroke:#999eff;stroke-width:0.16363654;stroke-miterlimit:4;stroke-dasharray:none;stroke-opacity:1"
       id="path2997"
       d="m 146.14105,279.60899 c -0.0369,1.20856 -0.0344,2.41767 -0.0312,3.62653 0.0281,0.7019 0.13382,1.39888 0.23437,2.09516 0,0 -2.41085,1.07872 -2.41085,1.07872 v 0 c -0.085,-0.71006 -0.17813,-1.42 -0.2135,-2.13353 0.004,-1.19981 0.006,-2.39989 -0.0312,-3.59939 0,0 2.45236,-1.06749 2.45236,-1.06749 z"
       inkscape:connector-curvature="0" />
    <path
       style="opacity:0.75;fill:#9780e8;fill-opacity:1;stroke:#999eff;stroke-width:0.16363654;stroke-miterlimit:4;stroke-dasharray:none;stroke-opacity:1"
       id="path3001"
       d="m 174.02578,260.35502 c -0.0845,1.92418 -0.0543,3.85075 -0.16626,5.77429 -0.0445,0.76445 -0.11471,1.52766 -0.17209,2.29149 -0.39355,4.43116 -0.64689,8.8696 -0.77209,13.31191 -0.0468,1.60725 -0.0894,3.22756 0.26202,4.81354 0,0 -2.40736,1.09308 -2.40736,1.09308 v 0 c -0.30641,-1.63249 -0.19758,-3.29005 -0.10663,-4.9348 0.23801,-4.45282 0.52005,-8.90361 0.85349,-13.35201 0.0428,-0.75469 0.10289,-1.50882 0.12855,-2.26408 0.0641,-1.88748 -0.0265,-3.77682 -0.0773,-5.6636 0,0 2.45767,-1.06982 2.45767,-1.06982 z"
       inkscape:connector-curvature="0" />
    <path
       style="opacity:0.75;fill:#9780e8;fill-opacity:1;stroke:#999eff;stroke-width:0.16363654;stroke-miterlimit:4;stroke-dasharray:none;stroke-opacity:1"
       id="path3009"
       d="m 170.57873,277.48809 c -0.32241,-0.59707 -0.87562,-1.05211 -1.51003,-1.40778 -1.00015,-0.46237 -1.64223,-0.27408 -2.64121,0.0807 -0.23713,0.11397 -0.95251,0.44961 -0.71139,0.34192 0.49046,-0.21907 0.91925,-0.57374 1.45956,-0.6761 0.35505,-0.0673 -0.59002,0.36433 -0.86852,0.56413 -0.9041,0.6486 -1.67667,1.40809 -2.45272,2.16352 -1.12091,1.13875 -1.96436,2.29663 -2.4632,3.72201 -0.19233,0.63791 -0.28791,1.2978 0.0596,1.91079 0.0677,0.11929 0.15613,0.22911 0.23418,0.34366 0.7042,0.86808 1.72186,1.50101 2.75694,2.05619 0.82735,0.44672 1.74057,0.72725 2.70185,0.86292 0.19406,0 0.38219,0.0157 0.56986,-0.0424 0.0783,-0.0242 0.28812,-0.14298 0.21544,-0.10818 -3.62598,1.73604 -2.50327,1.34445 -1.75087,0.74284 0.49639,-0.45284 0.86866,-0.99126 1.28186,-1.49897 0.38352,-0.4639 0.73955,-0.94401 1.08381,-1.42972 0.24443,-0.26388 0.41737,-0.55857 0.58444,-0.86053 0.0739,-0.14142 0.10968,-0.2922 0.14487,-0.44299 0,0 2.4824,-1.03604 2.4824,-1.03604 v 0 c -0.0276,0.16529 -0.0554,0.33088 -0.11737,0.49007 -0.13518,0.32223 -0.31582,0.63716 -0.57357,0.90244 -0.37582,0.47504 -0.69661,0.98248 -1.097,1.44384 -0.41317,0.51294 -0.80203,1.04139 -1.24938,1.53273 -0.98123,0.89964 -2.34597,1.80521 -3.82391,1.6484 -0.96889,-0.17991 -1.88667,-0.49498 -2.72093,-0.95816 -1.06049,-0.58906 -2.11793,-1.23713 -2.8452,-2.13761 -0.0867,-0.12448 -0.18473,-0.24374 -0.26022,-0.37347 -0.38116,-0.65518 -0.33235,-1.36342 -0.12524,-2.05422 0.50053,-1.47962 1.34288,-2.65094 2.48971,-3.83979 0.77003,-0.76074 1.53563,-1.53241 2.42143,-2.19924 1.38864,-1.04536 3.05813,-1.76841 4.69468,-2.48978 0.21954,-0.0677 0.43394,-0.14904 0.6586,-0.20306 0.76176,-0.18316 1.49877,-0.062 2.16549,0.28679 0.65687,0.39663 1.22877,0.88299 1.60574,1.49786 0,0 -2.39974,1.16731 -2.39974,1.16731 z"
       inkscape:connector-curvature="0" />
    <path
       style="opacity:0.75;fill:#9780e8;fill-opacity:1;stroke:#999eff;stroke-width:0.16363654;stroke-miterlimit:4;stroke-dasharray:none;stroke-opacity:1"
       id="path3015"
       d="m 182.01597,269.92219 c -0.15135,1.79988 -0.18915,3.60471 -0.22697,5.40835 -0.0658,2.45177 0.009,4.90739 0.30822,7.34691 0.132,0.96892 0.31497,1.93222 0.43131,2.90271 0.0288,0.22659 0.0143,0.12752 0.0409,0.29746 0,0 -2.45777,1.09307 -2.45777,1.09307 v 0 c -0.009,-0.17815 -0.004,-0.0754 -0.0179,-0.30811 -0.08,-0.98283 -0.23036,-1.95987 -0.341,-2.9403 -0.25181,-2.45723 -0.28581,-4.92668 -0.26652,-7.39217 0.0105,-1.78031 0.0233,-3.56063 0.0774,-5.34044 0,0 2.45235,-1.06748 2.45235,-1.06748 z"
       inkscape:connector-curvature="0" />
    <path
       style="opacity:0.75;fill:#9780e8;fill-opacity:1;stroke:#999eff;stroke-width:0.16363654;stroke-miterlimit:4;stroke-dasharray:none;stroke-opacity:1"
       id="path3021"
       d="m 180.21429,274.03591 c 0.47583,-0.48595 0.9409,-0.98258 1.51418,-1.38746 1.24542,-0.70997 2.51365,-1.5842 4.05219,-1.50221 0.61133,0.0694 1.12871,0.32563 1.59457,0.65667 0.4355,0.28998 0.68623,0.73836 0.89703,1.16477 0.25039,0.47331 0.33544,0.98379 0.39363,1.49567 0.0366,0.42551 0.0639,0.85297 0.0316,1.27913 0,0 -2.46792,1.04928 -2.46792,1.04928 v 0 c 0.0617,-0.4118 0.0142,-0.83052 -0.001,-1.24419 -0.0459,-0.48967 -0.11708,-0.97896 -0.35794,-1.43115 -0.18735,-0.39669 -0.42091,-0.79933 -0.82739,-1.06406 -0.43784,-0.29498 -0.92105,-0.51302 -1.49186,-0.52602 -1.31081,0.0479 -2.37979,0.872 1.00824,-0.86964 0.0915,-0.0471 -0.1897,0.0843 -0.28452,0.12648 -0.60963,0.3529 -1.04989,0.84808 -1.52784,1.32016 0,0 -2.53311,0.93257 -2.53311,0.93257 z"
       inkscape:connector-curvature="0" />
    <path
       style="opacity:0.75;fill:#9780e8;fill-opacity:1;stroke:#999eff;stroke-width:0.16363654;stroke-miterlimit:4;stroke-dasharray:none;stroke-opacity:1"
       id="path3023"
       d="m 194.42611,271.80341 c -0.59686,1.48344 -0.93891,3.02139 -1.23756,4.56516 -0.2789,1.90626 -0.5641,3.83124 -0.54274,5.75697 0.004,0.28845 0.0301,0.57636 0.0452,0.86454 0.0901,0.98774 0.16843,2.00432 0.90748,2.81019 0.4474,0.39838 1.02208,0.42059 1.62588,0.34717 0.77621,-0.15838 1.51472,-0.43953 2.22267,-0.74974 0.80016,-0.44973 2.65519,-1.02261 -1.18232,0.55095 -0.14488,0.0594 0.24588,-0.17697 0.36452,-0.26959 0.3673,-0.28674 0.38407,-0.31863 0.72613,-0.64174 0.76922,-0.74668 1.31062,-1.62062 1.75403,-2.53309 0.39171,-0.84418 0.47915,-1.74658 0.5312,-2.64397 0.0276,-0.73606 0.0204,-1.47274 0.0117,-2.20903 0.0177,-0.46831 0.0925,-0.93293 0.1329,-1.39999 0.0341,-0.3423 0.0179,-0.68646 0.0502,-1.02858 0.0682,-0.35647 0.11866,-0.71456 0.14721,-1.07489 0.0228,-0.32038 0.0377,-0.63932 -0.0179,-0.95732 -0.0268,-0.14158 -0.0569,-0.30676 -0.0883,-0.43324 0,0 2.41824,-1.17652 2.41824,-1.17652 v 0 c 0.0783,0.15852 0.0605,0.33892 0.1112,0.50462 0.0678,0.33428 0.0753,0.6658 0.0446,1.0047 -0.0241,0.36426 -0.0656,0.72736 -0.138,1.08717 -0.0685,0.33573 -0.0172,0.68134 -0.0617,1.02016 -0.0394,0.46463 -0.10851,0.92643 -0.15786,1.39022 0,0.74297 0.004,1.48608 -0.0268,2.22875 -0.0439,0.91876 -0.11448,1.84561 -0.49494,2.71589 -0.42632,0.93356 -0.96141,1.82713 -1.7148,2.60262 -0.23611,0.24154 -0.75525,0.78126 -1.05953,0.95025 -1.12806,0.62645 -2.27943,1.24223 -3.48051,1.76719 -0.73281,0.29663 -1.48479,0.59231 -2.2949,0.68948 -0.68962,0.0275 -1.31053,-0.0759 -1.77779,-0.54677 -0.0764,-0.0896 -0.16253,-0.17361 -0.22915,-0.26869 -0.5645,-0.80568 -0.59577,-1.79408 -0.67995,-2.70019 -0.0122,-0.29507 -0.0366,-0.58995 -0.0365,-0.88519 0.001,-1.93793 0.30496,-3.872 0.55296,-5.79395 0.13014,-0.73283 0.25282,-1.47917 0.41878,-2.20742 0.19619,-0.86088 0.19919,-0.75455 0.42436,-1.51949 0.48982,-1.66406 -0.1385,0.40841 0.2341,-0.81436 0,0 2.49807,-1.00227 2.49807,-1.00227 z"
       inkscape:connector-curvature="0" />
    <path
       style="opacity:0.75;fill:#9780e8;fill-opacity:1;stroke:#999eff;stroke-width:0.16363654;stroke-miterlimit:4;stroke-dasharray:none;stroke-opacity:1"
       id="path3025"
       d="m 202.09371,280.52264 c -0.0291,0.85938 -0.0197,1.71927 -0.0157,2.57889 0.0217,0.52017 -0.032,1.04441 0.0603,1.56056 0.0709,0.29551 0.10886,0.59465 0.12902,0.89544 0.0427,0.20508 0.0836,0.41312 0.15469,0.61261 0,0 -2.42592,1.13964 -2.42592,1.13964 v 0 c -0.0871,-0.21703 -0.12178,-0.44643 -0.1857,-0.66931 -0.015,-0.29365 -0.0439,-0.58649 -0.11284,-0.87505 -0.0988,-0.53261 -0.0378,-1.07048 -0.0455,-1.60784 0.004,-0.85502 0.0135,-1.71034 -0.0158,-2.56513 0,0 2.45768,-1.06981 2.45768,-1.06981 z"
       inkscape:connector-curvature="0" />
    <path
       style="opacity:0.75;fill:#9780e8;fill-opacity:1;stroke:#999eff;stroke-width:0.16363654;stroke-miterlimit:4;stroke-dasharray:none;stroke-opacity:1"
       id="path3027"
       d="m 229.88127,262.99085 c -0.51727,2.35655 -1.00578,4.71854 -1.34498,7.09945 -0.0992,0.69571 -0.17726,1.39347 -0.2659,2.09021 -0.40616,3.58201 -0.54022,7.18069 -0.58092,10.77758 -0.004,1.22965 0.002,2.46619 0.17192,3.68919 0,0 -2.43876,1.08406 -2.43876,1.08406 v 0 c -0.0797,-1.25621 -0.10687,-2.51603 -0.0426,-3.77323 0.13858,-3.61814 0.32182,-7.23657 0.68905,-10.84379 0.22187,-1.90674 0.23354,-2.15899 0.51699,-4.01928 0.21843,-1.4334 0.49692,-2.85894 0.73282,-4.29004 0.0437,-0.2648 0.0772,-0.53073 0.11588,-0.7961 0,0 2.44657,-1.01805 2.44657,-1.01805 z"
       inkscape:connector-curvature="0" />
    <path
       style="opacity:0.75;fill:#9780e8;fill-opacity:1;stroke:#999eff;stroke-width:0.16363654;stroke-miterlimit:4;stroke-dasharray:none;stroke-opacity:1"
       id="path3037"
       d="m 228.5912,282.51841 c 0.0929,0.0341 0.18718,0.0657 0.27871,0.10237 0.43971,0.17629 0.30813,0.153 0.8032,0.3172 0.55571,0.18431 1.11813,0.28716 1.70171,0.38231 1.24224,0.15515 2.50119,0.21696 3.75565,0.18236 0.49327,-0.0221 0.97608,-0.12098 1.43156,-0.28394 0.12536,-0.0449 0.48288,-0.21293 0.36521,-0.15483 -2.25198,1.11204 -2.55037,1.34388 -1.64533,0.72062 0.76625,-0.71353 1.13537,-1.65469 1.423,-2.57357 0.22799,-0.80881 0.28395,-1.63978 0.30873,-2.46813 -0.0377,-0.66023 -0.17493,-1.32845 -0.55185,-1.91494 -0.0799,-0.12438 -0.18184,-0.23747 -0.27274,-0.3562 -0.8974,-0.90277 -2.17012,-1.4161 -3.42647,-1.86042 -1.16673,-0.35761 -2.23095,-0.65904 -3.46599,-0.40846 -0.10956,0.0439 -0.22248,0.0821 -0.32856,0.13182 -0.10172,0.0476 -0.39537,0.20699 -0.29366,0.15943 0.69295,-0.32384 1.36401,-0.68225 2.06773,-0.98858 0.1084,-0.0472 -0.18453,0.13567 -0.27276,0.20727 -0.25006,0.20295 -0.32513,0.28451 -0.55592,0.50602 -0.54615,0.50122 -1.02782,1.04914 -1.46815,1.62024 -0.19724,0.27022 -0.41608,0.53194 -0.5436,0.8331 0,0 -2.49563,1.01712 -2.49563,1.01712 v 0 c 0.0782,-0.34191 0.31039,-0.61987 0.5243,-0.91112 0.45697,-0.56952 0.90374,-1.14951 1.46672,-1.64979 0.16638,-0.17132 0.5911,-0.63723 0.79976,-0.7521 0.979,-0.53901 2.09415,-1.26776 3.28362,-1.58137 1.21514,-0.13706 2.38156,0.16948 3.50587,0.54833 1.30175,0.47295 2.63351,1.00145 3.54971,1.9565 0.0976,0.12858 0.206,0.25165 0.29283,0.38576 0.39892,0.61607 0.56256,1.30887 0.61911,2.0041 -0.0228,0.84656 -0.0767,1.69494 -0.29996,2.52333 -0.27443,0.9486 -0.64706,1.90127 -1.33921,2.69196 -1.04355,0.87529 -0.33652,0.3267 -3.02311,1.61025 -0.55185,0.26365 -1.22981,0.31319 -1.84389,0.3522 -1.26553,0.0113 -2.53379,-0.051 -3.7838,-0.22684 -1.00001,-0.17569 -1.95532,-0.44059 -2.87367,-0.82527 0,0 2.30688,-1.29673 2.30688,-1.29673 z"
       inkscape:connector-curvature="0" />
    <path
       style="opacity:0.75;fill:#9780e8;fill-opacity:1;stroke:#999eff;stroke-width:0.16363654;stroke-miterlimit:4;stroke-dasharray:none;stroke-opacity:1"
       id="path3045"
       d="m 244.54139,276.31401 c 1.98399,0.19834 3.98536,0.22771 5.98054,0.26189 0.95202,-0.0206 1.91396,-0.0459 2.8518,-0.20323 0.22925,-0.0385 0.45755,-0.0846 0.67929,-0.14747 0.18268,-0.0518 0.69501,-0.28018 0.53023,-0.19526 -0.63275,0.32607 -1.29162,0.61364 -1.93742,0.92046 0.45068,-0.30796 0.78776,-0.79323 0.7144,-1.30712 -0.014,-0.0981 -0.0604,-0.19079 -0.0906,-0.2862 -0.0719,-0.0968 -0.12759,-0.20388 -0.21574,-0.29028 -0.7274,-0.71315 -1.92569,-0.88421 -2.94899,-1.04548 -0.93276,-0.0752 -1.85128,0.0223 -2.71952,0.33456 -0.31944,0.11488 -1.23279,0.54147 -0.92039,0.41324 0.45733,-0.18772 0.84987,-0.62908 1.35537,-0.59177 0.37559,0.0277 -0.57276,0.41893 -0.85911,0.6284 -1.28818,1.03417 -2.30763,2.28681 -2.92007,3.70732 -0.10055,0.23325 -0.17562,0.47397 -0.26341,0.71096 -0.27948,0.9161 -0.42551,1.92155 0.007,2.82422 0.0684,0.1428 0.16361,0.27509 0.24545,0.41264 0.7256,0.9023 1.85046,1.40975 2.99502,1.83488 1.01748,0.33651 2.07219,0.55317 3.15426,0.65772 0.43633,-0.011 1.12645,0.13394 1.54605,0.0218 0.0715,-0.0191 0.13333,-0.0584 0.2,-0.0876 0.95401,-0.49464 -0.10828,0.0584 -1.91537,0.92653 -0.0763,0.0367 0.14781,-0.0801 0.22123,-0.12085 0.22099,-0.12252 0.42862,-0.24997 0.6327,-0.3922 1.01922,-0.83555 2.23457,-1.28015 3.49119,-1.89527 -4.00872,2.02988 -2.2442,1.24742 -1.49585,0.5557 0.0499,-0.0424 0.0996,-0.0847 0.14948,-0.12713 0,0 2.55176,-0.89869 2.55176,-0.89869 v 0 c -0.0505,0.0405 -0.1009,0.0809 -0.15133,0.12131 -0.14472,0.11806 -0.25416,0.273 -0.40197,0.38492 -0.0439,0.0333 -0.10406,0.0479 -0.14965,0.0795 -0.0471,0.0326 -0.0843,0.0745 -0.12636,0.11172 -0.84259,0.41643 -1.68516,0.83286 -2.52774,1.24928 4.0793,-2.0248 2.56673,-1.32208 1.7929,-0.88975 -0.21468,0.11994 -0.38932,0.27983 -0.58485,0.4199 -0.25171,0.21399 -0.52954,0.39534 -0.83666,0.54931 -2.58469,1.29582 -1.67214,0.95689 -2.82534,1.37212 -0.59279,0.10091 -1.202,0.01 -1.79787,-0.0344 -1.09,-0.13158 -2.15187,-0.37386 -3.17328,-0.72837 -1.19306,-0.46124 -2.35442,-1.01051 -3.10441,-1.96241 -0.0889,-0.1487 -0.19245,-0.29162 -0.26655,-0.44611 -0.4533,-0.94523 -0.33137,-2.00163 -0.0434,-2.96521 0.0872,-0.24428 0.16118,-0.49232 0.26167,-0.73284 0.60477,-1.44719 1.60706,-2.74065 2.89415,-3.8104 1.6572,-1.28551 0.84491,-0.73869 4.01257,-2.29783 1.15711,-0.56954 2.44709,-0.78112 3.76808,-0.6446 1.10763,0.18732 2.33499,0.40493 3.11032,1.17983 0.10383,0.10377 0.1734,0.22936 0.26011,0.34405 0.0428,0.1141 0.103,0.22448 0.12859,0.3423 0.12106,0.55693 -0.1804,1.13203 -0.61413,1.52901 -0.91162,0.45088 -1.80826,0.92462 -2.73487,1.35264 -0.28167,0.13011 -0.93646,0.24315 -1.22274,0.28242 -0.93646,0.12846 -1.89002,0.14436 -2.83592,0.14981 -2.03145,-0.04 -4.06581,-0.0718 -6.09084,-0.22587 0,0 2.24031,-1.35214 2.24031,-1.35214 z"
       inkscape:connector-curvature="0" />
    <path
       style="opacity:0.75;fill:#9780e8;fill-opacity:1;stroke:#999eff;stroke-width:0.16363654;stroke-miterlimit:4;stroke-dasharray:none;stroke-opacity:1"
       id="path3047"
       d="m 261.04582,272.16072 c -0.0451,1.41075 -0.0441,2.8223 -0.0549,4.23346 -0.0197,2.07971 -0.008,4.15948 0.005,6.23919 -0.006,1.25949 0.004,2.51716 0.11401,3.77338 0.0308,0.27309 0.079,0.54017 0.17438,0.80173 0,0 -2.41724,1.12924 -2.41724,1.12924 v 0 c -0.0961,-0.28238 -0.14769,-0.56826 -0.17449,-0.86215 -0.0775,-1.27156 -0.0788,-2.5428 -0.0544,-3.81589 0.0128,-2.08114 0.0246,-4.16233 0.005,-6.24349 -0.0105,-1.39522 -0.009,-2.79085 -0.0549,-4.18565 0,0 2.45766,-1.06982 2.45766,-1.06982 z"
       inkscape:connector-curvature="0" />
    <path
       style="opacity:0.75;fill:#9780e8;fill-opacity:1;stroke:#999eff;stroke-width:0.16363654;stroke-miterlimit:4;stroke-dasharray:none;stroke-opacity:1"
       id="path3051"
       d="m 259.61322,275.83721 c 0.46558,-0.52487 0.95612,-1.03135 1.49946,-1.49868 1.87204,-1.26982 2.85867,-1.59419 4.87609,-1.70889 0.74039,-0.0652 1.44492,-0.026 2.12304,0.24281 0.66192,0.36746 0.89633,1.0237 1.18292,1.61584 0.39996,0.75321 0.66679,1.55099 0.91357,2.34876 0.24492,0.78108 0.2687,1.5887 0.28941,2.39156 0.0152,0.81846 0.0219,1.63708 0.021,2.45566 0,0.57021 0.004,1.14042 0.004,1.71063 -0.0105,0.44096 0.0617,0.87901 0.17641,1.30776 0.10465,0.34407 0.15759,0.6958 0.18551,1.04973 0.0143,0.19394 0.0117,0.38831 0.0216,0.58234 0,0 -2.46904,1.07698 -2.46904,1.07698 v 0 c 0.007,-0.19185 0,-0.38377 -0.007,-0.57555 -0.0197,-0.34256 -0.0597,-0.68409 -0.1581,-1.01763 -0.11952,-0.44509 -0.20986,-0.8997 -0.19806,-1.35805 0,-0.57226 0.006,-1.14451 0.0105,-1.71675 0.004,-0.81914 0.017,-1.63836 0,-2.45746 -0.0246,-0.78411 -0.0527,-1.57359 -0.27133,-2.33956 -0.23401,-0.78919 -0.49493,-1.57745 -0.89583,-2.31841 -0.26681,-0.531 -0.46421,-1.15137 -1.09191,-1.4536 -0.65338,-0.22041 -1.33482,-0.21564 -2.02801,-0.16168 -0.4595,0.0341 -0.91932,0.0666 -1.36692,0.16889 -0.13892,0.0317 -0.52936,0.18351 -0.40987,0.11514 1.02445,-0.58616 2.82518,-1.395 1.6258,-0.85191 -0.54983,0.44829 -1.0526,0.93229 -1.4981,1.45949 0,0 -2.53313,0.93258 -2.53313,0.93258 z"
       inkscape:connector-curvature="0" />
    <path
       style="opacity:0.75;fill:#9780e8;fill-opacity:1;stroke:#999eff;stroke-width:0.16363654;stroke-miterlimit:4;stroke-dasharray:none;stroke-opacity:1"
       id="path3053"
       d="m 281.36271,273.78332 c -0.88507,0.58522 -1.50619,1.36965 -2.10508,2.16328 -0.57102,0.77604 -1.09646,1.57597 -1.54703,2.40797 -0.30105,0.57662 -0.42884,1.19464 -0.48601,1.81932 -0.0719,0.52914 0.0246,1.02809 0.22809,1.52634 0.23022,0.52763 0.66927,0.93997 1.12942,1.32977 0.45926,0.38209 0.97938,0.63413 1.5986,0.76376 0.8304,0.13249 1.67053,0.18812 2.5131,0.22394 0.82683,0.0456 1.52893,0.0597 2.3232,-0.16004 0.90407,-0.36027 1.12041,-0.45342 -1.85949,0.91741 -0.0858,0.0395 0.1594,-0.0965 0.23149,-0.15246 0.25057,-0.19469 0.40541,-0.42903 0.56652,-0.67909 0.3779,-0.65229 0.62292,-1.3522 0.871,-2.04627 0.2575,-0.73786 0.5461,-1.46535 0.72998,-2.21997 0.1751,-0.76997 0.20352,-1.32889 -0.0606,-2.08285 -0.34634,-0.66819 -0.91877,-1.22204 -1.56013,-1.69586 -0.45306,-0.32509 -0.97605,-0.52559 -1.55441,-0.61243 -0.48861,-0.004 -0.9436,0.12074 -1.40454,0.24032 -0.49917,0.1665 -1.01516,0.2813 -1.54574,0.34114 -1.03169,0.0791 -3.12534,1.30987 1.2422,-0.81144 -0.30272,0.13803 -0.50267,0.31006 -0.60439,0.58958 0,0 -2.49266,1.02396 -2.49266,1.02396 v 0 c 0.0631,-0.31437 0.17555,-0.59523 0.52266,-0.7587 1.26533,-0.62384 2.16507,-1.32934 3.53844,-1.45774 0.5189,-0.0799 1.01854,-0.21657 1.51698,-0.36189 0.48505,-0.11938 0.98495,-0.22383 1.49202,-0.14876 0.60106,0.13202 1.14303,0.37366 1.61457,0.72218 0.664,0.51457 1.25255,1.1072 1.6278,1.80883 0.29546,0.77687 0.3018,1.38425 0.12459,2.18618 -0.17332,0.76303 -0.45692,1.49678 -0.71955,2.23987 -0.24341,0.70357 -0.49555,1.40819 -0.83945,2.08123 -0.0891,0.15754 -0.20912,0.38323 -0.32195,0.53124 -0.71923,0.94333 -2.08872,1.4057 -3.29246,1.77515 -0.77897,0.15409 -1.56476,0.13731 -2.35926,0.0884 -0.8595,-0.0437 -1.72157,-0.0965 -2.56448,-0.25528 -0.64108,-0.1706 -1.19516,-0.45873 -1.67207,-0.86652 -0.48452,-0.41802 -0.94496,-0.85916 -1.19099,-1.41891 -0.2237,-0.5232 -0.35934,-1.05012 -0.28307,-1.6107 0.0453,-0.65107 0.17099,-1.29618 0.46407,-1.90291 0.44118,-0.84667 0.9749,-1.65543 1.54486,-2.44345 0.58866,-0.79303 1.17349,-1.60158 2.03026,-2.20798 0,0 2.55356,-0.88666 2.55356,-0.88666 z"
       inkscape:connector-curvature="0" />
    <path
       style="opacity:0.75;fill:#9780e8;fill-opacity:1;stroke:#999eff;stroke-width:0.16363654;stroke-miterlimit:4;stroke-dasharray:none;stroke-opacity:1"
       id="path3055"
       d="m 287.99979,278.81076 c -0.0192,0.67016 -0.0132,1.34061 -0.0117,2.0109 6e-5,0.51716 0.006,1.03431 0.009,1.55146 0.004,0.35159 0.002,0.70318 0,1.05477 -2e-5,0.34991 0,0.69982 0.002,1.04972 0.008,0.15762 0.0438,0.31277 0.0739,0.46803 0,0 -2.44047,1.10601 -2.44047,1.10601 v 0 c -0.0327,-0.16741 -0.0693,-0.33432 -0.0945,-0.50274 0,-0.3503 0.002,-0.7006 0.002,-1.0509 0,-0.35189 -0.002,-0.70379 0,-1.05568 0.004,-0.51984 0.009,-1.03967 0.009,-1.55953 0.002,-0.66701 0.008,-1.33419 -0.0117,-2.00107 0,0 2.46033,-1.07097 2.46033,-1.07097 z"
       inkscape:connector-curvature="0" />
    <path
       style="opacity:0.75;fill:#9780e8;fill-opacity:1;stroke:#999eff;stroke-width:0.25283918;stroke-miterlimit:4;stroke-dasharray:none;stroke-opacity:1"
       id="path2642-4"
       d="m 209.27524,275.38829 c 1.28445,0.008 2.56668,0.0241 3.84972,0.0742 1.46922,0.0801 2.93283,0.20527 4.39756,0.32531 0.82654,0.11165 1.69332,0.004 2.50023,0.2017 0.86508,0.35784 -0.2802,1.05114 -0.63229,1.32346 -1.52487,1.25393 -3.25113,2.31231 -4.95581,3.39242 -1.48512,0.98986 -2.99509,1.95674 -4.43727,2.98873 -0.39002,0.33033 -1.02854,0.64722 -1.1311,1.13872 0.0105,0.0259 0.0105,0.0566 0.0324,0.0774 0.12878,0.12292 1.28749,0.16858 1.45047,0.18242 1.80078,0.0967 3.6039,0.17029 5.40666,0.23997 1.31504,0.0483 2.63112,0.0721 3.94738,0.0769 0.31752,1.8e-4 0.63496,1.8e-4 0.95251,-1.7e-4 0,0 -2.48035,1.47333 -2.48035,1.47333 v 0 c -0.31323,-0.003 -0.62649,-0.003 -0.93964,-0.0106 -1.29295,-0.0299 -2.5852,-0.0762 -3.87708,-0.1284 -1.82322,-0.0762 -3.64705,-0.13953 -5.47026,-0.215 -0.61873,-0.039 -1.50343,0.02 -1.77058,-0.55163 -0.009,-0.062 -0.0267,-0.12429 -0.0192,-0.1863 0.061,-0.4978 0.72927,-0.84869 1.10977,-1.16873 1.47325,-1.04802 3.02663,-2.01751 4.53148,-3.03463 1.67028,-1.06454 3.38644,-2.08574 4.86273,-3.33642 0.30676,-0.23663 0.60859,-0.50923 0.93843,-0.72611 0.0276,-0.018 0.0686,-0.0185 0.0943,-0.0379 0.041,-0.0311 -0.22965,-0.16955 -0.14089,-0.073 -0.79413,-0.14348 -1.62675,-0.0833 -2.4279,-0.19749 -1.45104,-0.13434 -2.90295,-0.25975 -4.36159,-0.3274 -1.30473,-0.0414 -2.60927,-0.053 -3.9148,-0.0225 0,0 2.4855,-1.47734 2.4855,-1.47734 z"
       inkscape:connector-curvature="0" />
    <path
       style="opacity:0.75;fill:#9780e8;fill-opacity:1;stroke:#999eff;stroke-width:0.25283918;stroke-miterlimit:4;stroke-dasharray:none;stroke-opacity:1"
       id="path2644-3"
       d="m 215.41433,270.2811 c 0.1112,0.65624 0.46249,1.22882 0.85992,1.79441 0.18517,0.15695 0.57909,0.72289 0.89835,0.68236 0.0495,-0.006 0.0829,-0.0451 0.1242,-0.0676 0.92919,-0.53921 0,0.006 -2.37185,1.08221 -0.0581,0.0264 0.10757,-0.063 0.16059,-0.0956 0.17726,-0.10861 0.32564,-0.23389 0.48316,-0.36079 0.33267,-0.29204 0.71442,-0.54026 1.073,-0.80954 0.26629,-0.19965 0.52063,-0.40888 0.78855,-0.60708 0.23944,-0.19061 0.46011,-0.39644 0.70419,-0.58291 0.18223,-0.12748 0.0895,-0.0678 0.27757,-0.17973 0,0 2.86138,-0.94181 2.86138,-0.94181 v 0 c -0.17496,0.12947 -0.0809,0.0733 -0.28201,0.16936 -0.25555,0.1769 -0.47505,0.37435 -0.71527,0.56347 -0.23347,0.23279 -0.54707,0.4004 -0.78403,0.63179 -0.37376,0.25162 -0.73585,0.51737 -1.08139,0.795 -0.10559,0.0854 -0.21748,0.16602 -0.3168,0.25631 -0.0504,0.0455 -0.0857,0.1019 -0.14106,0.14379 -0.0467,0.0358 -0.10605,0.0594 -0.16132,0.0859 -2.81406,1.35251 -1.72599,1.18607 -2.97113,1.35528 -0.56537,-0.10327 -0.86576,-0.51285 -1.19158,-0.87384 -0.39869,-0.58934 -0.75652,-1.18406 -0.92349,-1.85011 0,0 2.70902,-1.19098 2.70902,-1.19098 z"
       inkscape:connector-curvature="0" />
    <path
       style="opacity:0.75;fill:#9780e8;fill-opacity:1;stroke:#999eff;stroke-width:0.16943234;stroke-miterlimit:4;stroke-dasharray:none;stroke-opacity:1"
       id="path2499-1"
       d="m 310.00814,273.16646 c -1.35793,0.0728 -2.59047,0.34474 -3.84737,0.56695 -0.22892,0.0472 -0.45913,0.0933 -0.68677,0.1417 -0.21824,0.0464 -0.43602,0.0934 -0.65069,0.14295 -0.19758,0.0456 -0.77837,0.19268 -0.5859,0.14285 0.93557,-0.2422 1.86844,-0.48663 2.81514,-0.71998 0.30875,-0.0761 -0.57648,0.18183 -0.85166,0.28027 -0.77813,0.27596 -1.39911,0.61629 -2.00226,0.96531 -0.57294,0.36741 -1.1053,0.7473 -1.60291,1.13591 -0.44717,0.3298 -0.70761,0.69777 -0.99121,1.05915 -0.30586,0.34856 -0.39967,0.71902 -0.45489,1.08942 -0.0474,0.39857 -0.0461,0.79788 -0.0409,1.19686 0.004,0.34435 0.007,0.6887 0.009,1.03305 -0.004,0.35142 -0.002,0.70284 -0.004,1.05426 -0.0382,0.34871 0.0508,0.69103 0.21781,1.03083 0.12227,0.30123 0.2545,0.58912 0.63401,0.84752 0.32316,0.23294 0.73883,0.43653 1.07178,0.66577 0.42144,0.24985 1.00605,0.42214 1.54979,0.61383 0.69885,0.222 1.37038,0.46445 2.10502,0.66246 0.66476,0.22495 1.33164,0.44791 2.05702,0.6332 0.54291,0.13415 1.1422,0.17434 1.75151,0.19036 0.56327,0.0177 1.10709,-0.0892 1.60615,-0.19716 1.35423,-0.24386 0.50542,-0.0968 -2.88453,0.74903 -0.0924,0.023 0.17814,-0.0508 0.26478,-0.0778 0.26283,-0.0822 0.51671,-0.17053 0.77713,-0.2542 0.5338,-0.15742 1.05078,-0.3263 1.55315,-0.50308 0.47816,-0.17349 0.95104,-0.35032 1.44091,-0.51723 0.49452,-0.14011 0.92848,-0.31201 1.34932,-0.49262 0.39172,-0.17736 0.75146,-0.36693 1.07286,-0.57038 0.34873,-0.19548 0.64633,-0.40071 0.88031,-0.62747 0.24161,-0.25934 0.52153,-0.51069 0.80629,-0.76091 0.30947,-0.27199 0.62024,-0.54279 0.90243,-0.82077 0.20527,-0.23854 0.35702,-0.48491 0.56051,-0.72398 0.16942,-0.23116 0.33732,-0.46366 0.46305,-0.70049 0.1825,-0.28608 0.29146,-0.57776 0.35523,-0.87338 0.048,-0.25719 0.0519,-0.51538 0.0543,-0.77327 0.004,-0.2353 0.0183,-0.46917 -0.0627,-0.70211 -0.0474,-0.3015 -0.24531,-0.58599 -0.43825,-0.87328 -0.1736,-0.25712 -0.36134,-0.50969 -0.46706,-0.77481 -0.004,-0.28702 -0.25185,-0.50881 -0.59517,-0.74011 -0.29152,-0.22456 -0.72892,-0.39471 -1.08929,-0.59551 -0.43038,-0.20976 -0.9333,-0.38363 -1.42124,-0.56649 -0.52025,-0.21584 -1.09576,-0.40131 -1.64065,-0.60411 -0.45916,-0.13356 -0.91244,-0.27029 -1.36727,-0.40673 -0.36601,-0.11298 -0.70758,-0.23799 -1.13571,-0.29939 -0.57039,-0.0527 -1.1547,-0.0341 -1.72775,-0.0728 -0.59598,-0.034 -1.20094,-0.10107 -1.80187,-0.0644 -0.57813,0.0416 -1.09855,0.16503 -1.66155,0.23463 0.66817,-0.21178 -1.52085,0.3741 -0.77418,0.18175 5.55713,-1.43143 3.77941,-1.05346 2.72934,-0.65948 -0.38093,0.16393 -0.82265,0.29568 -1.19865,0.46138 -0.44824,0.16875 -0.83852,0.3563 -1.1788,0.56903 -0.25858,0.16502 -0.1272,0.0833 -0.39428,0.245 0,0 -3.60876,0.70239 -3.60876,0.70239 v 0 c 0.24511,-0.17069 0.11097,-0.0921 0.39865,-0.23707 0.28611,-0.23501 0.66254,-0.43807 1.12622,-0.60857 0.71643,-0.28747 -0.39771,0.16582 0.35063,-0.16139 0.25997,-0.11364 0.60269,-0.18333 0.85209,-0.30378 1.33086,-0.58726 3.08311,-0.96428 4.81457,-1.26533 0.56484,-0.0852 1.11744,-0.19945 1.72565,-0.2019 0.61627,0.007 1.223,0.0541 1.8332,0.0902 0.60354,0.0206 1.22231,0.0156 1.80105,0.1061 0.42789,0.0876 0.79869,0.21574 1.18631,0.3338 0.45053,0.14492 0.92638,0.27305 1.36693,0.42399 0.54867,0.20075 1.11495,0.39176 1.64042,0.60494 0.51056,0.18848 1.02975,0.37158 1.47208,0.59309 0.37187,0.20327 0.80976,0.3815 1.10679,0.61087 0.36442,0.24857 0.6717,0.4967 0.67748,0.80405 0.0885,0.26041 0.27237,0.50595 0.43544,0.758 0.18951,0.29372 0.42131,0.58179 0.47169,0.88935 0.0963,0.2422 0.11237,0.48261 0.0931,0.72869 -0.004,0.26303 -0.005,0.52631 -0.0479,0.78878 -0.0565,0.30014 -0.13293,0.60076 -0.32528,0.89054 -0.10629,0.24684 -0.29135,0.48274 -0.43985,0.72463 -0.20193,0.24234 -0.40317,0.48347 -0.55604,0.73319 -0.26699,0.28307 -0.57663,0.5561 -0.90294,0.82619 -0.24959,0.25669 -0.58208,0.49646 -0.80367,0.75867 -0.23993,0.23413 -0.45845,0.46255 -0.83428,0.66192 -0.36497,0.19347 -0.65335,0.41627 -1.06213,0.59488 -0.41234,0.18426 -0.8136,0.38442 -1.32691,0.5129 -0.49413,0.16543 -0.98444,0.33451 -1.44609,0.51572 -0.50949,0.17423 -1.00503,0.35627 -1.54217,0.51427 -0.27086,0.0754 -0.53338,0.15799 -0.78531,0.24574 -0.0852,0.0296 -0.154,0.0691 -0.2469,0.0935 -1.20538,0.31751 -2.42393,0.62498 -3.64363,0.93139 -0.0788,0.0197 -0.16677,0.0311 -0.25019,0.0467 -0.56081,0.0912 -1.1137,0.17128 -1.72121,0.12806 -0.64726,-0.0344 -1.27167,-0.10623 -1.83366,-0.2603 -0.71249,-0.19554 -1.38433,-0.41653 -2.05694,-0.63807 -0.73244,-0.21145 -1.42869,-0.44766 -2.13449,-0.67636 -0.57868,-0.20219 -1.19047,-0.39076 -1.6292,-0.65915 -0.33812,-0.22811 -0.74632,-0.43433 -1.06792,-0.66784 -0.39828,-0.27781 -0.5865,-0.5795 -0.69399,-0.90467 -0.17283,-0.35105 -0.30739,-0.70375 -0.25447,-1.06506 -0.004,-0.35074 -2e-5,-0.70147 -0.004,-1.0522 0.004,-0.3452 0,-0.69042 0.002,-1.03561 0.004,-0.40228 -0.006,-0.80479 0.0287,-1.20685 0.0522,-0.38285 0.11085,-0.76923 0.40148,-1.1338 0.31202,-0.36455 0.53639,-0.74595 0.96969,-1.08806 0.51276,-0.3926 1.04253,-0.7796 1.59987,-1.16013 0.60402,-0.35438 1.18144,-0.71692 1.96371,-0.99936 1.92278,-0.75505 4.30406,-1.23921 6.62126,-1.70798 1.29278,-0.22917 2.57626,-0.48555 3.97543,-0.55211 0,0 -3.1661,1.05144 -3.1661,1.05144 z"
       inkscape:connector-curvature="0" />
    <path
       style="opacity:0.75;fill:#9780e8;fill-opacity:1;stroke:#999eff;stroke-width:0.18012343;stroke-miterlimit:4;stroke-dasharray:none;stroke-opacity:1"
       id="path2501-7"
       d="m 329.25201,272.52514 c -0.0202,0.49127 -0.0179,0.98278 -0.0191,1.47415 0,0.45584 0.009,0.91165 0.0105,1.36748 0.004,0.33584 0.005,0.67168 0.008,1.0075 0.004,0.28117 0.004,0.56234 0.004,0.84352 9e-5,0.27633 0,0.55268 0,0.82903 0.004,0.29034 -0.004,0.58066 -0.004,0.87099 0.0382,0.33503 -0.0684,0.66456 -0.14621,0.99538 -0.0802,0.30255 -0.0721,0.60878 -0.12565,0.91234 -0.0914,0.27511 -0.16784,0.5507 -0.20802,0.82938 -0.0323,0.2743 -0.0335,0.54928 -0.035,0.82403 0,0.27686 0,0.55373 0,0.83061 0,0.27704 0,0.55407 0,0.83109 5e-5,0.18467 5e-5,0.36935 5e-5,0.55403 0,0 -3.41343,0.93284 -3.41343,0.93284 v 0 c 0,-0.18467 0,-0.36932 0,-0.55399 -4e-5,-0.27699 -7e-5,-0.55398 0,-0.83096 0,-0.27705 -0.004,-0.5541 -0.004,-0.83116 0,-0.27871 -4e-5,-0.55756 0.0238,-0.83606 0.0308,-0.28288 0.0851,-0.56476 0.19819,-0.84204 0.10149,-0.30009 0.0437,-0.61007 0.13461,-0.912 0.0723,-0.32372 0.19867,-0.64495 0.1649,-0.97234 -0.004,-0.28975 -0.005,-0.57952 -0.004,-0.86927 -4e-5,-0.27635 -4e-5,-0.55269 -4e-5,-0.82904 0,-0.28145 0,-0.56287 0.004,-0.84432 0.004,-0.33706 0.005,-0.67414 0.008,-1.01119 0,-0.45769 0.0105,-0.91535 0.0105,-1.37302 -0.004,-0.4879 0.004,-0.9759 -0.0191,-1.46369 0,0 3.41506,-0.93329 3.41506,-0.93329 z"
       inkscape:connector-curvature="0" />
    <path
       style="opacity:0.75;fill:#9780e8;fill-opacity:1;stroke:#999eff;stroke-width:0.18012343;stroke-miterlimit:4;stroke-dasharray:none;stroke-opacity:1"
       id="path2503-3"
       d="m 326.98516,275.37729 c 1.61359,-0.66797 3.39879,-1.22087 5.231,-1.69622 0.55565,-0.10716 1.13257,-0.19029 1.71106,-0.256 0.52446,-0.0487 1.03977,-0.0926 1.54009,0.0203 0.49426,0.0832 0.91756,0.24329 1.39015,0.35205 0.46036,0.12264 0.92171,0.24204 1.37981,0.36707 0.46414,0.091 0.83444,0.25356 1.17924,0.43811 0.41777,0.22893 0.76056,0.4938 1.09672,0.75757 0.37166,0.22363 0.70015,0.45893 0.91618,0.73598 0.23574,0.2693 0.35947,0.55538 0.421,0.84935 0.10172,0.27385 0.20555,0.54625 0.26135,0.8241 0.0505,0.28961 0.0483,0.58066 0.0494,0.8712 -0.005,0.34482 -0.004,0.68962 0,1.03442 -0.005,0.33235 0,0.6647 -0.004,0.99704 -0.005,0.35411 -0.004,0.70822 0,1.06236 0.0506,0.25507 0.15474,0.50533 0.20758,0.7605 0.0514,0.28403 0.0501,0.56959 0.052,0.85462 0.004,0.30681 0.004,0.61361 0.004,0.92043 5e-5,0.0476 5e-5,0.0953 10e-5,0.14288 0,0 -3.41238,0.93235 -3.41238,0.93235 v 0 c 0,-0.0478 0,-0.0954 0,-0.14308 0.004,-0.30679 0.005,-0.6136 0.004,-0.9204 -0.005,-0.27824 -0.005,-0.55686 -0.0435,-0.83449 -0.0459,-0.26311 -0.14494,-0.52076 -0.2153,-0.78198 0.004,-0.35422 0.005,-0.70844 0,-1.06265 -0.004,-0.33213 0.004,-0.66426 0,-0.9964 0.004,-0.34456 0.008,-0.68918 0.004,-1.03376 -0.004,-0.28408 -0.005,-0.56853 -0.0398,-0.85212 -0.0458,-0.2784 -0.1378,-0.552 -0.25489,-0.8243 -0.05,-0.27583 -0.14633,-0.54607 -0.37533,-0.79738 -0.19276,-0.26664 -0.53215,-0.48015 -0.86734,-0.69964 -0.32345,-0.25207 -0.65271,-0.50618 -1.06506,-0.71937 -0.32968,-0.16453 -0.69381,-0.2951 -1.11578,-0.38414 -0.46086,-0.11722 -0.90297,-0.25362 -1.37054,-0.36363 -0.45004,-0.11734 -0.88245,-0.25523 -1.36878,-0.32785 -0.4717,-0.0437 -0.95216,0.014 -1.41477,0.0661 -0.55805,0.0777 -1.12819,0.14611 -1.64268,0.29044 -1.33959,0.39003 -0.037,0.0132 2.61457,-0.81638 0.11495,-0.036 -0.23686,0.0656 -0.35125,0.102 -0.33816,0.10795 -0.6391,0.24214 -0.96268,0.36128 0,0 -3.55511,0.76964 -3.55511,0.76964 z"
       inkscape:connector-curvature="0" />
    <path
       style="opacity:0.75;fill:#9780e8;fill-opacity:1;stroke:#999eff;stroke-width:0.18012343;stroke-miterlimit:4;stroke-dasharray:none;stroke-opacity:1"
       id="path2505-1"
       d="m 339.04551,277.03566 c 0.29406,-0.35334 0.46476,-0.72997 0.74297,-1.08673 0.16755,-0.22233 0.44332,-0.40645 0.72475,-0.58876 1.23364,-0.66449 2.94879,-0.98575 4.48742,-1.40454 0.43676,-0.10411 0.84378,-0.23846 1.26728,-0.35661 0.43229,-0.0945 0.9036,-0.102 1.36372,-0.11113 0.59019,-0.0282 1.09323,0.10478 1.60693,0.23701 0.46508,0.10756 0.96337,0.14611 1.44421,0.22715 0.41155,0.10306 0.76128,0.24928 1.07295,0.42482 0.4187,0.21205 0.83556,0.42379 1.22667,0.65239 0.42262,0.24741 0.84595,0.49992 1.2388,0.76231 0.44448,0.27283 0.67115,0.61304 0.85442,0.95595 0.10617,0.35259 0.295,0.69236 0.47948,1.03471 0.12464,0.34672 0.28317,0.68984 0.40336,1.03708 0.0822,0.29634 0.23146,0.58444 0.30305,0.88182 0.0644,0.31421 0.0762,0.63049 0.0838,0.94628 0.005,0.30372 0,0.60743 0,0.91116 -4e-5,0.30026 0,0.60052 0.004,0.90078 0,0.27866 0,0.55734 0,0.836 3e-5,0.27676 3e-5,0.5535 3e-5,0.83025 0.0164,0.24771 -0.0609,0.49402 -0.22412,0.72541 0,0 -3.48659,0.86421 -3.48659,0.86421 v 0 c 0.16754,-0.20882 0.31929,-0.42399 0.29726,-0.65676 -9e-5,-0.27674 -9e-5,-0.55349 -9e-5,-0.83024 9e-5,-0.27881 0,-0.5576 0,-0.8364 0,-0.3008 0.004,-0.60161 0.005,-0.9024 0,-0.30275 -0.004,-0.60549 0,-0.90823 -0.004,-0.30887 -0.005,-0.61831 -0.0611,-0.92606 -0.0654,-0.29498 -0.21186,-0.57984 -0.29377,-0.87286 -0.10511,-0.34241 -0.26771,-0.67845 -0.37951,-1.02012 -0.17778,-0.34383 -0.39946,-0.67987 -0.4778,-1.03625 -0.15981,-0.31804 -0.37205,-0.63054 -0.78448,-0.88128 -0.38943,-0.25767 -0.80194,-0.50759 -1.21794,-0.75237 -0.39437,-0.22477 -0.82491,-0.42761 -1.24013,-0.64062 -0.28201,-0.14665 -0.5914,-0.27277 -0.96855,-0.3406 -0.49183,-0.0804 -1.0071,-0.1225 -1.4668,-0.25361 -0.48128,-0.11919 -0.96493,-0.18962 -1.50138,-0.15066 -0.44218,0.0211 -0.88132,0.0554 -1.26587,0.184 -0.41255,0.12608 -0.84394,0.23567 -1.27246,0.34528 -0.24551,0.0597 -0.23408,0.0552 -0.46827,0.11867 -0.0726,0.0197 -0.28634,0.0822 -0.21641,0.0602 5.62078,-1.77615 3.76584,-1.2526 2.7428,-0.84215 -0.32814,0.13954 -0.59192,0.33269 -0.79185,0.52863 -0.35462,0.33546 -0.49393,0.71623 -0.74247,1.0755 0,0 -3.48445,0.85882 -3.48445,0.85882 z"
       inkscape:connector-curvature="0" />
    <path
       style="opacity:0.75;fill:#9780e8;fill-opacity:1;stroke:#999eff;stroke-width:0.40992576;stroke-miterlimit:4;stroke-dasharray:none;stroke-opacity:1"
       id="path2740"
       d="m 364.25075,272.29464 c -0.0408,1.00014 -0.0375,2.00099 -0.0343,3.00146 -0.005,0.8552 0.0199,1.71033 0.0209,2.5655 0.004,0.51822 0.0105,1.03642 0.0144,1.55466 0,0.44855 -0.004,0.89708 -0.004,1.34562 0.004,0.40062 0.004,0.80122 0.005,1.20184 0,0.36278 0,0.72554 0,1.08832 5e-5,0.36033 0,0.72065 0,1.08099 0,0 -3.39305,1.21514 -3.39305,1.21514 v 0 c 0,-0.3603 -5e-5,-0.72064 -5e-5,-1.08096 5e-5,-0.36295 9e-5,-0.72589 0,-1.08883 0,-0.40161 0.004,-0.80321 0.005,-1.20483 0.004,-0.44809 -0.004,-0.89617 -0.004,-1.34425 0.005,-0.52161 0.0105,-1.0432 0.0144,-1.56481 0.004,-0.86017 0.0249,-1.7203 0.0211,-2.5805 0.004,-0.99227 0.007,-1.98494 -0.0342,-2.97685 0,0 3.38567,-1.2125 3.38567,-1.2125 z"
       inkscape:connector-curvature="0" />
    <path
       style="opacity:0.75;fill:#9780e8;fill-opacity:1;stroke:#999eff;stroke-width:0.40992576;stroke-miterlimit:4;stroke-dasharray:none;stroke-opacity:1"
       id="path2742"
       d="m 363.27536,275.77257 c 0.48951,-0.49035 1.06344,-0.92724 1.7408,-1.28981 1.30637,-0.61497 2.73944,-1.12888 4.08701,-1.66792 0.2622,-0.10491 0.52211,-0.18347 0.80663,-0.25256 0.5141,-0.10676 1.05169,-0.11801 1.5835,-0.12581 0.51445,-0.004 1.02888,-3.3e-4 1.54337,0.001 0.48042,-0.0206 0.90199,0.11603 1.29707,0.29236 0.39262,0.1711 0.71889,0.41357 1.0924,0.60939 0.37886,0.21724 0.50408,0.54384 0.64944,0.85689 0.1247,0.30044 0.17212,0.61096 0.27362,0.91535 0,0 -3.35117,1.2696 -3.35117,1.2696 v 0 c -0.1002,-0.29754 -0.1605,-0.59773 -0.26186,-0.89468 -0.12063,-0.26319 -0.20907,-0.54272 -0.53755,-0.71818 -0.34811,-0.19828 -0.67195,-0.42551 -1.06526,-0.57798 -0.37478,-0.13641 -0.75057,-0.20517 -1.17838,-0.18034 -0.51139,-0.003 -1.02302,-0.006 -1.53421,0.008 -0.51157,0.0193 -1.02531,0.0537 -1.50215,0.19648 -0.13853,0.0438 -1.44217,0.54517 -0.77894,0.27197 5.3254,-2.19358 3.56262,-1.43847 2.40005,-0.98395 -0.68484,0.33322 -1.31112,0.70944 -1.77183,1.20566 0,0 -3.49254,1.06464 -3.49254,1.06464 z"
       inkscape:connector-curvature="0" />
    <path
       style="opacity:0.75;fill:#9780e8;fill-opacity:1;stroke:#999eff;stroke-width:0.28575987;stroke-miterlimit:4;stroke-dasharray:none;stroke-opacity:1"
       id="path2642-4-9"
       d="m 409.98961,273.3642 c 1.88889,0.007 3.77468,0.0209 5.66163,0.0644 2.16083,0.0696 4.31325,0.17829 6.46749,0.28255 1.21548,0.097 2.49019,0.004 3.67692,0.17519 1.27228,0.3108 -0.412,0.91296 -0.9299,1.14949 -2.24256,1.08911 -4.7814,2.00837 -7.28841,2.94649 -2.18408,0.85975 -4.40474,1.69955 -6.52577,2.59589 -0.57365,0.2869 -1.5126,0.56214 -1.6634,0.98903 0.0161,0.0225 0.0154,0.0492 0.0472,0.0672 0.18931,0.10677 1.89362,0.14643 2.13318,0.15844 2.6483,0.084 5.30014,0.14791 7.95142,0.20843 1.93398,0.0419 3.86951,0.0626 5.80524,0.0668 0.467,1.8e-4 0.93399,1.8e-4 1.40092,-1.7e-4 0,0 -3.64773,1.27967 -3.64773,1.27967 v 0 c -0.46066,-0.003 -0.92138,-0.003 -1.38197,-0.009 -1.90149,-0.0259 -3.80195,-0.0661 -5.70182,-0.11152 -2.68151,-0.0661 -5.36366,-0.12118 -8.04504,-0.18674 -0.90993,-0.0339 -2.21108,0.0173 -2.60403,-0.47911 -0.0105,-0.0539 -0.0394,-0.10796 -0.0277,-0.16181 0.0898,-0.43237 1.07263,-0.73713 1.63207,-1.01512 2.16678,-0.91025 4.45126,-1.7523 6.66442,-2.63574 2.45635,-0.9246 4.98034,-1.81157 7.1515,-2.89785 0.45123,-0.20553 0.89502,-0.44229 1.3801,-0.63067 0.04,-0.0156 0.10078,-0.016 0.13826,-0.0329 0.0595,-0.027 -0.33778,-0.14727 -0.20713,-0.0634 -1.16792,-0.12462 -2.39239,-0.0724 -3.57072,-0.17153 -2.13407,-0.11669 -4.26925,-0.22561 -6.41437,-0.28437 -1.91888,-0.036 -3.83748,-0.046 -5.75739,-0.0196 0,0 3.65522,-1.28316 3.65522,-1.28316 z"
       inkscape:connector-curvature="0" />
    <path
       style="opacity:0.75;fill:#9780e8;fill-opacity:1;stroke:#999eff;stroke-width:0.28575987;stroke-miterlimit:4;stroke-dasharray:none;stroke-opacity:1"
       id="path2644-3-2"
       d="m 419.01817,268.92833 c 0.16359,0.56998 0.6802,1.06728 1.26478,1.55854 0.27219,0.13631 0.85154,0.62787 1.32118,0.59266 0.0723,-0.006 0.12172,-0.0392 0.18265,-0.0587 1.36646,-0.46832 0,0.006 -3.48828,0.93997 -0.0853,0.0229 0.15829,-0.0548 0.23615,-0.0831 0.26063,-0.0943 0.47887,-0.20314 0.71055,-0.31336 0.48936,-0.25365 1.05073,-0.46924 1.57801,-0.70313 0.39177,-0.17341 0.76573,-0.35513 1.15978,-0.52729 0.35205,-0.16555 0.67671,-0.34432 1.03566,-0.50627 0.26801,-0.11073 0.13162,-0.0589 0.4082,-0.15611 0,0 4.20808,-0.81802 4.20808,-0.81802 v 0 c -0.25727,0.11245 -0.11875,0.0636 -0.41473,0.1471 -0.37582,0.15365 -0.69861,0.32514 -1.05195,0.48941 -0.34333,0.20219 -0.8045,0.34777 -1.15306,0.54873 -0.54956,0.21855 -1.08213,0.44937 -1.59034,0.69051 -0.15512,0.0742 -0.31974,0.14419 -0.46595,0.22262 -0.0739,0.0396 -0.12644,0.0885 -0.2074,0.12488 -0.0692,0.0311 -0.15583,0.0516 -0.23717,0.0746 -4.13862,1.17472 -2.5384,1.03016 -4.3696,1.17713 -0.83157,-0.0897 -1.2733,-0.44544 -1.75249,-0.75898 -0.58626,-0.51187 -1.11257,-1.02842 -1.35814,-1.60691 0,0 3.98407,-1.03444 3.98407,-1.03444 z"
       inkscape:connector-curvature="0" />
    <path
       style="opacity:0.75;fill:#9780e8;fill-opacity:1;stroke:#999eff;stroke-width:0.29734036;stroke-miterlimit:4;stroke-dasharray:none;stroke-opacity:1"
       id="path2781"
       d="m 435.06282,270.31345 c 0.0711,1.05282 0.0872,2.10761 0.13277,3.16138 0.0781,1.66885 0.1085,3.33852 0.14543,5.00804 0.007,1.19455 0.0799,2.39029 -0.009,3.58373 -0.14227,0.90057 -0.24589,1.81419 -0.55841,2.6951 -0.066,0.18596 -0.15048,0.36824 -0.22568,0.55236 -0.52288,1.2074 -1.39301,2.30687 -2.22129,3.41332 -0.55544,0.70191 -1.10668,1.419 -1.88993,2.0047 -0.40743,0.30465 -0.52739,0.34881 -0.98288,0.59218 -2.02639,0.91726 -3.1381,1.48548 -5.36095,1.51763 -1.15178,-0.009 -1.98037,-0.52207 -2.7487,-1.08675 -0.81212,-0.64078 -1.41027,-1.38915 -1.99498,-2.14224 -0.33253,-0.39433 -0.53947,-0.81622 -0.63129,-1.27103 -0.0284,-0.21516 -0.022,-0.1102 -0.0207,-0.31484 0,0 2.43141,-0.88269 2.43141,-0.88269 v 0 c -0.0342,0.17773 -0.0278,0.0833 -0.0129,0.28354 0.0652,0.43454 0.24598,0.83938 0.54885,1.22034 0.55279,0.7449 1.12251,1.48514 1.93031,2.10562 0.78189,0.54611 1.51609,0.96082 2.65152,0.9443 0.50246,-0.0208 0.98987,-0.0577 1.47844,-0.15177 0.89115,-0.17151 2.7171,-0.92878 -0.74035,0.48147 0.47669,-0.22744 0.59692,-0.26405 1.02469,-0.55822 0.81769,-0.5623 1.38953,-1.2707 1.94614,-1.97244 0.81651,-1.09597 1.68395,-2.18174 2.22046,-3.37088 0.0763,-0.1792 0.16164,-0.35646 0.22871,-0.53757 0.32246,-0.87139 0.42299,-1.77745 0.58114,-2.66899 0.0988,-1.19375 0.029,-2.39158 0.0549,-3.58696 -0.007,-1.66863 -0.0349,-3.33753 -0.13683,-5.00471 -0.0693,-1.03272 -0.10172,-2.06942 -0.2534,-3.09767 0,0 2.40963,-0.91695 2.40963,-0.91695 z"
       inkscape:connector-curvature="0" />
    <path
       style="opacity:0.75;fill:#9780e8;fill-opacity:1;stroke:#999eff;stroke-width:0.3140631;stroke-miterlimit:4;stroke-dasharray:none;stroke-opacity:1"
       id="path2783"
       d="m 435.14649,263.41555 c -0.0174,0.57116 -0.0105,1.14264 -0.007,1.71393 0.007,0.38093 0.007,0.76185 0.007,1.14278 0,0 -2.23319,1.0828 -2.23319,1.0828 v 0 c 0,-0.38301 0.007,-0.76602 0.007,-1.14902 0.007,-0.56937 0.0129,-1.13895 -0.007,-1.70816 0,0 2.23228,-1.08233 2.23228,-1.08233 z"
       inkscape:connector-curvature="0" />
    <path
       style="opacity:0.75;fill:#9780e8;fill-opacity:1;stroke:#999eff;stroke-width:0.26976517;stroke-miterlimit:4;stroke-dasharray:none;stroke-opacity:1"
       id="path2785"
       d="m 447.92344,274.54338 c -0.93798,-0.17227 -1.85393,0.13252 -2.69553,0.42971 -0.21469,0.0986 -0.86724,0.38167 -0.64402,0.29586 0.44645,-0.17157 0.84412,-0.42782 1.31433,-0.55349 0.23479,-0.0627 -0.39973,0.2325 -0.58852,0.35956 -0.52985,0.35652 -0.93662,0.75731 -1.33454,1.20413 -0.36013,0.49227 -0.67303,1.0318 -0.7454,1.60552 -0.0381,0.30204 0,0.41785 0.0472,0.71395 0.26224,0.87857 0.96628,1.58009 1.68407,2.25691 0.76348,0.74633 1.69494,1.37573 2.74967,1.85213 0.22517,0.10161 0.4604,0.18863 0.69053,0.28294 1.44698,0.59758 3.02987,0.8587 4.63527,1.01012 0.63814,0.0151 1.30166,0.0367 1.92372,-0.10689 0.16035,-0.037 0.60499,-0.22146 0.46265,-0.15238 -2.0822,1.00991 -1.94801,0.9491 -1.25585,0.46847 0.68982,-0.64405 0.904,-1.48022 1.06099,-2.29195 0.0812,-0.81649 0.21224,-1.64886 0.11214,-2.4687 -0.0181,-0.15194 -0.0562,-0.30206 -0.084,-0.45307 -0.17857,-0.80221 -0.66785,-1.51747 -1.15739,-2.22273 -0.43985,-0.63957 -0.98657,-1.22358 -1.64751,-1.72907 -0.5508,-0.39103 -1.12819,-0.51114 -1.84212,-0.57152 -0.66295,-0.0387 -1.32557,-0.0453 -1.98284,0.0369 -0.61325,0.0876 -1.23272,0.12634 -1.84146,0.23151 -0.91142,0.14832 -2.4732,0.99354 1.18376,-0.66055 0,0 -2.19895,0.69715 -2.19895,0.69715 v 0 c 1.04278,-0.48748 1.77246,-1.00561 2.88877,-1.15898 0.60815,-0.0877 1.22601,-0.12541 1.83455,-0.21295 0.6718,-0.061 1.34864,-0.0547 2.0214,3.3e-4 0.75127,0.0871 1.34838,0.2555 1.91183,0.67823 0.66696,0.52543 1.22135,1.12567 1.67401,1.77939 0.49909,0.72583 1.00084,1.46046 1.18169,2.28491 0.031,0.15669 0.0714,0.31236 0.0925,0.47008 0.10921,0.8295 -0.031,1.67103 -0.0897,2.49894 -0.14213,0.83672 -0.3454,1.69115 -0.97752,2.39307 -0.90348,0.77088 -0.37989,0.37697 -2.70076,1.35354 -0.63103,0.26556 -1.73098,0.19233 -2.41499,0.16897 -1.62148,-0.17154 -3.2175,-0.4582 -4.67901,-1.06354 -0.23427,-0.098 -0.47344,-0.1888 -0.70268,-0.29387 -1.0714,-0.49113 -2.01565,-1.136 -2.80103,-1.89201 -0.74997,-0.70069 -1.48632,-1.42532 -1.77796,-2.33371 -0.053,-0.30035 -0.10031,-0.4571 -0.0726,-0.76471 0.0543,-0.59819 0.37505,-1.1649 0.7271,-1.68537 0.34217,-0.40797 0.38125,-0.48872 0.80606,-0.85444 1.18692,-1.02177 2.80316,-1.62646 4.32062,-2.28835 0.92758,-0.30388 1.83792,-0.55994 2.85085,-0.37827 0,0 -1.93865,1.06389 -1.93865,1.06389 z"
       inkscape:connector-curvature="0" />
    <path
       style="opacity:0.75;fill:#9780e8;fill-opacity:1;stroke:#999eff;stroke-width:0.26976517;stroke-miterlimit:4;stroke-dasharray:none;stroke-opacity:1"
       id="path2787"
       d="m 457.84825,279.86438 c 0.10359,0.60241 0.16262,1.20887 0.29649,1.8077 0.11214,0.43173 0.23646,0.8617 0.29248,1.30082 0.0349,0.32201 0.0336,0.64553 0.0362,0.96848 0,0.26924 0.0142,0.53914 -0.0142,0.80789 -0.02,0.10808 -0.049,0.2147 -0.0742,0.32187 0,0 -2.12613,0.82041 -2.12613,0.82041 v 0 c 0.0226,-0.10597 0.0446,-0.21165 0.0798,-0.31547 0.07,-0.25701 0.0142,-0.527 0.0323,-0.78812 0.007,-0.31834 0,-0.63702 -0.0226,-0.95488 -0.0465,-0.4373 -0.14556,-0.86844 -0.25611,-1.29821 -0.13722,-0.59911 -0.18038,-1.20793 -0.33738,-1.8045 0,0 2.09066,-0.86599 2.09066,-0.86599 z"
       inkscape:connector-curvature="0" />
    <path
       style="opacity:0.75;fill:#9780e8;fill-opacity:1;stroke:#999eff;stroke-width:0.21650508;stroke-miterlimit:4;stroke-dasharray:none;stroke-opacity:1"
       id="path2513-8-4"
       d="m 385.46679,276.49402 c 1.50693,0.23373 3.13726,0.27636 4.73102,0.32122 2.04284,0.0444 4.08944,0.0463 6.13456,0.0444 0.73382,-0.0165 1.48729,-0.0368 2.17614,-0.15231 0.16507,-0.0276 0.62618,-0.1397 0.47106,-0.10371 -4.31512,0.99971 -5.34925,1.33642 -3.7343,0.82868 0.73647,-0.29145 1.04536,-0.67629 1.2377,-1.07535 0.18323,-0.47606 0.21611,-0.94893 -0.0478,-1.4191 -0.0922,-0.0709 -0.157,-0.14907 -0.27672,-0.21288 -0.86129,-0.45878 -2.67478,-0.64073 -3.96611,-0.7711 -1.41072,-0.0905 -2.85673,-0.21032 -4.29458,-0.17092 -0.7775,0.0213 -1.08149,0.0688 -1.81769,0.14812 -0.26167,0.0458 -0.53309,0.0836 -0.78494,0.13782 -0.24273,0.0523 -0.93727,0.23238 -0.69408,0.18051 1.28111,-0.27309 2.49459,-0.59996 3.80989,-0.84474 0.24881,-0.0463 -0.39211,0.15587 -0.56752,0.24128 -0.3525,0.17152 -0.70475,0.4058 -1.00105,0.5919 -1.1415,0.74005 -1.94722,1.5447 -2.61851,2.37091 -0.70668,0.91524 -0.99793,1.82694 -0.77672,2.7805 0.28505,0.85589 1.50977,1.51458 2.93381,2.11995 1.65474,0.62665 3.75083,0.89804 5.90332,1.10002 1.8416,0.1372 3.72655,0.21271 5.59838,0.17101 0.60228,-0.0139 1.20463,-0.0417 1.75063,-0.1537 0.13684,-0.028 0.52404,-0.12898 0.39049,-0.0986 -4.21343,0.96335 -5.38439,1.40087 -3.91946,0.87029 0.0726,-0.0353 0.14511,-0.0708 0.21766,-0.1061 0,0 4.86527,-0.84437 4.86527,-0.84437 v 0 c -0.072,0.0373 -0.14426,0.075 -0.21631,0.11258 -1.26567,0.76658 -0.19886,0.16278 -5.06219,1.30698 -0.66301,0.15598 -1.50666,0.14019 -2.2379,0.16531 -1.89077,0.003 -3.78683,-0.0647 -5.63579,-0.22949 -2.22686,-0.2292 -4.37192,-0.54073 -6.07009,-1.19952 -1.49155,-0.6407 -2.76853,-1.34455 -3.10579,-2.2406 -0.0961,-0.38491 -0.15506,-0.49628 -0.12378,-0.8894 0.053,-0.66904 0.41976,-1.32813 0.83099,-1.97322 0.64963,-0.83711 1.40283,-1.65491 2.51972,-2.41096 0.30728,-0.20146 1.03639,-0.76158 1.49633,-0.88887 2.01043,-0.55654 4.22681,-1.22756 6.63386,-1.55078 0.81749,-0.0644 1.01971,-0.0947 1.87655,-0.1016 1.46364,-0.0119 2.92198,0.1057 4.35202,0.2148 1.494,0.16476 3.28637,0.3654 4.25982,0.90324 0.14259,0.0787 0.22529,0.17286 0.33791,0.25928 0.13166,0.20645 0.23769,0.33233 0.27387,0.54571 0.0536,0.31381 -0.0543,0.63432 -0.1091,0.94666 -0.15298,0.43185 -0.42899,0.84736 -1.09091,1.2008 -2.03936,0.93194 -5.0032,1.4658 -7.98663,1.48191 -2.04905,-0.007 -4.09978,-0.008 -6.1458,-0.0593 -1.65624,-0.052 -3.33018,-0.11338 -4.90307,-0.3467 0,0 4.38569,-1.20065 4.38569,-1.20065 z"
       inkscape:connector-curvature="0" />
  </g>
</svg>
