<?xml version="1.0" encoding="UTF-8" standalone="no"?>
<!-- Created with Inkscape (http://www.inkscape.org/) -->

<svg
   xmlns:dc="http://purl.org/dc/elements/1.1/"
   xmlns:cc="http://creativecommons.org/ns#"
   xmlns:rdf="http://www.w3.org/1999/02/22-rdf-syntax-ns#"
   xmlns:svg="http://www.w3.org/2000/svg"
   xmlns="http://www.w3.org/2000/svg"
   xmlns:sodipodi="http://sodipodi.sourceforge.net/DTD/sodipodi-0.dtd"
   xmlns:inkscape="http://www.inkscape.org/namespaces/inkscape"
   width="1289mm"
   height="135mm"
   viewBox="0 0 1289 135"
   version="1.1"
   id="svg8"
   inkscape:version="0.92.4 (5da689c313, 2019-01-14)"
   sodipodi:docname="o_meni2.svg">
  <defs
     id="defs2">
    <inkscape:path-effect
       effect="spiro"
       id="path-effect2531"
       is_visible="true" />
  </defs>
  <sodipodi:namedview
     id="base"
     pagecolor="#ffffff"
     bordercolor="#666666"
     borderopacity="1.0"
     inkscape:pageopacity="0.0"
     inkscape:pageshadow="2"
     inkscape:zoom="0.35"
     inkscape:cx="2609.2392"
     inkscape:cy="560"
     inkscape:document-units="mm"
     inkscape:current-layer="layer1"
     showgrid="false"
     inkscape:snap-bbox="true"
     inkscape:snap-global="true"
     inkscape:window-width="1920"
     inkscape:window-height="1017"
     inkscape:window-x="-8"
     inkscape:window-y="-8"
     inkscape:window-maximized="1" />
  <metadata
     id="metadata5">
    <rdf:RDF>
      <cc:Work
         rdf:about="">
        <dc:format>image/svg+xml</dc:format>
        <dc:type
           rdf:resource="http://purl.org/dc/dcmitype/StillImage" />
        <dc:title></dc:title>
      </cc:Work>
    </rdf:RDF>
  </metadata>
  <g
     inkscape:label="Layer 1"
     inkscape:groupmode="layer"
     id="layer1"
     transform="translate(0,-162)">
    <rect
       style="opacity:0.75;fill:#8cceff;fill-opacity:1;stroke:#8cceff;stroke-width:1.83294868;stroke-miterlimit:4;stroke-dasharray:none;stroke-opacity:0.87843137"
       id="rect10"
       width="1291.7964"
       height="136.73848"
       x="-0.98889744"
       y="160.4317" />
    <path
       style="opacity:0.75;fill:#9780e8;fill-opacity:1;stroke:#9780e8;stroke-width:0.60344046;stroke-miterlimit:4;stroke-dasharray:none;stroke-opacity:1"
       id="path2499"
       d="m 508.11083,172.04402 c -3.63328,0.345 -6.93115,1.63433 -10.29414,2.68777 -0.61249,0.22393 -1.22841,0.44208 -1.8375,0.67178 -0.58384,0.22018 -1.16659,0.44252 -1.74099,0.67774 -0.52871,0.21651 -2.0826,0.9134 -1.56756,0.67715 2.50307,-1.14821 4.99906,-2.30696 7.53215,-3.4132 0.82607,-0.36077 -1.54238,0.86193 -2.27877,1.32873 -2.08192,1.30824 -3.74352,2.92166 -5.35723,4.57629 -1.53295,1.74185 -2.95735,3.54284 -4.28882,5.38513 -1.1964,1.56351 -1.8933,3.30799 -2.65205,5.02119 -0.81841,1.65246 -1.06939,3.40876 -1.21717,5.16469 -0.1267,1.88955 -0.12331,3.78255 -0.10924,5.67411 0.0101,1.63248 0.0162,3.26496 0.0268,4.89744 -0.008,1.666 -0.004,3.33201 -0.008,4.99801 -0.10171,1.65327 0.13611,3.27607 0.58274,4.88703 0.3271,1.42804 0.68103,2.79288 1.69637,4.01783 0.86468,1.10436 1.97695,2.06951 2.86772,3.15637 1.12768,1.18444 2.6918,2.00126 4.14664,2.91001 1.86996,1.05241 3.66659,2.20186 5.63225,3.14061 1.7786,1.06644 3.56309,2.1234 5.50378,3.0018 1.45276,0.63598 3.05622,0.82657 4.68644,0.90248 1.50713,0.0839 2.96212,-0.423 4.29742,-0.93465 3.62343,-1.15613 1.35235,-0.45889 -7.71792,3.55098 -0.24683,0.10912 0.47676,-0.2409 0.70849,-0.36909 0.70331,-0.38904 1.38256,-0.80849 2.07935,-1.20517 1.42817,-0.74624 2.81145,-1.54692 4.15563,-2.38489 1.27941,-0.82252 2.54458,-1.66084 3.85537,-2.45211 1.32313,-0.66428 2.4842,-1.47921 3.61027,-2.33545 1.04804,-0.84081 2.01054,-1.73957 2.8705,-2.70407 0.93305,-0.92673 1.72932,-1.89965 2.35537,-2.97473 0.64647,-1.22945 1.39548,-2.42103 2.15733,-3.60729 0.82811,-1.28939 1.65952,-2.57328 2.41454,-3.89109 0.54928,-1.13089 0.95533,-2.29888 1.49975,-3.4323 0.45324,-1.09586 0.90252,-2.19802 1.23901,-3.32081 0.48826,-1.35624 0.77977,-2.7391 0.9505,-4.14053 0.12811,-1.21924 0.13892,-2.44332 0.14535,-3.66593 0.009,-1.11544 0.0493,-2.22416 -0.16792,-3.32851 -0.12666,-1.42935 -0.65636,-2.77804 -1.17262,-4.14009 -0.46437,-1.21896 -0.9667,-2.41628 -1.24957,-3.67321 -0.003,-1.36067 -0.6739,-2.41215 -1.59258,-3.50867 -0.7799,-1.06462 -1.95027,-1.87126 -2.91451,-2.82322 -1.15157,-0.9944 -2.49709,-1.81869 -3.80267,-2.6856 -1.39191,-1.02323 -2.93183,-1.90259 -4.38968,-2.864 -1.22856,-0.63318 -2.4414,-1.28135 -3.65836,-1.92813 -0.97928,-0.53539 -1.8932,-1.12835 -3.03872,-1.41943 -1.52616,-0.24918 -3.08953,-0.16166 -4.62291,-0.34473 -1.59457,-0.16148 -3.21311,-0.4794 -4.82096,-0.30542 -1.54692,0.19682 -2.93936,0.78246 -4.44577,1.11235 1.78771,-1.00406 -4.06919,1.7735 -2.07131,0.86167 14.86867,-6.78611 10.11218,-4.99427 7.30266,-3.12644 -1.01922,0.77709 -2.20122,1.40175 -3.20716,2.18725 -1.19938,0.80008 -2.24363,1.68917 -3.15404,2.69769 -0.69188,0.78237 -0.34021,0.39524 -1.05494,1.16144 0,0 -9.65577,3.3299 -9.65577,3.3299 v 0 c 0.65583,-0.8092 0.29692,-0.43657 1.06664,-1.12389 0.76557,-1.11412 1.77273,-2.07682 3.01339,-2.88509 1.91685,-1.3628 -1.06415,0.78607 0.93815,-0.7651 0.69552,-0.5388 1.61254,-0.86922 2.27992,-1.44013 3.56084,-2.78409 8.24919,-4.57151 12.88203,-5.9987 1.51115,-0.40376 2.98974,-0.9455 4.61713,-0.95719 1.64893,0.0329 3.2723,0.25635 4.90495,0.4277 1.61484,0.0974 3.27037,0.0741 4.81884,0.50311 1.14494,0.41522 2.137,1.0227 3.17419,1.58239 1.20548,0.68708 2.47873,1.29446 3.65736,2.01005 1.4681,0.95173 2.98316,1.85731 4.3892,2.86799 1.36609,0.8935 2.75527,1.76149 3.93871,2.81167 0.995,0.96367 2.16665,1.8086 2.96134,2.89599 0.9751,1.17849 1.79731,2.35477 1.81274,3.81185 0.23707,1.23453 0.72881,2.39857 1.16497,3.59352 0.50713,1.39244 1.12727,2.75819 1.26219,4.21624 0.25784,1.14825 0.30091,2.28794 0.24885,3.45456 -0.005,1.24698 -0.0134,2.49513 -0.12773,3.73948 -0.15105,1.42285 -0.35562,2.84797 -0.87046,4.22187 -0.28423,1.17019 -0.7794,2.2885 -1.1768,3.43526 -0.54022,1.1489 -1.07862,2.292 -1.48782,3.47598 -0.71436,1.3419 -1.54273,2.63624 -2.41587,3.9167 -0.66772,1.21694 -1.55735,2.35361 -2.15038,3.59667 -0.64197,1.11005 -1.22657,2.19286 -2.23217,3.13808 -0.9765,0.9172 -1.74813,1.97346 -2.84181,2.82023 -1.10334,0.87358 -2.17696,1.82242 -3.55039,2.43158 -1.32204,0.78421 -2.63393,1.58579 -3.86918,2.44484 -1.36328,0.82604 -2.68899,1.68904 -4.12626,2.4381 -0.72474,0.3578 -1.42711,0.74894 -2.10123,1.16499 -0.22763,0.14048 -0.41198,0.32706 -0.66062,0.44311 -3.2251,1.50532 -6.48552,2.963 -9.74901,4.41559 -0.21076,0.0938 -0.44612,0.14773 -0.6692,0.2216 -1.50066,0.43209 -2.97993,0.81204 -4.60537,0.6071 -1.73192,-0.1632 -3.40264,-0.50395 -4.90633,-1.23403 -1.90638,-0.92699 -3.70395,-1.97468 -5.50349,-3.02498 -1.95978,-1.00245 -3.82268,-2.12223 -5.7111,-3.20647 -1.54837,-0.95852 -3.18531,-1.85251 -4.35915,-3.12485 -0.90463,-1.08148 -1.99687,-2.05913 -2.85735,-3.16611 -1.06563,-1.31707 -1.56928,-2.74733 -1.85689,-4.28881 -0.46248,-1.66431 -0.82241,-3.33638 -0.68081,-5.04928 -0.005,-1.66277 -1.1e-4,-3.32554 -0.0128,-4.98829 0.005,-1.63654 0.002,-3.27309 0.003,-4.90964 0.009,-1.90713 -0.0158,-3.81527 0.077,-5.72137 0.14006,-1.81503 0.29627,-3.64669 1.07418,-5.37516 0.83477,-1.72821 1.43514,-3.53631 2.59451,-5.15824 1.37196,-1.86126 2.78938,-3.69587 4.28069,-5.5 1.61612,-1.68 3.16102,-3.39873 5.25409,-4.73768 5.14463,-3.57947 11.51604,-5.87482 17.71611,-8.09718 3.459,-1.08644 6.89306,-2.3019 10.63662,-2.61739 0,0 -8.47133,4.98465 -8.47133,4.98465 z"
       inkscape:connector-curvature="0" />
    <path
       style="opacity:0.75;fill:#9780e8;fill-opacity:1;stroke:#9780e8;stroke-width:0.44430006;stroke-miterlimit:4;stroke-dasharray:none;stroke-opacity:1"
       id="path2501"
       d="m 573.91873,196.23835 c -0.0401,1.53464 -0.0347,3.07002 -0.0373,4.60499 -0.002,1.42396 0.0195,2.84785 0.0198,4.27178 0.003,1.0491 0.01,2.0982 0.0132,3.1473 0.003,0.87832 0.003,1.75664 0.003,2.63496 9e-5,0.86327 1e-5,1.72654 -2e-5,2.58981 0.003,0.90696 -0.003,1.81389 -0.006,2.72083 0.0747,1.04656 -0.1331,2.07595 -0.28475,3.10939 -0.15585,0.94514 -0.14035,1.90175 -0.24472,2.85 -0.17813,0.85941 -0.32687,1.72032 -0.40513,2.59084 -0.0631,0.85689 -0.0653,1.71589 -0.0684,2.57414 -8.4e-4,0.8649 8.5e-4,1.72979 0.002,2.59469 8.5e-4,0.86541 8.5e-4,1.73082 8.5e-4,2.59623 5e-5,0.57689 5e-5,1.15378 5e-5,1.73068 0,0 -6.64836,2.91407 -6.64836,2.91407 v 0 c 10e-6,-0.57688 2e-5,-1.15375 -2e-5,-1.73063 -7e-5,-0.86525 -1.6e-4,-1.7305 -8.4e-4,-2.59575 -8.5e-4,-0.86547 -0.003,-1.73093 -0.003,-2.5964 8.4e-4,-0.87066 -6e-5,-1.74178 0.0466,-2.61173 0.0601,-0.88365 0.16559,-1.76426 0.38602,-2.63041 0.19746,-0.93741 0.0852,-1.90575 0.26226,-2.84894 0.14075,-1.01123 0.38689,-2.01474 0.32117,-3.03743 -0.003,-0.90516 -0.01,-1.81029 -0.006,-2.71546 -3e-5,-0.86327 -1.1e-4,-1.72653 -2e-5,-2.5898 1.8e-4,-0.87917 3.5e-4,-1.75834 0.003,-2.63751 0.003,-1.05294 0.01,-2.10588 0.0132,-3.15882 3.6e-4,-1.42971 0.0216,-2.85938 0.0198,-4.28911 -0.003,-1.52407 0.003,-3.04855 -0.0373,-4.57226 0,0 6.65153,-2.91546 6.65153,-2.91546 z"
       inkscape:connector-curvature="0" />
    <path
       style="opacity:0.75;fill:#9780e8;fill-opacity:1;stroke:#9780e8;stroke-width:0.44430006;stroke-miterlimit:4;stroke-dasharray:none;stroke-opacity:1"
       id="path2503"
       d="m 569.5036,205.14799 c 3.1428,-2.08662 6.61981,-3.81381 10.18848,-5.29874 1.08217,-0.33468 2.20589,-0.59443 3.33263,-0.79971 1.02148,-0.15189 2.02509,-0.28918 2.9996,0.0634 0.96271,0.25996 1.78714,0.75996 2.70764,1.09973 0.89664,0.38322 1.7952,0.75604 2.68744,1.14665 0.90401,0.2843 1.62531,0.79205 2.29685,1.3686 0.81366,0.71515 1.48135,1.54254 2.13608,2.36652 0.72385,0.6986 1.36369,1.43364 1.78445,2.29908 0.45906,0.84125 0.7001,1.7349 0.81999,2.65323 0.19803,0.85544 0.40035,1.70637 0.50912,2.57437 0.0984,0.9047 0.0942,1.8139 0.0963,2.72153 -0.008,1.07709 -0.003,2.15422 -8.4e-4,3.23132 -0.01,1.03818 0.002,2.07638 -0.005,3.11456 -0.007,1.10622 -0.004,2.21243 8.4e-4,3.31866 0.0987,0.7968 0.30149,1.57857 0.40436,2.3757 0.10019,0.88728 0.0977,1.77929 0.10125,2.66969 0.003,0.95842 0.004,1.91684 0.005,2.87526 4e-5,0.14879 8e-5,0.29757 1.2e-4,0.44636 0,0 -6.64629,2.91252 -6.64629,2.91252 v 0 c 3.5e-4,-0.14899 7.1e-4,-0.29798 0.001,-0.44697 0.003,-0.95841 0.008,-1.91682 0.006,-2.87523 -0.007,-0.86916 -0.0125,-1.7395 -0.0852,-2.6068 -0.0893,-0.82192 -0.28224,-1.6267 -0.41929,-2.44276 0.005,-1.10652 0.007,-2.21302 8.5e-4,-3.31953 -0.006,-1.03753 0.006,-2.07506 -0.002,-3.11259 0.005,-1.07641 0.0153,-2.15287 0.004,-3.22927 -0.006,-0.88748 -0.009,-1.77606 -0.0774,-2.66193 -0.089,-0.86968 -0.26852,-1.72432 -0.49647,-2.57501 -0.0976,-0.86159 -0.28499,-1.70581 -0.73103,-2.4909 -0.37546,-0.83289 -1.03651,-1.49986 -1.68932,-2.18554 -0.63005,-0.78745 -1.27132,-1.58123 -2.07445,-2.24718 -0.64215,-0.51395 -1.35133,-0.92185 -2.17321,-1.19999 -0.89764,-0.36634 -1.75873,-0.79225 -2.66934,-1.13592 -0.87659,-0.36663 -1.71883,-0.79732 -2.66602,-1.02413 -0.91874,-0.13661 -1.85452,0.0439 -2.75554,0.20639 -1.08699,0.24284 -2.1975,0.45644 -3.1995,0.90731 -2.60915,1.21841 -0.0723,0.0397 5.09239,-2.55025 0.22404,-0.11235 -0.46127,0.20465 -0.68415,0.31871 -0.65858,0.33702 -1.24468,0.7564 -1.875,1.12857 0,0 -6.92429,2.40425 -6.92429,2.40425 z"
       inkscape:connector-curvature="0" />
    <path
       style="opacity:0.75;fill:#9780e8;fill-opacity:1;stroke:#9780e8;stroke-width:0.44430006;stroke-miterlimit:4;stroke-dasharray:none;stroke-opacity:1"
       id="path2505"
       d="m 592.02486,208.2124 c 0.57275,-1.10372 0.90519,-2.28032 1.44703,-3.39473 0.32637,-0.69457 0.8635,-1.26971 1.41166,-1.83922 2.4028,-2.07578 5.74333,-3.07931 8.74018,-4.38756 0.8507,-0.32523 1.64348,-0.74488 2.46831,-1.11399 0.84197,-0.295 1.75987,-0.3189 2.65608,-0.34698 1.14951,-0.0877 2.12934,0.32723 3.12984,0.74032 0.90579,0.33585 1.87639,0.45645 2.81291,0.70962 0.80161,0.32166 1.48278,0.77875 2.08981,1.32712 0.81542,0.66235 1.62745,1.32381 2.38914,2.03791 0.82311,0.77287 1.64774,1.56169 2.41287,2.38134 0.86568,0.85229 1.30721,1.91507 1.66415,2.98622 0.20685,1.10147 0.57456,2.16284 0.93385,3.2323 0.24275,1.08307 0.55153,2.15497 0.78564,3.23965 0.15994,0.92573 0.45083,1.8257 0.59031,2.75466 0.12505,0.98157 0.14849,1.96957 0.16331,2.95602 0.0123,0.94879 -7.2e-4,1.89756 -0.002,2.84636 -10e-6,0.93795 0.002,1.8759 0.003,2.81385 7.7e-4,0.87052 9.4e-4,1.74105 10e-4,2.61157 5e-5,0.86452 3e-5,1.72903 2e-5,2.59355 0.0322,0.77381 -0.1188,1.54321 -0.43652,2.26607 0,0 -6.79073,2.69961 -6.79073,2.69961 v 0 c 0.32618,-0.65227 0.62182,-1.32443 0.57885,-2.05159 -2e-5,-0.86451 -6e-5,-1.72902 -4e-5,-2.59354 7e-5,-0.87091 1.3e-4,-1.74182 10e-4,-2.61273 10e-4,-0.93967 0.004,-1.87933 0.007,-2.819 10e-4,-0.94572 -0.004,-1.89143 -0.002,-2.83716 -0.005,-0.96487 -0.0121,-1.9315 -0.11918,-2.89284 -0.12748,-0.92148 -0.41262,-1.81134 -0.57219,-2.72668 -0.20478,-1.06963 -0.52147,-2.11938 -0.73913,-3.1867 -0.3463,-1.07405 -0.77813,-2.1238 -0.93064,-3.23708 -0.31129,-0.99346 -0.72471,-1.96972 -1.528,-2.75295 -0.75838,-0.80495 -1.56195,-1.58562 -2.37211,-2.3503 -0.76815,-0.70218 -1.60671,-1.33576 -2.41544,-2.00124 -0.54928,-0.45808 -1.15192,-0.85204 -1.88647,-1.06394 -0.95795,-0.25134 -1.9615,-0.38274 -2.85693,-0.79226 -0.93736,-0.37222 -1.87935,-0.59231 -2.9242,-0.47062 -0.86119,0.0661 -1.71658,0.17304 -2.46553,0.57479 -0.80355,0.39407 -1.64374,0.73621 -2.47841,1.07857 -0.47825,0.18643 -0.4559,0.17227 -0.91206,0.37066 -0.14118,0.0614 -0.55772,0.25685 -0.42142,0.18777 10.94753,-5.54839 7.3347,-3.9129 5.34208,-2.63067 -0.63908,0.43584 -1.15287,1.03925 -1.54226,1.65129 -0.6907,1.048 -0.96204,2.23737 -1.44606,3.3597 0,0 -6.78673,2.68283 -6.78673,2.68283 z"
       inkscape:connector-curvature="0" />
    <path
       style="opacity:0.75;fill:#9780e8;fill-opacity:1;stroke:#9780e8;stroke-width:0.51816916;stroke-miterlimit:4;stroke-dasharray:none;stroke-opacity:1"
       id="path2513"
       d="m 644.51681,210.08688 c 2.51816,0.80127 5.24269,0.94733 7.90593,1.10108 3.41379,0.15207 6.8339,0.1587 10.2516,0.15195 1.22633,-0.0566 2.4854,-0.12617 3.63654,-0.52208 0.27585,-0.0949 1.04636,-0.47884 0.7871,-0.35563 -7.21101,3.42677 -8.9391,4.58093 -6.24038,2.8405 1.23075,-0.99899 1.74697,-2.31811 2.06835,-3.68594 0.3062,-1.63183 0.36115,-3.25267 -0.0799,-4.86425 -0.15418,-0.24323 -0.26238,-0.51101 -0.46253,-0.7297 -1.43926,-1.57259 -4.46978,-2.19627 -6.62778,-2.64317 -2.35745,-0.31007 -4.77375,-0.72091 -7.17661,-0.58584 -1.29929,0.073 -1.80719,0.23571 -3.03763,0.50776 -0.4372,0.15744 -0.89072,0.2865 -1.31162,0.47232 -0.40564,0.17908 -1.56638,0.79655 -1.1599,0.61881 2.14085,-0.9361 4.16878,-2.05645 6.36667,-2.89553 0.41584,-0.15875 -0.65516,0.5343 -0.94843,0.82705 -0.58896,0.58792 -1.17769,1.39097 -1.67278,2.02885 -1.90758,2.53668 -3.25404,5.29479 -4.37587,8.12673 -1.18087,3.13718 -1.66766,6.26223 -1.29791,9.53074 0.47639,2.93378 2.52306,5.19156 4.90268,7.26659 2.76531,2.14794 6.26807,3.07824 9.86509,3.77058 3.0775,0.47028 6.22733,0.72906 9.3555,0.58613 1.00643,-0.0476 2.01304,-0.14341 2.9255,-0.52679 0.22859,-0.096 0.87566,-0.44226 0.65255,-0.33762 -7.04114,3.3021 -8.998,4.8018 -6.5499,2.98306 0.12123,-0.12114 0.24245,-0.24228 0.36368,-0.36342 0,0 8.13039,-2.89434 8.13039,-2.89434 v 0 c -0.12048,0.12861 -0.24096,0.25722 -0.36144,0.38583 -2.11515,2.62764 -0.3323,0.55798 -8.45948,4.47996 -1.10788,0.53464 -2.51774,0.48058 -3.73971,0.56659 -3.15973,0.0151 -6.32822,-0.22191 -9.418,-0.78657 -3.72127,-0.78561 -7.30584,-1.85343 -10.14372,-4.1116 -2.4925,-2.19618 -4.62652,-4.60876 -5.19011,-7.68012 -0.16075,-1.31939 -0.25908,-1.70106 -0.2069,-3.04861 0.0888,-2.29326 0.70156,-4.55243 1.38885,-6.76364 1.08559,-2.86932 2.34424,-5.67248 4.2106,-8.26401 0.51357,-0.69055 1.73199,-2.61043 2.50052,-3.04681 3.35966,-1.90763 7.06337,-4.2077 11.08593,-5.31559 1.36614,-0.22115 1.70402,-0.32422 3.13592,-0.34808 2.44582,-0.0407 4.88292,0.36216 7.27262,0.73627 2.49673,0.56476 5.49182,1.25245 7.11854,3.09601 0.23827,0.27003 0.37647,0.59252 0.56471,0.88877 0.22013,0.70759 0.39723,1.13913 0.45778,1.87051 0.089,1.07567 -0.0909,2.17428 -0.18209,3.24486 -0.25566,1.48024 -0.71693,2.90455 -1.82298,4.11605 -3.40806,3.19437 -8.36095,5.02426 -13.34649,5.07949 -3.42417,-0.0232 -6.85112,-0.0291 -10.27031,-0.20328 -2.76779,-0.17797 -5.56512,-0.3886 -8.19346,-1.18837 0,0 7.32888,-4.1155 7.32888,-4.1155 z"
       inkscape:connector-curvature="0" />
    <path
       style="opacity:0.75;fill:#9780e8;fill-opacity:1;stroke:#9780e8;stroke-width:0.51816916;stroke-miterlimit:4;stroke-dasharray:none;stroke-opacity:1"
       id="path2515"
       d="m 692.03119,195.00726 c -0.30732,3.47363 -0.786,6.93306 -1.20094,10.39865 -0.37739,3.30681 -0.51903,6.6273 -0.56199,9.94749 -0.008,1.67204 0.004,3.34408 0.0218,5.01605 0.0125,1.06591 0.0176,2.13185 0.0202,3.1978 -0.0105,1.1246 -0.005,2.24925 -0.002,3.37387 0.002,1.02254 0.003,2.04508 0.004,3.06761 4.1e-4,0.99362 2e-4,1.98723 2e-4,2.98084 -2e-5,0.82777 -3e-5,1.65553 -3e-5,2.48329 0,0 -7.87349,3.34689 -7.87349,3.34689 v 0 c -10e-6,-0.82775 -2e-5,-1.65551 -4e-5,-2.48326 0,-0.9937 -4e-5,-1.9874 2.1e-4,-2.9811 4.2e-4,-1.02357 10e-4,-2.04714 0.004,-3.0707 0.002,-1.12334 0.008,-2.24672 -0.005,-3.37003 6e-5,-1.06929 1.5e-4,-2.13857 0.005,-3.20785 0.01,-1.69356 0.0198,-3.38729 0.0857,-5.08013 0.12094,-3.35239 0.27165,-6.70586 0.65029,-10.04622 0.39198,-3.42833 0.96011,-6.84716 0.97084,-10.29771 0,0 7.88137,-3.27549 7.88137,-3.27549 z"
       inkscape:connector-curvature="0" />
    <path
       style="opacity:0.75;fill:#9780e8;fill-opacity:1;stroke:#9780e8;stroke-width:0.51816916;stroke-miterlimit:4;stroke-dasharray:none;stroke-opacity:1"
       id="path2517"
       d="m 686.83109,208.00925 c 1.37116,-1.35518 2.71044,-2.72958 4.0094,-4.13314 0.82568,-1.10999 2.07376,-1.75534 3.38846,-2.39644 3.12535,-1.52705 4.76983,-2.33391 9.0831,-4.32976 2.29601,-1.06241 -9.13151,4.32731 -6.83301,3.26865 2.63866,-1.21532 6.37789,-3.40617 9.74764,-4.48817 1.39127,-0.3619 2.871,-0.6708 4.33315,-0.51842 1.40744,0.12584 2.51469,0.83095 3.44888,1.66915 0.93516,0.90401 1.97503,1.67065 2.71525,2.70275 0.70652,1.21196 1.35045,2.44961 2.07037,3.65532 0.73083,1.07226 1.03053,2.26609 1.33429,3.45755 0.32647,1.40832 0.39352,2.84164 0.65761,4.25697 0.29472,1.44092 0.38476,2.90399 0.43538,4.36288 0.0533,1.50089 0.041,3.0025 0.0482,4.50383 0.0125,1.32082 1.1e-4,2.64164 -2e-4,3.96246 0.003,1.16983 0.009,2.33966 0.0122,3.50949 0.002,1.00599 0.002,2.01199 0.003,3.01799 10e-5,0.99186 3e-5,1.98372 0,2.97558 -10e-6,0.16552 -10e-6,0.33103 -2e-5,0.49655 0,0 -7.87353,3.3469 -7.87353,3.3469 v 0 c 0,-0.16551 -10e-6,-0.33102 -2e-5,-0.49653 -3e-5,-0.99185 -1.1e-4,-1.9837 -3e-5,-2.97555 1.7e-4,-1.00682 4.2e-4,-2.01364 0.003,-3.02045 0.003,-1.17368 0.01,-2.34735 0.0139,-3.52102 0.002,-1.32185 -0.008,-2.64372 0.008,-3.96554 0.008,-1.49623 0.003,-2.99258 -0.0263,-4.48865 -0.0516,-1.42867 -0.11626,-2.86186 -0.40173,-4.27405 -0.26262,-1.4038 -0.34757,-2.81935 -0.63604,-4.22006 -0.29055,-1.12888 -0.57185,-2.26993 -1.22958,-3.2983 -0.69739,-1.19281 -1.35362,-2.40321 -2.04554,-3.59819 -0.70238,-0.97871 -1.75808,-1.67989 -2.62284,-2.5552 -0.85823,-0.71712 -1.84289,-1.19681 -3.09088,-1.19856 -1.3969,0.0461 -2.7711,0.30497 -4.05762,0.76504 -0.24859,0.0993 -0.49908,0.19525 -0.74575,0.29777 -0.23926,0.0994 -0.94223,0.42113 -0.71187,0.30801 2.2673,-1.11343 9.12342,-4.37534 6.82359,-3.30935 -27.69479,12.83666 5.04318,-2.01306 -2.2476,1.06088 -1.25547,0.63058 -2.71034,1.08908 -3.52546,2.15957 -1.35325,1.34703 -2.61695,2.76458 -3.94824,4.12511 0,0 -8.13888,2.88493 -8.13888,2.88493 z"
       inkscape:connector-curvature="0" />
    <path
       style="opacity:0.75;fill:#9780e8;fill-opacity:1;stroke:#9780e8;stroke-width:0.51816916;stroke-miterlimit:4;stroke-dasharray:none;stroke-opacity:1"
       id="path2519"
       d="m 740.48639,194.25626 c -0.0826,2.44366 -0.0772,4.88877 -0.0707,7.33318 0.004,2.49471 0.007,4.98943 0.0148,7.48414 0.0489,2.33663 0.49561,4.64688 0.83203,6.96215 0.18688,1.81441 0.33816,3.62394 0.63435,5.42893 0.20737,1.15244 0.30875,2.31405 0.35802,3.47777 0.0674,0.95796 -0.043,1.92326 0.0749,2.8779 0.22499,0.86321 0.37899,1.73307 0.46403,2.61321 0.0652,0.81529 0.0727,1.63266 0.0799,2.4494 0,0 -7.8716,3.351 -7.8716,3.351 v 0 c -0.004,-0.80115 -0.008,-1.60275 -0.058,-2.40303 -0.0682,-0.86645 -0.19325,-1.72635 -0.44323,-2.57107 -0.18891,-0.97462 -0.0473,-1.9685 -0.1054,-2.95276 -0.0301,-1.14658 -0.0977,-2.2927 -0.27535,-3.43095 -0.26488,-1.81833 -0.4462,-3.63609 -0.58388,-5.46421 -0.29453,-2.34729 -0.77205,-4.6791 -0.86089,-7.04174 0.008,-2.49892 0.0105,-4.99784 0.0148,-7.49676 0.006,-2.42438 0.0128,-4.84951 -0.0707,-7.27312 0,0 7.86679,-3.34404 7.86679,-3.34404 z"
       inkscape:connector-curvature="0" />
    <path
       style="opacity:0.75;fill:#9780e8;fill-opacity:1;stroke:#9780e8;stroke-width:0.51816916;stroke-miterlimit:4;stroke-dasharray:none;stroke-opacity:1"
       id="path2521"
       d="m 739.30033,180.28081 c -0.0499,1.51707 -0.0286,3.03507 -0.018,4.55249 0,0 -7.84131,3.33321 -7.84131,3.33321 v 0 c 0.0105,-1.51233 0.0323,-3.02525 -0.018,-4.53722 0,0 7.87722,-3.34848 7.87722,-3.34848 z"
       inkscape:connector-curvature="0" />
    <path
       style="opacity:0.75;fill:#80a0e8;fill-opacity:1;stroke:#80a0e8;stroke-width:2.05714297;stroke-miterlimit:4;stroke-dasharray:none;stroke-opacity:1"
       d="m 1074.2528,295.46928 c 1.3041,-4.38802 6.0306,-13.04549 9.4723,-17.35029 10.6402,-13.30855 25.7566,-20.51141 43.0407,-20.50858 11.1584,0.002 18.6114,1.65467 41.9554,9.30437 27.7204,9.08382 29.6361,9.48097 45.3571,9.40283 11.3575,-0.0564 13.7135,-0.29442 20.2695,-2.04744 22.8866,-6.11963 40.6834,-19.17117 52.7411,-38.67851 l 3.7186,-6.01602 v 33.79727 33.79726 h -108.5301 -108.5301 z"
       id="path2569"
       inkscape:connector-curvature="0" />
    <path
       style="opacity:0.75;fill:#80a0e8;fill-opacity:1;stroke:#80a0e8;stroke-width:2.05714297;stroke-miterlimit:4;stroke-dasharray:none;stroke-opacity:1"
       d="m 215.56581,162.13259 c -1.3041,4.38802 -6.0306,13.04549 -9.4723,17.35029 -10.6402,13.30855 -25.7566,20.51141 -43.0407,20.50858 -11.1584,-0.002 -18.6114,-1.65467 -41.9554,-9.30437 -27.720407,-9.08382 -29.636107,-9.48097 -45.357097,-9.40283 -11.35751,0.0564 -13.71351,0.29442 -20.26951,2.04744 -22.88659,6.11963 -40.6834,19.17117 -52.7411004,38.67851 l -3.71860004,6.01602 V 194.22896 160.4317 H 107.54121 216.07131 Z"
       id="path2569-4"
       inkscape:connector-curvature="0" />
  </g>
</svg>
