<?xml version="1.0" encoding="UTF-8" standalone="no"?>
<!-- Created with Inkscape (http://www.inkscape.org/) -->

<svg
   xmlns:dc="http://purl.org/dc/elements/1.1/"
   xmlns:cc="http://creativecommons.org/ns#"
   xmlns:rdf="http://www.w3.org/1999/02/22-rdf-syntax-ns#"
   xmlns:svg="http://www.w3.org/2000/svg"
   xmlns="http://www.w3.org/2000/svg"
   xmlns:sodipodi="http://sodipodi.sourceforge.net/DTD/sodipodi-0.dtd"
   xmlns:inkscape="http://www.inkscape.org/namespaces/inkscape"
   width="503mm"
   height="45mm"
   viewBox="0 0 503 45"
   version="1.1"
   id="svg8"
   inkscape:version="0.92.4 (5da689c313, 2019-01-14)"
   sodipodi:docname="o_meni1.svg">
  <defs
     id="defs2">
    <inkscape:path-effect
       effect="spiro"
       id="path-effect2531"
       is_visible="true" />
  </defs>
  <sodipodi:namedview
     id="base"
     pagecolor="#ffffff"
     bordercolor="#666666"
     borderopacity="1.0"
     inkscape:pageopacity="0.0"
     inkscape:pageshadow="2"
     inkscape:zoom="0.49497475"
     inkscape:cx="994.31295"
     inkscape:cy="-128.33777"
     inkscape:document-units="mm"
     inkscape:current-layer="layer1"
     showgrid="false"
     inkscape:snap-bbox="true"
     inkscape:snap-global="true"
     inkscape:window-width="1920"
     inkscape:window-height="1017"
     inkscape:window-x="-8"
     inkscape:window-y="-8"
     inkscape:window-maximized="1" />
  <metadata
     id="metadata5">
    <rdf:RDF>
      <cc:Work
         rdf:about="">
        <dc:format>image/svg+xml</dc:format>
        <dc:type
           rdf:resource="http://purl.org/dc/dcmitype/StillImage" />
        <dc:title />
      </cc:Work>
    </rdf:RDF>
  </metadata>
  <g
     inkscape:label="Layer 1"
     inkscape:groupmode="layer"
     id="layer1"
     transform="translate(0,-252)">
    <rect
       style="opacity:0.75;fill:#8cceff;fill-opacity:1;stroke:#8cceff;stroke-width:0.65316427;stroke-miterlimit:4;stroke-dasharray:none;stroke-opacity:0.87843137"
       id="rect10"
       width="502.44946"
       height="44.641273"
       x="1.0415009"
       y="252.47844" />
    <path
       style="opacity:0.75;fill:#9780e8;fill-opacity:1;stroke:#9780e8;stroke-width:0.2682099;stroke-miterlimit:4;stroke-dasharray:none;stroke-opacity:1"
       id="path2499"
       d="m 187.13242,264.16007 c -2.23128,0.11099 -4.25656,0.52573 -6.32186,0.86461 -0.37614,0.0721 -0.75439,0.14221 -1.12845,0.2161 -0.35854,0.0708 -0.71641,0.14236 -1.06918,0.21801 -0.32468,0.0696 -1.27896,0.29383 -0.96266,0.21784 1.5372,-0.36936 3.07003,-0.74211 4.62565,-1.09797 0.50731,-0.11605 -0.94721,0.27726 -1.39943,0.42742 -1.27857,0.42083 -2.29898,0.93986 -3.29,1.47212 -0.9414,0.56032 -1.81617,1.13966 -2.63387,1.7323 -0.73472,0.50295 -1.1627,1.06412 -1.62865,1.61522 -0.50261,0.53157 -0.65675,1.09654 -0.7475,1.6614 -0.0779,0.60783 -0.0759,1.21677 -0.0671,1.82526 0.005,0.52512 0.01,1.05027 0.0164,1.57542 -0.005,0.53592 -0.003,1.07185 -0.005,1.60776 -0.0625,0.53182 0.0835,1.05386 0.35788,1.57208 0.20088,0.45938 0.41824,0.89842 1.04177,1.29246 0.53102,0.35525 1.21409,0.66573 1.76113,1.01534 0.69253,0.38102 1.6531,0.64377 2.54655,0.9361 1.14836,0.33855 2.25172,0.7083 3.45885,1.01028 1.09229,0.34305 2.18817,0.68306 3.38001,0.96563 0.89217,0.20458 1.87688,0.2659 2.87803,0.29031 0.92556,0.027 1.81909,-0.13606 2.63913,-0.30066 2.22523,-0.37191 0.83051,-0.14762 -4.73973,1.14228 -0.15158,0.0351 0.2928,-0.0774 0.4351,-0.11872 0.43191,-0.12515 0.84905,-0.26008 1.27697,-0.38767 0.87708,-0.24006 1.72658,-0.49763 2.55206,-0.7672 0.78572,-0.26457 1.56269,-0.53425 2.36767,-0.7888 0.81255,-0.21367 1.52559,-0.47582 2.21713,-0.75126 0.64363,-0.27048 1.23472,-0.55959 1.76284,-0.86985 0.573,-0.29812 1.06201,-0.61109 1.44647,-0.95692 0.39704,-0.39549 0.85701,-0.7788 1.32488,-1.16041 0.50855,-0.41477 1.01914,-0.82777 1.48282,-1.25168 0.33732,-0.36379 0.58668,-0.73951 0.92101,-1.10411 0.27836,-0.35252 0.55426,-0.70707 0.7609,-1.06825 0.29987,-0.43628 0.47888,-0.88112 0.58372,-1.33194 0.0787,-0.3922 0.0853,-0.78597 0.0893,-1.17926 0.005,-0.35881 0.0303,-0.71548 -0.10311,-1.07073 -0.0778,-0.4598 -0.40308,-0.89364 -0.72013,-1.33178 -0.28517,-0.39213 -0.59366,-0.77728 -0.76739,-1.18162 -0.002,-0.43769 -0.41385,-0.77594 -0.97803,-1.12868 -0.47896,-0.34246 -1.1977,-0.60194 -1.78986,-0.90817 -0.70719,-0.31988 -1.53351,-0.58504 -2.3353,-0.86391 -0.85481,-0.32915 -1.80051,-0.61203 -2.69579,-0.9213 -0.75449,-0.20368 -1.49932,-0.41219 -2.24667,-0.62024 -0.60141,-0.17222 -1.16265,-0.36297 -1.86615,-0.45661 -0.93725,-0.0801 -1.89735,-0.052 -2.83902,-0.1109 -0.97925,-0.0519 -1.97323,-0.1542 -2.96065,-0.0983 -0.95001,0.0633 -1.80512,0.25171 -2.73024,0.35782 1.09786,-0.32299 -2.49898,0.57051 -1.27203,0.27719 9.13116,-2.18298 6.21009,-1.60657 4.4847,-1.00573 -0.62592,0.24999 -1.35181,0.45092 -1.96959,0.70361 -0.73656,0.25737 -1.37786,0.54338 -1.93695,0.86779 -0.42489,0.25167 -0.20894,0.12715 -0.64786,0.37362 0,0 -5.92981,1.07117 -5.92981,1.07117 v 0 c 0.40276,-0.26031 0.18234,-0.14044 0.65505,-0.36154 0.47015,-0.35839 1.08868,-0.66806 1.8506,-0.92808 1.17716,-0.43839 -0.65353,0.25286 0.57612,-0.24612 0.42714,-0.17333 0.9903,-0.2796 1.40014,-0.46326 2.1868,-0.89559 5.06601,-1.47058 7.91112,-1.92968 0.92804,-0.12987 1.83607,-0.30415 2.83549,-0.30791 1.01265,0.0106 2.00959,0.0825 3.01223,0.13759 0.99171,0.0314 2.0084,0.0239 2.95933,0.16183 0.70315,0.13358 1.31239,0.329 1.94936,0.50904 0.74029,0.22101 1.52223,0.41641 2.24606,0.64659 0.90157,0.30616 1.83201,0.59747 2.6955,0.92258 0.83893,0.28743 1.69206,0.56664 2.41883,0.90447 0.61104,0.30999 1.33058,0.58178 1.81862,0.93159 0.59883,0.3791 1.10378,0.75748 1.11324,1.2262 0.1456,0.39713 0.44758,0.77158 0.71544,1.15597 0.31142,0.44793 0.69228,0.88726 0.77513,1.35629 0.15836,0.36937 0.18478,0.73599 0.15283,1.11127 -0.004,0.40113 -0.009,0.80264 -0.0784,1.20292 -0.0928,0.45771 -0.21839,0.91616 -0.53456,1.35811 -0.17455,0.37642 -0.47865,0.73617 -0.7227,1.10506 -0.33177,0.36959 -0.66241,0.73729 -0.9137,1.11816 -0.4387,0.43166 -0.94741,0.84804 -1.48365,1.25993 -0.41006,0.39148 -0.95639,0.75711 -1.32058,1.15699 -0.39425,0.35708 -0.75326,0.7054 -1.37082,1.00947 -0.59968,0.29504 -1.07357,0.63482 -1.74522,0.90721 -0.67758,0.281 -1.3369,0.58623 -2.18037,0.7822 -0.81189,0.25226 -1.61755,0.51011 -2.37613,0.78645 -0.83722,0.26573 -1.65136,0.54334 -2.53403,0.7843 -0.44507,0.1151 -0.87641,0.24092 -1.29042,0.37475 -0.13978,0.0451 -0.253,0.10522 -0.40569,0.14255 -1.98059,0.48423 -3.98289,0.95314 -5.98706,1.42041 -0.12944,0.0301 -0.27398,0.0475 -0.41098,0.0713 -0.92157,0.13898 -1.83003,0.26121 -2.82825,0.19529 -1.06361,-0.0524 -2.08962,-0.16211 -3.01309,-0.39697 -1.17072,-0.29819 -2.27466,-0.63521 -3.3798,-0.97307 -1.20353,-0.32247 -2.34758,-0.6827 -3.5073,-1.03147 -0.95088,-0.30833 -1.95616,-0.59591 -2.67704,-1.00522 -0.55556,-0.34788 -1.22633,-0.66237 -1.75477,-1.01847 -0.65441,-0.42367 -0.96373,-0.88377 -1.14035,-1.37963 -0.28402,-0.53539 -0.50507,-1.07326 -0.4181,-1.62426 -0.004,-0.53489 -6e-5,-1.06978 -0.007,-1.60465 0.004,-0.52645 8.4e-4,-1.05289 0.002,-1.57934 0.005,-0.6135 -0.01,-1.22731 0.0472,-1.84047 0.0859,-0.58385 0.18194,-1.17308 0.65968,-1.72909 0.51263,-0.55593 0.88134,-1.13758 1.59334,-1.65931 0.84255,-0.59875 1.71301,-1.1889 2.62886,-1.76926 0.99249,-0.54042 1.94125,-1.0933 3.22664,-1.52402 3.15943,-1.15145 7.07224,-1.88983 10.87984,-2.60473 2.12423,-0.34948 4.23316,-0.74047 6.53217,-0.84196 0,0 -5.20242,1.60347 -5.20242,1.60347 z"
       inkscape:connector-curvature="0" />
    <path
       style="opacity:0.75;fill:#9780e8;fill-opacity:1;stroke:#9780e8;stroke-width:0.19747713;stroke-miterlimit:4;stroke-dasharray:none;stroke-opacity:1"
       id="path2501"
       d="m 227.54641,271.94296 c -0.0246,0.49365 -0.0214,0.98757 -0.023,1.48134 -8.4e-4,0.45806 0.012,0.91611 0.012,1.37415 0.002,0.33748 0.005,0.67496 0.009,1.01244 0.002,0.28253 0.002,0.56507 0.002,0.84762 6e-5,0.2777 1e-5,0.55539 0,0.8331 0.002,0.29174 -0.002,0.58348 -0.004,0.87524 0.0458,0.33665 -0.0817,0.6678 -0.17489,1.00023 -0.0957,0.30404 -0.0861,0.61176 -0.15028,0.9168 -0.1094,0.27646 -0.20072,0.55339 -0.2488,0.83342 -0.0387,0.27565 -0.0401,0.55198 -0.042,0.82806 -5.2e-4,0.27822 5.2e-4,0.55644 8.3e-4,0.83467 5.2e-4,0.27838 5.2e-4,0.55677 5.2e-4,0.83515 3e-5,0.18558 3e-5,0.37115 3e-5,0.55673 0,0 -4.08289,0.93741 -4.08289,0.93741 v 0 c 1e-5,-0.18557 1e-5,-0.37115 -2e-5,-0.55671 -4e-5,-0.27835 -8e-5,-0.55668 -5.1e-4,-0.83501 -5.2e-4,-0.27841 -0.002,-0.55681 -0.002,-0.83522 5.2e-4,-0.28008 -3e-5,-0.5603 0.0286,-0.84014 0.0368,-0.28427 0.10169,-0.56754 0.23706,-0.84616 0.12127,-0.30155 0.0524,-0.61305 0.16107,-0.91646 0.0865,-0.3253 0.2376,-0.6481 0.19723,-0.97708 -0.002,-0.29118 -0.005,-0.58234 -0.004,-0.87352 -2e-5,-0.2777 -8e-5,-0.55539 -1e-5,-0.83309 1e-4,-0.28282 2.1e-4,-0.56562 0.002,-0.84844 0.002,-0.33871 0.005,-0.67742 0.009,-1.01614 2.2e-4,-0.45992 0.0132,-0.91981 0.0121,-1.37973 -0.002,-0.49026 0.002,-0.98067 -0.023,-1.47082 0,0 4.08485,-0.93784 4.08485,-0.93784 z"
       inkscape:connector-curvature="0" />
    <path
       style="opacity:0.75;fill:#9780e8;fill-opacity:1;stroke:#9780e8;stroke-width:0.19747713;stroke-miterlimit:4;stroke-dasharray:none;stroke-opacity:1"
       id="path2503"
       d="m 224.83497,274.80903 c 1.93007,-0.67123 4.06537,-1.22683 6.25696,-1.70451 0.66458,-0.10766 1.35469,-0.19122 2.04663,-0.25725 0.62734,-0.0488 1.24367,-0.0931 1.84214,0.0204 0.59121,0.0837 1.0975,0.24447 1.6628,0.35376 0.55066,0.12328 1.10248,0.24322 1.65041,0.36887 0.55518,0.0915 0.99814,0.25479 1.41054,0.44025 0.4997,0.23005 0.90973,0.49621 1.31182,0.76127 0.44453,0.22473 0.83748,0.46117 1.09589,0.73958 0.2819,0.27061 0.42992,0.55808 0.50356,0.8535 0.12161,0.27518 0.24586,0.5489 0.31264,0.82812 0.0603,0.29102 0.0578,0.58349 0.0592,0.87546 -0.005,0.34649 -0.002,0.69297 -5.1e-4,1.03946 -0.005,0.33397 8.3e-4,0.66794 -0.004,1.0019 -0.004,0.35585 -0.003,0.7117 5.1e-4,1.06756 0.0605,0.25631 0.18515,0.5078 0.24833,0.76422 0.0614,0.28541 0.06,0.57236 0.0622,0.85879 0.002,0.30831 0.003,0.61661 0.004,0.92492 1e-5,0.0478 3e-5,0.0958 6e-5,0.14359 0,0 -4.08162,0.93691 -4.08162,0.93691 v 0 c 2.1e-4,-0.0479 4.4e-4,-0.0959 6.2e-4,-0.14379 0.002,-0.3083 0.005,-0.61661 0.004,-0.92491 -0.004,-0.27959 -0.007,-0.55957 -0.0522,-0.83856 -0.0549,-0.26439 -0.17334,-0.52328 -0.25751,-0.7858 0.004,-0.35594 0.004,-0.71189 5.3e-4,-1.06783 -0.004,-0.33376 0.004,-0.6675 -8.4e-4,-1.00126 0.004,-0.34626 0.01,-0.69255 0.003,-1.03881 -0.004,-0.28548 -0.005,-0.57131 -0.0476,-0.85629 -0.0547,-0.27976 -0.16491,-0.55468 -0.3049,-0.82833 -0.0599,-0.27716 -0.17502,-0.54873 -0.44893,-0.80128 -0.2306,-0.26793 -0.63655,-0.48248 -1.03747,-0.70305 -0.38691,-0.2533 -0.78075,-0.50865 -1.27396,-0.72288 -0.39435,-0.16533 -0.82987,-0.29654 -1.33462,-0.38601 -0.55124,-0.11786 -1.08005,-0.25486 -1.63929,-0.36541 -0.53831,-0.11794 -1.05556,-0.25648 -1.63725,-0.32944 -0.56421,-0.0439 -1.1389,0.0142 -1.69223,0.0663 -0.66755,0.0781 -1.34953,0.14683 -1.96488,0.29186 -1.60233,0.39193 -0.0445,0.0127 3.12735,-0.82037 0.13758,-0.0361 -0.28329,0.0658 -0.42016,0.10252 -0.40444,0.10842 -0.76439,0.24332 -1.15148,0.36305 0,0 -4.25235,0.7734 -4.25235,0.7734 z"
       inkscape:connector-curvature="0" />
    <path
       style="opacity:0.75;fill:#9780e8;fill-opacity:1;stroke:#9780e8;stroke-width:0.19747713;stroke-miterlimit:4;stroke-dasharray:none;stroke-opacity:1"
       id="path2505"
       d="m 238.66575,275.79479 c 0.35174,-0.35505 0.55591,-0.73353 0.88866,-1.09202 0.20042,-0.22343 0.53029,-0.40844 0.86693,-0.59164 1.47561,-0.66775 3.5271,-0.99056 5.36752,-1.4114 0.52243,-0.10463 1.00929,-0.23962 1.51583,-0.35835 0.51707,-0.0949 1.08078,-0.10259 1.63116,-0.11162 0.70594,-0.0282 1.30767,0.10526 1.9221,0.23815 0.55627,0.10803 1.15234,0.14683 1.72747,0.22827 0.49229,0.10347 0.9106,0.2505 1.28339,0.42691 0.50077,0.21307 0.99946,0.42585 1.46722,0.65556 0.50549,0.24861 1.01191,0.50236 1.4818,0.76603 0.53164,0.27416 0.80278,0.61605 1.02199,0.96062 0.12703,0.35432 0.35285,0.69575 0.5735,1.03978 0.14907,0.3484 0.33869,0.69321 0.48246,1.04213 0.0982,0.29779 0.27686,0.5873 0.36254,0.88612 0.0768,0.31576 0.0912,0.63359 0.10028,0.9509 0.007,0.30521 -4.3e-4,0.61041 -8.3e-4,0.91562 -2e-5,0.30173 8.3e-4,0.60346 0.002,0.90517 4.7e-4,0.28004 5.8e-4,0.56006 6.2e-4,0.8401 2e-5,0.2781 1e-5,0.5562 1e-5,0.8343 0.0198,0.24892 -0.0729,0.49642 -0.26809,0.72895 0,0 -4.17033,0.86841 -4.17033,0.86841 v 0 c 0.20033,-0.20983 0.38188,-0.42603 0.35548,-0.65995 -2e-5,-0.2781 -3e-5,-0.5562 -3e-5,-0.83429 5e-5,-0.28017 1e-4,-0.56032 6.4e-4,-0.84048 6e-4,-0.30227 0.003,-0.60454 0.004,-0.90682 5.9e-4,-0.30422 -0.003,-0.60844 -8.3e-4,-0.91267 -0.004,-0.31037 -0.007,-0.62132 -0.0731,-0.93056 -0.0783,-0.29644 -0.25341,-0.58269 -0.3514,-0.87713 -0.12576,-0.34408 -0.32025,-0.68176 -0.45392,-1.0251 -0.21266,-0.34551 -0.47787,-0.6832 -0.57153,-1.04132 -0.19117,-0.31958 -0.44505,-0.63362 -0.93836,-0.88558 -0.46575,-0.25893 -0.95923,-0.51006 -1.45676,-0.75604 -0.47175,-0.22588 -0.98672,-0.4297 -1.48339,-0.64376 -0.33731,-0.14736 -0.7074,-0.27409 -1.15851,-0.34226 -0.5883,-0.0808 -1.2046,-0.12312 -1.7545,-0.25485 -0.57565,-0.11973 -1.15415,-0.19054 -1.79582,-0.15139 -0.52886,0.0213 -1.05418,0.0556 -1.51412,0.1849 -0.49347,0.12676 -1.00947,0.23682 -1.52205,0.34695 -0.29371,0.0599 -0.27998,0.0554 -0.5601,0.11924 -0.0867,0.0197 -0.34253,0.0827 -0.25882,0.0604 6.72311,-1.78483 4.5044,-1.25872 3.28069,-0.84625 -0.39248,0.1402 -0.708,0.33431 -0.94714,0.53119 -0.42417,0.33712 -0.59081,0.71973 -0.88806,1.08075 0,0 -4.16787,0.86302 -4.16787,0.86302 z"
       inkscape:connector-curvature="0" />
    <path
       style="opacity:0.75;fill:#9780e8;fill-opacity:1;stroke:#9780e8;stroke-width:0.23030956;stroke-miterlimit:4;stroke-dasharray:none;stroke-opacity:1"
       id="path2513"
       d="m 270.90215,276.39778 c 1.54645,0.25776 3.21964,0.30474 4.8552,0.3542 2.09646,0.0488 4.19683,0.051 6.2957,0.0488 0.75313,-0.0182 1.52634,-0.0406 2.23328,-0.16793 0.16939,-0.0306 0.64259,-0.15405 0.48338,-0.11441 -4.42844,1.10233 -5.48969,1.4736 -3.83235,0.91374 0.75584,-0.32136 1.07285,-0.7457 1.27022,-1.1857 0.18804,-0.52494 0.22179,-1.04633 -0.0491,-1.56475 -0.0947,-0.0782 -0.16113,-0.16437 -0.28404,-0.23473 -0.88389,-0.50587 -2.745,-0.7065 -4.07026,-0.85025 -1.44776,-0.0998 -2.93167,-0.23192 -4.40731,-0.18846 -0.79792,0.0234 -1.10984,0.0759 -1.86548,0.16334 -0.26848,0.0506 -0.54701,0.0922 -0.80549,0.15193 -0.24911,0.0576 -0.96194,0.25623 -0.71232,0.19906 1.31474,-0.30113 2.56013,-0.66151 3.90991,-0.93143 0.25538,-0.051 -0.40235,0.17187 -0.58245,0.26604 -0.36169,0.18912 -0.72324,0.44745 -1.02729,0.65265 -1.17149,0.816 -1.99837,1.70324 -2.68731,2.61422 -0.72519,1.00918 -1.02414,2.01445 -0.79706,3.06587 0.29254,0.94375 1.54945,1.67004 3.01083,2.33754 1.69824,0.69094 3.84935,0.99021 6.05835,1.21292 1.88995,0.15128 3.82433,0.23452 5.74539,0.18855 0.61808,-0.0153 1.23626,-0.0461 1.79662,-0.16946 0.14037,-0.0309 0.53777,-0.14228 0.40075,-0.10861 -4.32411,1.06223 -5.52585,1.54466 -4.02243,0.95961 0.0744,-0.039 0.14889,-0.0779 0.22334,-0.11691 0,0 4.99304,-0.93106 4.99304,-0.93106 v 0 c -0.074,0.0413 -0.14798,0.0828 -0.22197,0.12412 -1.29895,0.84526 -0.20407,0.17949 -5.19513,1.44112 -0.68038,0.17198 -1.5462,0.15459 -2.29663,0.18225 -1.94046,0.005 -3.8863,-0.0713 -5.7838,-0.25301 -2.28531,-0.25272 -4.48666,-0.59622 -6.22947,-1.32263 -1.5307,-0.70647 -2.84123,-1.48257 -3.18736,-2.47057 -0.0987,-0.42442 -0.1591,-0.5472 -0.12704,-0.98067 0.0545,-0.7377 0.43083,-1.46445 0.85291,-2.17575 0.66668,-0.92301 1.43965,-1.82474 2.58582,-2.65839 0.3154,-0.22214 1.06364,-0.83972 1.5356,-0.98011 2.06325,-0.61364 4.33778,-1.35354 6.80812,-1.70992 0.83897,-0.0711 1.04647,-0.10429 1.92584,-0.11197 1.50202,-0.0131 2.99869,0.11651 4.46626,0.23684 1.53328,0.18167 3.37264,0.40289 4.37163,0.99594 0.14634,0.0869 0.2312,0.1906 0.34681,0.2859 0.13519,0.22762 0.24393,0.36643 0.28113,0.6017 0.0547,0.34603 -0.0559,0.69943 -0.11184,1.04383 -0.15699,0.47615 -0.44026,0.93433 -1.11952,1.32405 -2.09295,1.02757 -5.13462,1.61622 -8.19635,1.63398 -2.10286,-0.007 -4.20741,-0.009 -6.3072,-0.0653 -1.69976,-0.0573 -3.41766,-0.125 -5.03178,-0.38227 0,0 4.50082,-1.32389 4.50082,-1.32389 z"
       inkscape:connector-curvature="0" />
    <path
       style="opacity:0.75;fill:#9780e8;fill-opacity:1;stroke:#9780e8;stroke-width:0.23030956;stroke-miterlimit:4;stroke-dasharray:none;stroke-opacity:1"
       id="path2515"
       d="m 300.08172,271.54694 c -0.18875,1.11741 -0.48271,2.23024 -0.73754,3.34506 -0.23175,1.06374 -0.31874,2.13188 -0.34512,3.19993 -0.005,0.53786 0.003,1.07573 0.0134,1.61357 0.007,0.34289 0.0109,0.68578 0.0124,1.02868 -0.006,0.36176 -0.004,0.72353 -8.3e-4,1.08531 8.3e-4,0.32893 0.002,0.65787 0.003,0.9868 2.4e-4,0.31963 1.2e-4,0.63926 1.2e-4,0.95889 -2e-5,0.26627 -2e-5,0.53255 -2e-5,0.79882 0,0 -4.83526,1.07664 -4.83526,1.07664 v 0 c -10e-6,-0.26628 -3e-5,-0.53255 -4e-5,-0.79881 0,-0.31967 -2e-5,-0.63932 1.3e-4,-0.95898 2.6e-4,-0.32926 6.3e-4,-0.65853 0.003,-0.98779 8.3e-4,-0.36136 0.005,-0.72273 -0.004,-1.08409 4e-5,-0.34396 9e-5,-0.68793 0.004,-1.0319 0.005,-0.54478 0.012,-1.08963 0.0527,-1.63419 0.0743,-1.0784 0.16683,-2.15714 0.39936,-3.23169 0.24072,-1.10283 0.58963,-2.2026 0.59621,-3.31259 0,0 4.84011,-1.05366 4.84011,-1.05366 z"
       inkscape:connector-curvature="0" />
    <path
       style="opacity:0.75;fill:#9780e8;fill-opacity:1;stroke:#9780e8;stroke-width:0.23030956;stroke-miterlimit:4;stroke-dasharray:none;stroke-opacity:1"
       id="path2517"
       d="m 296.88821,275.72945 c 0.84207,-0.43594 1.66455,-0.87807 2.46225,-1.32957 0.50707,-0.35706 1.27356,-0.56466 2.08093,-0.77088 1.91935,-0.49123 2.92925,-0.75078 5.57812,-1.3928 1.41003,-0.34177 -5.60783,1.39201 -4.19628,1.05145 1.62045,-0.39094 3.91679,-1.09571 5.98622,-1.44376 0.85442,-0.11642 1.76314,-0.21578 2.66107,-0.16677 0.86434,0.0404 1.54434,0.26731 2.11803,0.53694 0.57431,0.29081 1.21292,0.53742 1.6675,0.86944 0.43389,0.38985 0.82932,0.78799 1.27146,1.17584 0.44881,0.34492 0.63287,0.72896 0.81941,1.11224 0.20049,0.45302 0.24167,0.91409 0.40386,1.36939 0.18098,0.46351 0.23628,0.93416 0.26737,1.40346 0.0328,0.48281 0.0251,0.96585 0.0297,1.4488 0.007,0.42488 7e-5,0.84976 -1.1e-4,1.27465 0.002,0.37631 0.005,0.75263 0.007,1.12893 8.3e-4,0.32362 8.3e-4,0.64723 0.002,0.97084 6e-5,0.31907 10e-6,0.63814 0,0.9572 -10e-6,0.0532 -10e-6,0.10648 -10e-6,0.15971 0,0 -4.8353,1.07664 -4.8353,1.07664 v 0 c 0,-0.0532 -1e-5,-0.10646 -1e-5,-0.15972 -2e-5,-0.31905 -9e-5,-0.63811 -2e-5,-0.95718 1.1e-4,-0.32387 2.6e-4,-0.64774 0.002,-0.97161 0.002,-0.37756 0.005,-0.7551 0.009,-1.13267 8.3e-4,-0.4252 -0.005,-0.85042 0.005,-1.27563 0.005,-0.48132 0.002,-0.96266 -0.0162,-1.44391 -0.0317,-0.45959 -0.0714,-0.92062 -0.24671,-1.3749 -0.16129,-0.45157 -0.21345,-0.90693 -0.39061,-1.35751 -0.17844,-0.36315 -0.35118,-0.7302 -0.75511,-1.06101 -0.42829,-0.38371 -0.83128,-0.77307 -1.25621,-1.15748 -0.43135,-0.31482 -1.07967,-0.54038 -1.61075,-0.82196 -0.52706,-0.23068 -1.13174,-0.38499 -1.89817,-0.38555 -0.85786,0.0148 -1.70179,0.0981 -2.49186,0.24611 -0.15266,0.032 -0.30651,0.0627 -0.45799,0.0958 -0.14693,0.032 -0.57863,0.13547 -0.43717,0.0991 1.39239,-0.35819 5.60288,-1.40748 4.19051,-1.06456 -17.00795,4.12931 3.09712,-0.64758 -1.3803,0.34126 -0.771,0.20284 -1.66446,0.35034 -2.16506,0.69469 -0.83104,0.43332 -1.60711,0.88931 -2.42469,1.32697 0,0 -4.99825,0.92804 -4.99825,0.92804 z"
       inkscape:connector-curvature="0" />
    <path
       style="opacity:0.75;fill:#9780e8;fill-opacity:1;stroke:#9780e8;stroke-width:0.23030956;stroke-miterlimit:4;stroke-dasharray:none;stroke-opacity:1"
       id="path2519"
       d="m 329.83905,271.30535 c -0.0507,0.78609 -0.0475,1.57264 -0.0435,2.35896 0.003,0.80251 0.004,1.60501 0.009,2.40751 0.0301,0.75166 0.30437,1.49483 0.51096,2.2396 0.11478,0.58366 0.20768,1.16577 0.38958,1.74639 0.12733,0.37073 0.1896,0.74439 0.21985,1.11874 0.0414,0.30816 -0.0264,0.61867 0.046,0.92577 0.13819,0.27768 0.23276,0.5575 0.28498,0.84063 0.0401,0.26226 0.0447,0.52519 0.0491,0.78792 0,0 -4.8341,1.07796 -4.8341,1.07796 v 0 c -0.003,-0.25772 -0.005,-0.51558 -0.0356,-0.77301 -0.0419,-0.27873 -0.11867,-0.55534 -0.27218,-0.82707 -0.11603,-0.31351 -0.0291,-0.63323 -0.0648,-0.94986 -0.0185,-0.36883 -0.06,-0.73752 -0.1691,-1.10366 -0.16266,-0.58494 -0.274,-1.16967 -0.35857,-1.75775 -0.18088,-0.75508 -0.47413,-1.50519 -0.52868,-2.2652 0.005,-0.80385 0.006,-1.60772 0.009,-2.41157 0.004,-0.77988 0.007,-1.56001 -0.0434,-2.33964 0,0 4.83114,-1.07572 4.83114,-1.07572 z"
       inkscape:connector-curvature="0" />
    <path
       style="opacity:0.75;fill:#9780e8;fill-opacity:1;stroke:#9780e8;stroke-width:0.23030956;stroke-miterlimit:4;stroke-dasharray:none;stroke-opacity:1"
       id="path2521"
       d="m 329.11066,266.8097 c -0.0306,0.48802 -0.0176,0.97633 -0.0111,1.46446 0,0 -4.8155,1.07224 -4.8155,1.07224 v 0 c 0.006,-0.48651 0.0199,-0.97318 -0.0111,-1.45955 0,0 4.83757,-1.07715 4.83757,-1.07715 z"
       inkscape:connector-curvature="0" />
    <path
       style="opacity:0.75;fill:#80a0e8;fill-opacity:1;stroke:#80a0e8;stroke-width:0.73305506;stroke-miterlimit:4;stroke-dasharray:none;stroke-opacity:1"
       d="m 419.26115,296.56442 c 0.50723,-1.43257 2.34561,-4.25899 3.68429,-5.66439 4.13854,-4.34486 10.01812,-6.69639 16.74085,-6.69546 4.3401,5.1e-4 7.23898,0.5402 16.31872,3.0376 10.78197,2.96561 11.52709,3.09528 17.64181,3.06977 4.41756,-0.0184 5.33393,-0.0962 7.88392,-0.66844 8.90182,-1.99789 15.82397,-6.25884 20.51386,-12.62744 l 1.44638,-1.96407 v 11.03386 11.03387 h -42.21324 -42.21321 z"
       id="path2569"
       inkscape:connector-curvature="0" />
    <path
       style="opacity:0.75;fill:#80a0e8;fill-opacity:1;stroke:#80a0e8;stroke-width:0.73305506;stroke-miterlimit:4;stroke-dasharray:none;stroke-opacity:1"
       d="m 85.271338,253.03373 c -0.507228,1.43256 -2.345621,4.25898 -3.684289,5.66439 -4.138546,4.34485 -10.018133,6.69639 -16.740856,6.69547 -4.340103,-5.2e-4 -7.238977,-0.54021 -16.318723,-3.03762 -10.781967,-2.96561 -11.527088,-3.09527 -17.641829,-3.06976 -4.417551,0.0184 -5.333926,0.0962 -7.883909,0.66844 -8.901833,1.99788 -15.8239745,6.25884 -20.5138664,12.62745 l -1.4463647,1.96406 V 263.51229 252.47843 H 43.254732 85.467957 Z"
       id="path2569-4"
       inkscape:connector-curvature="0" />
  </g>
</svg>
